<svg width="72" height="72" viewBox="0 0 72 72" fill="none" xmlns="http://www.w3.org/2000/svg">
<rect width="72" height="72" rx="36" fill="#80F6D8"/>
<g clip-path="url(#clip0_1330_92)">
<path d="M52.1992 14.4656C51.9114 14.1155 51.5581 13.8268 51.1597 13.6163C50.7613 13.4058 50.3258 13.2777 49.8783 13.2394L47.3498 13.0135C46.9022 12.9728 46.4512 13.0226 46.0226 13.1598C45.594 13.297 45.1964 13.5191 44.8527 13.8132C44.5077 14.1059 44.2234 14.4653 44.0161 14.8705C43.8088 15.2757 43.6828 15.7186 43.6453 16.1736L42.7229 26.8619L41.8037 16.1736C41.7233 15.2566 41.2882 14.4094 40.5938 13.8177C39.8994 13.2259 39.0023 12.938 38.0992 13.0169L35.5707 13.2427C34.6678 13.3235 33.8333 13.7649 33.2505 14.47C32.6678 15.1751 32.3843 16.0862 32.4624 17.0034L33.1526 25.025C32.9605 24.9913 32.766 24.9745 32.5711 24.9748H30.0394C29.3991 24.9755 28.7719 25.1585 28.2289 25.503C27.6859 25.8475 27.2488 26.3397 26.9673 26.9238C26.3863 26.4909 25.6849 26.2565 24.9643 26.2546H22.4259C21.518 26.255 20.6474 26.6217 20.0056 27.2739C19.3637 27.9261 19.0031 28.8104 19.0031 29.7326V45.217C18.9996 47.0601 19.3627 48.8849 20.0705 50.582C20.7518 52.2195 21.7391 53.7074 22.9778 54.9634C24.2145 56.2214 25.6795 57.2241 27.2918 57.9161C28.9618 58.6345 30.7575 59.0032 32.5711 59.0001H37.6478C39.4626 59.0036 41.2593 58.6349 42.9304 57.9161C44.5427 57.2241 46.0077 56.2214 47.2445 54.9634C48.4831 53.7074 49.4704 52.2195 50.1518 50.582C50.8596 48.8849 51.2226 47.0601 51.2192 45.217V44.9995C51.6148 44.6734 51.9341 44.2619 52.1538 43.7948C52.3734 43.3278 52.488 42.817 52.4892 42.2995V39.7215C52.4893 39.2128 52.3791 38.7103 52.1664 38.2497C51.9537 37.7892 51.6438 37.3818 51.2587 37.0566L52.9866 17.0001C53.0265 16.5457 52.9775 16.0879 52.8424 15.6529C52.7073 15.2179 52.4886 14.8144 52.1992 14.4656V14.4656ZM35.7271 15.0227L38.2556 14.7968C38.6934 14.7588 39.1283 14.8985 39.4648 15.1854C39.8013 15.4724 40.0121 15.8831 40.0511 16.3276L41.7642 36.2486H35.9907V28.4444C35.9901 27.532 35.6349 26.6566 35.0024 26.0087L34.2184 16.8428C34.1809 16.3988 34.3183 15.9578 34.6006 15.6166C34.8828 15.2754 35.2867 15.0618 35.7238 15.0227H35.7271ZM28.3807 28.4444C28.3811 27.9979 28.556 27.5699 28.867 27.2543C29.178 26.9387 29.5997 26.7615 30.0394 26.7615H32.5777C33.0171 26.7619 33.4383 26.9394 33.749 27.2549C34.0596 27.5704 34.2344 27.9982 34.2348 28.4444V36.2352H28.384V28.4444H28.3807ZM20.7656 29.7326C20.7665 29.2872 20.9409 28.8604 21.2509 28.5453C21.5608 28.2302 21.9809 28.0526 22.4194 28.0513H24.9577C25.3969 28.0522 25.818 28.2298 26.1285 28.5452C26.4391 28.8606 26.6139 29.2882 26.6148 29.7342V34.8902C26.6139 35.3362 26.4391 35.7638 26.1285 36.0792C25.818 36.3946 25.3969 36.5722 24.9577 36.5731H22.4194C21.9801 36.5727 21.5588 36.3952 21.2481 36.0797C20.9374 35.7642 20.7628 35.3364 20.7623 34.8902V29.7342L20.7656 29.7326ZM50.7283 42.2995C50.7286 42.5943 50.6526 42.884 50.5081 43.1397C50.3636 43.3954 50.1555 43.6081 49.9047 43.7566L49.4665 44.0142V45.217C49.463 48.3967 48.2178 51.4451 46.0039 53.6935C43.7901 55.9419 40.7885 57.2066 37.6577 57.2101H32.581C29.4502 57.2066 26.4486 55.9419 24.2347 53.6935C22.0209 51.4451 20.7757 48.3967 20.7722 45.217V37.9215C21.2788 38.2084 21.8492 38.3587 22.4292 38.3581H24.3598C24.1787 38.7879 24.0856 39.2507 24.0863 39.7182C24.0872 41.3221 24.7144 42.8603 25.8304 43.9953C26.9464 45.1302 28.46 45.7693 30.0394 45.7724H35.4587C34.6725 46.699 34.2404 47.8817 34.2414 49.1049C34.2411 49.2225 34.2638 49.3389 34.308 49.4476C34.3522 49.5563 34.4172 49.6551 34.4991 49.7382C34.5809 49.8214 34.6781 49.8873 34.7851 49.9322C34.8922 49.9771 35.0068 50.0001 35.1226 49.9999C35.3563 49.9999 35.5805 49.9056 35.7458 49.7377C35.9111 49.5699 36.0039 49.3422 36.0039 49.1049C36.0052 48.2223 36.351 47.3763 36.9654 46.7523C37.5799 46.1283 38.4129 45.7771 39.2818 45.7758H39.3642H41.8911C42.1246 45.7753 42.3485 45.6809 42.5137 45.5131C42.6788 45.3454 42.7718 45.118 42.7722 44.8808C42.7722 44.6434 42.6794 44.4158 42.5141 44.2479C42.3489 44.0801 42.1248 43.9858 41.8911 43.9858H30.0394C28.9274 43.984 27.8614 43.5345 27.0753 42.7357C26.2891 41.937 25.8469 40.8542 25.8456 39.7249C25.846 39.2787 26.0207 38.8508 26.3314 38.5353C26.6421 38.2198 27.0633 38.0424 27.5027 38.0419H49.0811C49.5202 38.0428 49.941 38.2205 50.2513 38.5359C50.5616 38.8514 50.7361 39.2789 50.7365 39.7249L50.7283 42.2995ZM49.0695 36.2486H43.6848L45.4012 16.3276C45.4397 15.8832 45.6503 15.4725 45.9866 15.1855C46.3228 14.8986 46.7574 14.7588 47.195 14.7968L49.7235 15.0227C50.161 15.0618 50.5654 15.2756 50.848 15.6171C51.1305 15.9586 51.2681 16.4 51.2307 16.8445L49.5555 36.2837C49.3945 36.2601 49.2321 36.2484 49.0695 36.2486Z" fill="#060B09"/>
</g>
<defs>
<clipPath id="clip0_1330_92">
<rect width="34" height="46" fill="white" transform="translate(19 13)"/>
</clipPath>
</defs>
</svg>
