<svg xmlns="http://www.w3.org/2000/svg" viewBox="0 0 24 14.94"><g id="Camada_2" data-name="Camada 2"><g id="Camada_1-2" data-name="Camada 1"><path id="behance-ícone" d="M21.09,8.06a2.35,2.35,0,0,0-.75-1.69,2.43,2.43,0,0,0-1.65-.58A2.2,2.2,0,0,0,17,6.4a2.87,2.87,0,0,0-.74,1.66m7.62-.28A12.58,12.58,0,0,1,24,9.9h-7.8a2.59,2.59,0,0,0,1.13,2.26,2.72,2.72,0,0,0,1.55.41,2.26,2.26,0,0,0,1.52-.49,2.08,2.08,0,0,0,.6-.75h2.86a3.46,3.46,0,0,1-1.06,1.95,5.1,5.1,0,0,1-4,1.56A6,6,0,0,1,15,13.52a5.31,5.31,0,0,1-1.6-4.29A5.71,5.71,0,0,1,14.86,5a5.14,5.14,0,0,1,3.83-1.48A5.87,5.87,0,0,1,21.2,4,4.34,4.34,0,0,1,23,5.57a5.35,5.35,0,0,1,.86,2.21M9.09,10.22a1.61,1.61,0,0,0-.95-1.61,4.53,4.53,0,0,0-1.5-.28H3.44v4H6.6a3.42,3.42,0,0,0,1.51-.26,1.86,1.86,0,0,0,1-1.86M3.44,5.89H6.6a2.83,2.83,0,0,0,1.58-.38,1.37,1.37,0,0,0,.6-1.3A1.37,1.37,0,0,0,8,2.83,5.53,5.53,0,0,0,6.23,2.6H3.44m8.22,5.64a4,4,0,0,1,.58,2.18,4.67,4.67,0,0,1-.66,2.39,4,4,0,0,1-2.75,1.92,10.53,10.53,0,0,1-2.1.21H0V0H7.2C9,0,10.32.54,11.07,1.59a3.81,3.81,0,0,1,.69,2.28,3.36,3.36,0,0,1-.69,2.2,3.55,3.55,0,0,1-1.14.85,3.39,3.39,0,0,1,1.73,1.32m10-6.12h-6V.62h6Z"/></g></g></svg>