<svg width="330" height="310" viewBox="0 0 330 310" fill="none" xmlns="http://www.w3.org/2000/svg">
<path d="M295 0H35C15.67 0 0 15.67 0 35V275C0 294.33 15.67 310 35 310H295C314.33 310 330 294.33 330 275V35C330 15.67 314.33 0 295 0Z" fill="#FFFCE1"/>
<path d="M295 15H35C23.9543 15 15 23.9543 15 35V275C15 286.046 23.9543 295 35 295H295C306.046 295 315 286.046 315 275V35C315 23.9543 306.046 15 295 15Z" fill="#FFFCE1" stroke="#0E100F" stroke-miterlimit="10"/>
<path d="M40 45C42.7614 45 45 42.7614 45 40C45 37.2386 42.7614 35 40 35C37.2386 35 35 37.2386 35 40C35 42.7614 37.2386 45 40 45Z" fill="#84F2D6"/>
<path d="M60 45C62.7614 45 65 42.7614 65 40C65 37.2386 62.7614 35 60 35C57.2386 35 55 37.2386 55 40C55 42.7614 57.2386 45 60 45Z" fill="#84F2D6"/>
<path d="M80 45C82.7614 45 85 42.7614 85 40C85 37.2386 82.7614 35 80 35C77.2386 35 75 37.2386 75 40C75 42.7614 77.2386 45 80 45Z" fill="#84F2D6"/>
<path d="M258.78 199.53L264.63 219.39L281.04 206.76L274.1 226.27L294.8 225.7L277.71 237.4L294.8 249.11L274.1 248.54L281.04 268.05L264.63 255.41L258.78 275.28L252.92 255.41L236.51 268.05L243.46 248.54L222.76 249.11L239.84 237.4L222.76 225.7L243.46 226.27L236.51 206.76L252.92 219.39L258.78 199.53Z" fill="#FF6633"/>
<path d="M15 65H315" stroke="#0E100F" stroke-miterlimit="10"/>
<path d="M38.03 110.46H49.52C57.38 110.46 60.51 113.63 60.51 117.82C60.51 120.62 59.45 123.61 56.6 124.26C59.77 125.13 61.43 128.35 61.43 131.34C61.43 135.8 58.72 139.89 49.71 139.89H38.03V110.47V110.46ZM49.98 123.01C54.72 123.01 55.54 120.85 55.54 118.87C55.54 116.43 54.57 114.64 49.7 114.64H43.08V123.01H49.98ZM49.89 135.74C55.31 135.74 56.23 133.81 56.23 131.28C56.23 127.37 53.1 126.91 49.98 126.91H43.08V135.74H49.88H49.89Z" fill="#0E100F"/>
<path d="M65.3 116.35H67.92L69.07 119.61C70.5 116.58 73.25 115.75 77.44 116.02V120.3C72.61 119.61 70.22 121.96 70.22 127.47V139.88H65.3V116.34V116.35Z" fill="#0E100F"/>
<path d="M78.1299 132.99C78.1299 128.67 81.2099 126.74 87.9199 126.05L95.3199 125.31C95.1799 121.45 93.9399 119.93 89.2099 119.93C84.8399 119.93 83.6499 121.68 83.6499 124.62L78.8699 124.67C78.8699 119.8 80.8899 116.03 89.1699 116.03C98.7799 116.03 100.16 120.17 100.16 126.51V139.89H97.4899L96.4799 136.35C95.3799 138.19 92.1099 140.21 87.2399 140.21C82.3699 140.21 78.1399 137.96 78.1399 132.99H78.1299ZM88.4699 136.35C93.2099 136.35 95.3199 133.87 95.3199 129.78V129.04L88.6499 129.78C84.5599 130.24 83.1799 131.11 83.1799 132.95C83.1799 135.11 85.0199 136.35 88.4699 136.35Z" fill="#0E100F"/>
<path d="M104.34 116.35H107.01L108.11 119.66C108.89 118.05 111.37 116.03 116.71 116.03C124.43 116.03 125.95 120.54 125.95 127.2V139.89H121.08V126.79C121.08 122.61 120.34 120.12 115.33 120.12C110.32 120.12 109.26 122.56 109.26 126.79V139.89H104.34V116.35Z" fill="#0E100F"/>
<path d="M129.44 128.11C129.44 121.67 131.65 116.02 139.46 116.02C144.1 116.02 146.45 117.68 147.46 119.24V107.38H152.29V139.88H149.62L148.52 136.52C147.69 138.13 145.07 140.2 139.51 140.2C131.74 140.2 129.44 134.55 129.44 128.11ZM140.89 136.16C146.36 136.16 147.51 132.94 147.51 128.11C147.51 123.56 146.54 120.16 140.94 120.16C135.34 120.16 134.46 123.38 134.46 128.11C134.46 132.84 135.56 136.16 140.9 136.16H140.89Z" fill="#0E100F"/>
<path d="M159.47 106.78C161.58 106.78 162.96 107.38 162.96 109.77C162.96 112.16 161.58 112.71 159.47 112.71C157.36 112.71 155.84 112.11 155.84 109.77C155.84 107.43 157.27 106.78 159.47 106.78ZM156.99 116.34H161.86V139.88H156.99V116.34Z" fill="#0E100F"/>
<path d="M166.55 116.35H169.22L170.32 119.66C171.1 118.05 173.58 116.03 178.92 116.03C186.64 116.03 188.16 120.54 188.16 127.2V139.89H183.29V126.79C183.29 122.61 182.55 120.12 177.54 120.12C172.53 120.12 171.47 122.56 171.47 126.79V139.89H166.55V116.35Z" fill="#0E100F"/>
<path d="M190.97 141.49H196.12C196.35 144.2 197.18 145.86 202.79 145.86C208.4 145.86 209.32 144.21 209.32 142.96C209.32 140.89 207.48 140.48 203.16 139.93C194.65 138.87 191.34 138.32 191.34 134.6C191.34 132.44 192.72 131.43 195.34 130.83C192.67 129.45 191.8 127.24 191.8 124.58C191.8 116.35 200.26 116.35 203.34 116.35H213.68V118.69L210.37 119.66C211.79 120.44 212.99 121.91 212.99 125.27C212.99 129.55 211.06 132.81 202.69 133.04C197.82 133.18 196.3 133.22 196.3 134.33C196.3 135.44 198.51 135.66 203.38 136.31C208.44 137 214.41 137.51 214.41 142.75C214.41 146.06 212.07 149.78 202.36 149.78C193.44 149.78 190.96 146.61 190.96 141.5L190.97 141.49ZM202.37 129.54C206.83 129.54 207.89 127.61 207.89 124.76C207.89 122.23 206.97 120.39 202.37 120.39C197.77 120.39 196.81 122.18 196.81 124.9C196.81 127.62 197.78 129.54 202.37 129.54Z" fill="#0E100F"/>
<path d="M227.43 130.97C227.43 125.54 231.71 123.38 235.06 122.6L229.22 115.47V110.46H248.76V114.6H234.51L246.46 129.04C247.01 126.93 247.33 123.98 247.33 120.3H252.07C252.07 125.63 251.24 129.59 249.86 132.58L256.43 139.89H250.32L247.24 136.26C244.9 138.93 241.82 140.21 238.46 140.21C231.1 140.21 227.43 136.58 227.43 130.97ZM238.28 135.94C240.26 135.94 242.74 135.48 244.49 133.46L238.01 126.06C234.7 126.47 232.4 127.94 232.4 130.98C232.4 134.2 234.51 135.95 238.28 135.95V135.94Z" fill="#0E100F"/>
<path d="M38.03 157.64H43.09V187.06H38.03V157.64Z" fill="#0E100F"/>
<path d="M47.51 175.29C47.51 168.85 49.72 163.2 57.53 163.2C62.17 163.2 64.52 164.86 65.53 166.42V154.56H70.36V187.06H67.69L66.59 183.7C65.76 185.31 63.14 187.38 57.58 187.38C49.81 187.38 47.51 181.72 47.51 175.29ZM58.96 183.34C64.43 183.34 65.58 180.12 65.58 175.29C65.58 170.74 64.61 167.34 59.01 167.34C53.41 167.34 52.53 170.56 52.53 175.29C52.53 180.02 53.63 183.34 58.97 183.34H58.96Z" fill="#0E100F"/>
<path d="M74.3101 175.25C74.3101 168.95 76.7001 163.21 86.0801 163.21C94.7701 163.21 97.2101 169.83 96.6101 177.23H79.4201C79.7001 181.28 81.7201 183.62 85.9501 183.62C89.8601 183.62 91.1001 181.74 91.5601 179.85H96.7101C96.3001 183.85 93.5401 187.39 86.1401 187.39C76.6701 187.39 74.3201 181.55 74.3201 175.25H74.3101ZM91.5501 173.32V173.23C91.6001 170.01 90.0801 167.02 85.6201 167.02C81.1601 167.02 79.6901 169.87 79.4601 173.32H91.5501Z" fill="#0E100F"/>
<path d="M100.66 163.52H103.33L104.43 166.83C105.21 165.22 107.69 163.2 113.03 163.2C120.75 163.2 122.27 167.7 122.27 174.37V187.06H117.4V173.96C117.4 169.78 116.66 167.29 111.65 167.29C106.64 167.29 105.58 169.73 105.58 173.96V187.06H100.66V163.52Z" fill="#0E100F"/>
<path d="M127.7 180.3V167.47H124.34V164.53L127.7 163.52V157.64H132.48V163.52H138.73V167.47H132.62V180.3C132.62 182.51 133.63 183.52 138.73 183.29V187.24C130.96 187.7 127.7 185.86 127.7 180.3Z" fill="#0E100F"/>
<path d="M144.29 153.96C146.4 153.96 147.78 154.56 147.78 156.95C147.78 159.34 146.4 159.89 144.29 159.89C142.18 159.89 140.66 159.29 140.66 156.95C140.66 154.61 142.09 153.96 144.29 153.96ZM141.81 163.52H146.68V187.06H141.81V163.52Z" fill="#0E100F"/>
<path d="M150.46 175.29C150.46 168.85 152.67 163.2 160.48 163.2C165.12 163.2 167.47 164.86 168.48 166.42V154.56H173.31V187.06H170.64L169.54 183.7C168.71 185.31 166.09 187.38 160.53 187.38C152.76 187.38 150.46 181.72 150.46 175.29ZM161.91 183.34C167.38 183.34 168.53 180.12 168.53 175.29C168.53 170.74 167.56 167.34 161.96 167.34C156.36 167.34 155.48 170.56 155.48 175.29C155.48 180.02 156.58 183.34 161.92 183.34H161.91Z" fill="#0E100F"/>
<path d="M177.12 180.17C177.12 175.85 180.2 173.92 186.91 173.23L194.31 172.49C194.17 168.63 192.93 167.11 188.2 167.11C183.83 167.11 182.64 168.86 182.64 171.8L177.86 171.85C177.86 166.98 179.88 163.21 188.16 163.21C197.77 163.21 199.15 167.35 199.15 173.69V187.07H196.48L195.47 183.53C194.37 185.37 191.1 187.39 186.23 187.39C181.36 187.39 177.13 185.14 177.13 180.17H177.12ZM187.46 183.53C192.2 183.53 194.31 181.05 194.31 176.96V176.22L187.64 176.96C183.55 177.42 182.17 178.29 182.17 180.13C182.17 182.29 184.01 183.53 187.46 183.53Z" fill="#0E100F"/>
<path d="M202.41 175.29C202.41 168.85 204.62 163.2 212.43 163.2C217.07 163.2 219.42 164.86 220.43 166.42V154.56H225.26V187.06H222.59L221.49 183.7C220.66 185.31 218.04 187.38 212.48 187.38C204.71 187.38 202.41 181.72 202.41 175.29ZM213.86 183.34C219.33 183.34 220.48 180.12 220.48 175.29C220.48 170.74 219.51 167.34 213.91 167.34C208.31 167.34 207.43 170.56 207.43 175.29C207.43 180.02 208.53 183.34 213.87 183.34H213.86Z" fill="#0E100F"/>
<path d="M229.22 175.25C229.22 168.95 231.61 163.21 240.99 163.21C249.68 163.21 252.12 169.83 251.52 177.23H234.33C234.61 181.28 236.63 183.62 240.86 183.62C244.77 183.62 246.01 181.74 246.47 179.85H251.62C251.21 183.85 248.45 187.39 241.05 187.39C231.58 187.39 229.23 181.55 229.23 175.25H229.22ZM246.46 173.32V173.23C246.51 170.01 244.99 167.02 240.53 167.02C236.07 167.02 234.6 169.87 234.37 173.32H246.46Z" fill="#0E100F"/>
<path d="M254.33 178.69H259.16C259.16 181.86 261.32 183.47 265.6 183.47C268.96 183.47 271.21 182.32 271.21 180.48C271.21 178.32 268.5 177.72 264.45 176.94C259.39 175.97 254.8 174.78 254.8 170.37C254.8 165.96 258.2 163.2 265.1 163.2C272 163.2 275.44 166.1 275.44 171.61H270.84C270.66 168.39 268.86 167.01 264.96 167.01C261.06 167.01 259.67 168.07 259.67 169.95C259.67 172.02 262.29 172.48 266.2 173.26C271.63 174.32 276.04 175.24 276.04 180.25C276.04 184.53 271.9 187.38 265.7 187.38C258.07 187.38 254.34 184.53 254.34 178.69H254.33Z" fill="#0E100F"/>
<path d="M34.77 204.81H40.15L49.3 230.51L58.54 204.81H63.96L52.33 234.23H46.12L34.76 204.81H34.77Z" fill="#0E100F"/>
<path d="M68.61 201.14C70.72 201.14 72.1 201.74 72.1 204.13C72.1 206.52 70.72 207.07 68.61 207.07C66.5 207.07 64.98 206.47 64.98 204.13C64.98 201.79 66.41 201.14 68.61 201.14ZM66.13 210.7H71V234.24H66.13V210.7Z" fill="#0E100F"/>
<path d="M74.45 225.87H79.28C79.28 229.04 81.44 230.65 85.72 230.65C89.08 230.65 91.33 229.5 91.33 227.66C91.33 225.5 88.62 224.9 84.57 224.12C79.51 223.15 74.92 221.96 74.92 217.55C74.92 213.14 78.32 210.38 85.22 210.38C92.12 210.38 95.56 213.28 95.56 218.79H90.96C90.78 215.57 88.98 214.19 85.08 214.19C81.18 214.19 79.79 215.25 79.79 217.13C79.79 219.2 82.41 219.66 86.32 220.44C91.75 221.5 96.16 222.42 96.16 227.43C96.16 231.71 92.02 234.56 85.82 234.56C78.19 234.56 74.46 231.71 74.46 225.87H74.45Z" fill="#0E100F"/>
<path d="M99.4199 223.62V210.7H104.25V223.99C104.25 228.22 105.03 230.43 110.09 230.43C115.15 230.43 116.11 228.04 116.11 223.76V210.7H121.07V234.24H118.36L117.35 230.84C116.48 232.54 113.99 234.56 108.71 234.56C100.94 234.56 99.4199 230.28 99.4199 223.62Z" fill="#0E100F"/>
<path d="M124.85 227.34C124.85 223.02 127.93 221.09 134.64 220.4L142.04 219.66C141.9 215.8 140.66 214.28 135.93 214.28C131.56 214.28 130.37 216.03 130.37 218.97L125.59 219.02C125.59 214.15 127.61 210.38 135.89 210.38C145.5 210.38 146.88 214.52 146.88 220.86V234.24H144.21L143.2 230.7C142.1 232.54 138.83 234.56 133.96 234.56C129.09 234.56 124.86 232.31 124.86 227.34H124.85ZM135.19 230.7C139.93 230.7 142.04 228.22 142.04 224.13V223.39L135.37 224.13C131.28 224.59 129.9 225.46 129.9 227.3C129.9 229.46 131.74 230.7 135.19 230.7Z" fill="#0E100F"/>
<path d="M153.45 201.14C155.56 201.14 156.94 201.74 156.94 204.13C156.94 206.52 155.56 207.07 153.45 207.07C151.34 207.07 149.82 206.47 149.82 204.13C149.82 201.79 151.25 201.14 153.45 201.14ZM150.97 210.7H155.84V234.24H150.97V210.7Z" fill="#0E100F"/>
<path d="M159.28 225.87H164.11C164.11 229.04 166.27 230.65 170.55 230.65C173.91 230.65 176.16 229.5 176.16 227.66C176.16 225.5 173.45 224.9 169.4 224.12C164.34 223.15 159.75 221.96 159.75 217.55C159.75 213.14 163.15 210.38 170.05 210.38C176.95 210.38 180.39 213.28 180.39 218.79H175.79C175.61 215.57 173.81 214.19 169.91 214.19C166.01 214.19 164.62 215.25 164.62 217.13C164.62 219.2 167.24 219.66 171.15 220.44C176.58 221.5 180.99 222.42 180.99 227.43C180.99 231.71 176.85 234.56 170.65 234.56C163.02 234.56 159.29 231.71 159.29 225.87H159.28Z" fill="#0E100F"/>
<path d="M288.9 25H269.08C266.269 25 263.99 27.2789 263.99 30.09V49.91C263.99 52.7211 266.269 55 269.08 55H288.9C291.711 55 293.99 52.7211 293.99 49.91V30.09C293.99 27.2789 291.711 25 288.9 25Z" stroke="#FF6633" stroke-miterlimit="10"/>
<path d="M275.25 33.34H278.35L283.35 46.67H280.91L280.01 44.07H273.47L272.51 46.67H270.11L275.23 33.34H275.25ZM279.44 42.4L276.75 34.82L274.04 42.4H279.43H279.44Z" fill="#FF6633"/>
<path d="M284.66 33.34H286.95V46.67H284.66V33.34Z" fill="#FF6633"/>
</svg>
