<svg width="490" height="546" viewBox="0 0 490 546" fill="none" xmlns="http://www.w3.org/2000/svg">
<g clip-path="url(#clip0)">
<path d="M330.434 68.2782C314.284 60.76 296.924 56.8714 278.836 56.7204C270.079 56.6474 261.105 57.4631 252.165 59.1451C243.323 60.8085 234.372 63.3456 225.561 66.686C212.693 71.5644 199.969 78.2005 187.743 86.41C175.447 94.6665 163.643 104.523 152.659 115.705C141.475 127.092 131.11 139.886 121.855 153.731C117.145 160.778 112.665 168.188 108.54 175.756C104.345 183.452 100.419 191.491 96.8725 199.648C93.8447 206.611 91.049 213.763 88.5628 220.904C86.1126 227.941 83.9037 235.14 81.9972 242.299C78.2471 256.381 75.5493 270.73 73.9786 284.945C72.4366 298.902 71.9648 312.871 72.5764 326.465C73.182 339.929 74.855 353.141 77.549 365.737C80.2423 378.329 83.9784 390.408 88.6532 401.637C93.3716 412.971 99.0882 423.538 105.644 433.046C108.956 437.85 112.531 442.449 116.27 446.718C120.051 451.034 124.09 455.116 128.276 458.849C132.516 462.631 137.01 466.147 141.632 469.301C146.322 472.501 151.259 475.406 156.308 477.935C157.384 478.474 158.48 479.004 159.566 479.51C175.716 487.028 193.076 490.917 211.164 491.068C219.921 491.141 228.895 490.325 237.835 488.643C246.677 486.979 255.627 484.442 264.439 481.102C277.307 476.224 290.031 469.587 302.257 461.378C314.553 453.121 326.357 443.265 337.341 432.083C348.526 420.696 358.89 407.902 368.145 394.057C372.855 387.01 377.335 379.6 381.46 372.032C385.655 364.336 389.581 356.297 393.128 348.14C396.155 341.177 398.951 334.025 401.437 326.884C403.887 319.847 406.096 312.648 408.003 305.489C411.753 291.407 414.451 277.058 416.021 262.843C417.563 248.886 418.035 234.917 417.424 221.323C416.818 207.859 415.145 194.646 412.451 182.051C409.758 169.459 406.022 157.38 401.347 146.151C396.628 134.817 390.912 124.25 384.356 114.742C381.044 109.938 377.469 105.338 373.73 101.07C369.949 96.7536 365.91 92.6721 361.724 88.9388C357.484 85.1571 352.99 81.6406 348.368 78.4869C343.678 75.2872 338.741 72.3822 333.692 69.8525C332.616 69.3137 331.52 68.784 330.434 68.2782ZM330.624 67.8707C331.719 68.3803 332.807 68.9061 333.894 69.4506C415.93 110.554 442.635 235.408 393.54 348.319C345.096 459.734 240.945 517.89 159.376 479.917C158.281 479.408 157.193 478.882 156.106 478.337C74.0697 437.234 47.365 312.38 96.4596 199.469C144.904 88.0534 249.055 29.8977 330.624 67.8707Z" fill="#262525"/>
<path d="M313.102 51.3998C296.597 45.7271 279.236 43.7245 261.501 45.4474C252.914 46.2816 244.193 48.0064 235.581 50.5739C227.064 53.1126 218.515 56.5163 210.17 60.6905C197.718 66.9188 185.57 74.923 174.064 84.4807C162.497 94.0891 151.575 105.27 141.602 117.714C131.447 130.385 122.256 144.391 114.284 159.344C110.227 166.954 106.438 174.906 103.024 182.979C99.5502 191.19 96.3835 199.716 93.6113 208.32C91.2728 215.578 89.1814 222.996 87.3955 230.368C85.6354 237.633 84.1292 245.031 82.9185 252.354C80.537 266.76 79.2218 281.309 79.0093 295.597C78.8008 309.623 79.6523 323.54 81.5402 336.961C83.4099 350.252 86.312 363.171 90.166 375.361C94.0191 387.547 98.8552 399.104 104.54 409.711C110.277 420.415 116.93 430.245 124.313 438.927C128.043 443.313 132.014 447.467 136.116 451.273C140.264 455.122 144.645 458.708 149.138 461.932C153.689 465.198 158.467 468.171 163.337 470.77C168.278 473.406 173.437 475.722 178.671 477.652C179.533 477.97 180.375 478.27 181.244 478.569C197.75 484.242 215.111 486.244 232.845 484.521C241.432 483.687 250.153 481.962 258.765 479.395C267.282 476.856 275.832 473.452 284.177 469.278C296.628 463.05 308.776 455.046 320.282 445.488C331.849 435.88 342.771 424.698 352.745 412.254C362.9 399.584 372.09 385.578 380.062 370.625C384.119 363.015 387.908 355.063 391.323 346.99C394.796 338.778 397.963 330.253 400.735 321.649C403.073 314.391 405.165 306.973 406.951 299.601C408.711 292.335 410.217 284.938 411.428 277.615C413.809 263.209 415.124 248.66 415.337 234.372C415.545 220.345 414.694 206.428 412.806 193.008C410.936 179.717 408.034 166.797 404.18 154.608C400.327 142.421 395.491 130.864 389.806 120.258C384.069 109.553 377.416 99.7235 370.033 91.0415C366.303 86.6557 362.332 82.5019 358.23 78.6955C354.083 74.8467 349.701 71.2606 345.208 68.0368C340.657 64.7711 335.88 61.7977 331.009 59.1992C326.068 56.5626 320.909 54.247 315.675 52.3165C314.813 51.9983 313.971 51.6984 313.102 51.3998ZM313.249 50.9746C314.113 51.2717 314.97 51.5768 315.832 51.8947C400.878 83.2656 439.082 204.1 401.163 321.787C363.628 438.28 265.566 508.025 181.098 478.994C180.233 478.697 179.376 478.392 178.515 478.074C93.4683 446.703 55.2639 325.868 93.1829 208.182C130.718 91.6884 228.78 21.9439 313.249 50.9746Z" fill="#262525"/>
</g>
<defs>
<clipPath id="clip0">
<rect width="490" height="546" fill="white"/>
</clipPath>
</defs>
</svg>
