<svg xmlns="http://www.w3.org/2000/svg" viewBox="0 0 24 24"><g id="Camada_2" data-name="Camada 2"><g id="Camada_1-2" data-name="Camada 1"><path id="dribbble-ícone" d="M17.31,19.71c-.51-2.31-1.11-4.43-1.71-6.3a12.05,12.05,0,0,1,1.9-.13h0a16.74,16.74,0,0,1,3.67.44,9.38,9.38,0,0,1-3.88,6M12,21.36a9.18,9.18,0,0,1-5.57-1.85,14,14,0,0,1,2.19-2.66,12.72,12.72,0,0,1,4.86-3,48.76,48.76,0,0,1,1.85,6.85,9.05,9.05,0,0,1-3.33.61M2.64,12v-.13h1a29.8,29.8,0,0,0,8.5-1.21c.18.4.36.8.54,1.24A15,15,0,0,0,7.43,15a17.55,17.55,0,0,0-2.58,3,9.22,9.22,0,0,1-2.21-6M7.86,3.6a29.71,29.71,0,0,1,3.35,5.1,26.76,26.76,0,0,1-7.39,1h-.9A9.32,9.32,0,0,1,7.86,3.6m4.14-1a9.23,9.23,0,0,1,5.83,2.05A12.32,12.32,0,0,1,13.24,8,35.3,35.3,0,0,0,10,2.86a9.48,9.48,0,0,1,2-.22m7.36,3.58a9.41,9.41,0,0,1,2,5.33,18.26,18.26,0,0,0-3.83-.41h0a16.33,16.33,0,0,0-2.71.22c-.21-.5-.4-1-.63-1.45a14.67,14.67,0,0,0,5.19-3.69M12,0A12,12,0,1,0,24,12h0A12,12,0,0,0,12,0Z"/></g></g></svg>