<svg width="181" height="180" viewBox="0 0 181 180" fill="none" xmlns="http://www.w3.org/2000/svg">
<path d="M28.062 90.6329C28.057 90.2949 28.053 89.9629 28.048 89.6329L22.619 95.0609V96.0789L28.062 90.6329Z" fill="#FC6B3F"/>
<path d="M27.975 84.299C27.975 83.963 27.9661 83.627 27.9611 83.299L22.62 88.64V89.658L27.975 84.299Z" fill="#FC6B3F"/>
<path d="M27.892 77.9619C27.892 77.6239 27.884 77.2899 27.88 76.9559L22.62 82.2149V83.2339L27.892 77.9619Z" fill="#FC6B3F"/>
<path d="M28.147 96.9679C28.147 96.6299 28.138 96.2979 28.134 95.9629L22.619 101.477V102.495L28.147 96.9679Z" fill="#FC6B3F"/>
<path d="M27.823 71.609C27.8197 71.2696 27.8166 70.9333 27.814 70.6L22.62 75.794V76.817L27.823 71.609Z" fill="#FC6B3F"/>
<path d="M28.2989 109.658C28.2989 109.322 28.2931 108.983 28.2891 108.651L22.62 114.319V115.337L28.2989 109.658Z" fill="#FC6B3F"/>
<path d="M28.227 103.309C28.2224 102.972 28.2183 102.637 28.215 102.303L22.615 107.897V108.915L28.227 103.309Z" fill="#FC6B3F"/>
<path d="M23.6601 50.0879L28.891 44.8569C28.94 44.6859 28.991 44.5239 29.044 44.3749C27.144 46.2009 24.9321 47.8939 23.6601 50.0879Z" fill="#FC6B3F"/>
<path d="M30.536 132.088L24.713 137.911C24.882 138.082 25.059 138.244 25.244 138.398L31.067 132.575C30.881 132.422 30.705 132.259 30.536 132.088Z" fill="#FC6B3F"/>
<path d="M35.64 134.221C35.3814 134.22 35.123 134.206 34.866 134.178L29.047 139.998C29.3037 140.026 29.5617 140.04 29.82 140.041H30.02L35.84 134.221H35.64Z" fill="#FC6B3F"/>
<path d="M30.522 42.8219C29.91 42.7919 29.422 43.3039 29.045 44.3779C29.5656 43.8869 30.0588 43.3674 30.522 42.8219Z" fill="#FC6B3F"/>
<path d="M27.813 58.7779C27.813 58.4279 27.822 58.0779 27.827 57.7449L22.619 62.9529V63.9709L27.813 58.7779Z" fill="#FC6B3F"/>
<path d="M28.361 116.018C28.361 115.679 28.355 115.346 28.352 115.009L22.621 120.739V121.757L28.361 116.018Z" fill="#FC6B3F"/>
<path d="M27.782 65.227C27.782 64.883 27.782 64.546 27.782 64.21L22.619 69.373V70.391L27.782 65.227Z" fill="#FC6B3F"/>
<path d="M28.001 52.1689C28.02 51.7999 28.039 51.4379 28.061 51.0909L22.62 56.5319V57.5499L28.001 52.1689Z" fill="#FC6B3F"/>
<path d="M80.787 134.221H79.7689L73.95 140.04H74.968L80.787 134.221Z" fill="#FC6B3F"/>
<path d="M100.05 134.221H99.0291L93.21 140.04H94.229L100.05 134.221Z" fill="#FC6B3F"/>
<path d="M28.41 122.389C28.41 122.052 28.4099 121.713 28.4029 121.378L22.619 127.161V128.179L28.41 122.389Z" fill="#FC6B3F"/>
<path d="M87.208 134.221H86.19L80.3709 140.04H81.389L87.208 134.221Z" fill="#FC6B3F"/>
<path d="M106.47 134.221H105.452L99.632 140.04H100.65L106.47 134.221Z" fill="#FC6B3F"/>
<path d="M74.366 134.221H73.348L67.529 140.04H68.547L74.366 134.221Z" fill="#FC6B3F"/>
<path d="M113.808 132.652C113.469 132.924 113.106 133.164 112.724 133.37L107.049 139.045C109.665 137.562 111.559 134.722 113.808 132.652Z" fill="#FC6B3F"/>
<path d="M113.809 132.652C114.012 132.492 114.206 132.321 114.391 132.14C114.194 132.303 114.001 132.476 113.809 132.652Z" fill="#FC6B3F"/>
<path d="M93.626 134.221H92.608L86.789 140.04H87.8071L93.626 134.221Z" fill="#FC6B3F"/>
<path d="M42.2621 134.221H41.244L35.425 140.04H36.443L42.2621 134.221Z" fill="#FC6B3F"/>
<path d="M48.682 134.221H47.664L41.845 140.04H42.863L48.682 134.221Z" fill="#FC6B3F"/>
<path d="M28.625 128.596C28.5586 128.308 28.5099 128.017 28.479 127.724L22.656 133.547C22.6859 133.841 22.7339 134.133 22.8 134.421L28.625 128.596Z" fill="#FC6B3F"/>
<path d="M67.945 134.221H66.927L61.108 140.04H62.126L67.945 134.221Z" fill="#FC6B3F"/>
<path d="M61.524 134.221H60.511L54.692 140.04H55.71L61.524 134.221Z" fill="#FC6B3F"/>
<path d="M55.109 134.221H54.091L48.272 140.04H49.2901L55.109 134.221Z" fill="#FC6B3F"/>
<path d="M109.002 134.581H35.311C33.3067 134.579 31.3851 133.781 29.9679 132.364C28.5506 130.947 27.7533 129.025 27.7509 127.021V47.8799C27.7531 45.8756 28.5503 43.9539 29.9676 42.5366C31.3849 41.1192 33.3066 40.3221 35.311 40.3199H109.002C111.006 40.3221 112.928 41.1192 114.345 42.5366C115.763 43.9539 116.56 45.8756 116.562 47.8799V127.021C116.56 129.025 115.762 130.947 114.345 132.364C112.928 133.781 111.006 134.579 109.002 134.581ZM35.311 41.0399C33.4976 41.0421 31.7591 41.7634 30.4768 43.0457C29.1945 44.328 28.4732 46.0665 28.471 47.8799V127.021C28.4732 128.834 29.1945 130.573 30.4768 131.855C31.7591 133.138 33.4976 133.859 35.311 133.861H109.002C110.815 133.859 112.554 133.138 113.836 131.855C115.119 130.573 115.84 128.834 115.842 127.021V47.8799C115.84 46.0665 115.119 44.328 113.836 43.0457C112.554 41.7634 110.815 41.0421 109.002 41.0399H35.311Z" fill="#262525"/>
<path d="M107.754 87.565H36.561V49.99H107.754V87.565ZM37.281 86.845H107.034V50.71H37.281V86.845Z" fill="#262525"/>
<path d="M37.0877 50.0309L36.754 50.6689L107.227 87.5238L107.561 86.8858L37.0877 50.0309Z" fill="#262525"/>
<path d="M107.232 50.0408L36.749 86.876L37.0825 87.5141L107.566 50.6789L107.232 50.0408Z" fill="#262525"/>
<path d="M107.393 92.891H36.921V101.294H107.393V92.891Z" fill="#262525"/>
<path d="M107.393 104.338H36.921V112.741H107.393V104.338Z" fill="#262525"/>
<path d="M87.386 121.794H36.921V126.97H87.386V121.794Z" fill="#262525"/>
<path d="M115.944 129.865L115.955 129.841L115.944 129.865Z" fill="#262525"/>
<path d="M116.177 129.243C116.184 129.219 116.195 129.198 116.202 129.174C116.199 129.198 116.184 129.219 116.177 129.243Z" fill="#262525"/>
<path d="M29.822 140.399C27.8176 140.397 25.8959 139.6 24.4786 138.182C23.0613 136.765 22.2641 134.843 22.2619 132.839V53.6989C22.3359 49.5589 25.069 47.0629 27.962 44.4209C28.684 43.7609 29.431 43.0799 30.146 42.3629L30.656 42.8709C29.929 43.5999 29.176 44.2879 28.447 44.9529C25.547 47.5979 23.0471 49.8819 22.9811 53.7049V132.839C22.9832 134.652 23.7044 136.391 24.9867 137.673C26.269 138.955 28.0076 139.677 29.821 139.679H103.512C107.093 139.619 109.974 137.05 112.512 133.807C111.528 134.315 110.437 134.581 109.33 134.58V133.86C110.326 133.862 111.308 133.623 112.191 133.163C113.074 132.703 113.833 132.035 114.401 131.217V131.21L114.994 131.619V131.624C111.886 136.136 108.345 140.324 103.516 140.399H29.822Z" fill="#262525"/>
<path d="M116.202 92.851C118.88 92.851 121.051 90.68 121.051 88.002C121.051 85.3239 118.88 83.153 116.202 83.153C113.524 83.153 111.353 85.3239 111.353 88.002C111.353 90.68 113.524 92.851 116.202 92.851Z" fill="#FC6B3F"/>
<path d="M154.142 61.575C156.82 61.575 158.991 59.404 158.991 56.726C158.991 54.0479 156.82 51.877 154.142 51.877C151.464 51.877 149.293 54.0479 149.293 56.726C149.293 59.404 151.464 61.575 154.142 61.575Z" fill="#FC6B3F"/>
<path d="M121.051 88.363V87.643C128.509 87.643 132.8 86.52 135.397 83.887C137.903 81.348 139.03 77.128 138.944 70.605C138.889 66.439 140.112 63.059 142.579 60.56C147.023 56.06 153.854 56.005 154.142 56.005V56.725C154.075 56.725 147.316 56.781 143.087 61.069C141.898 62.3401 140.981 63.8406 140.392 65.4787C139.804 67.1168 139.556 68.8578 139.664 70.595C139.753 77.323 138.564 81.706 135.909 84.395C133.128 87.212 128.822 88.363 121.051 88.363Z" fill="#FC6B3F"/>
</svg>
