<svg width="180" height="180" viewBox="0 0 180 180" fill="none" xmlns="http://www.w3.org/2000/svg">
<path d="M132.787 47.077H56.717V144.649H132.787V47.077Z" fill="#FFF6DA"/>
<path d="M136.386 148.249H53.117V43.4771H136.386V148.249ZM60.317 141.049H129.186V50.677H60.317V141.049Z" fill="#262525"/>
<path d="M121.71 36H45.64V133.572H121.71V36Z" fill="#FFF6DA"/>
<path d="M125.31 137.172H42.04V32.4H125.31V137.172ZM49.241 129.972H118.11V39.6H49.241V129.972Z" fill="#262525"/>
<path d="M85.1541 121.97V121.102H85.08C84.8243 121.436 84.4937 121.706 84.1147 121.889C83.7356 122.072 83.3188 122.163 82.898 122.155C81.198 122.155 79.7131 121.002 79.7131 118.462C79.6702 118.012 79.7214 117.558 79.8636 117.128C80.0057 116.699 80.2357 116.304 80.5389 115.968C80.842 115.632 81.2117 115.363 81.6244 115.178C82.0371 114.993 82.4838 114.896 82.9361 114.893C83.3501 114.892 83.7581 114.992 84.125 115.184C84.492 115.375 84.807 115.653 85.043 115.993H85.117V114.32H83.679V113.02H86.8891V120.666H87.819V121.966L85.1541 121.97ZM83.32 116.258C82.267 116.258 81.6341 117.137 81.6341 118.489C81.6341 119.964 82.204 120.789 83.245 120.789C84.422 120.789 85.1541 119.921 85.1541 118.435C85.1802 118.171 85.1531 117.905 85.0745 117.651C84.9959 117.398 84.8674 117.163 84.6966 116.96C84.5257 116.757 84.3161 116.59 84.0799 116.47C83.8436 116.349 83.5856 116.277 83.3211 116.258H83.32Z" fill="black"/>
<path d="M92.257 122.156C91.7547 122.201 91.2486 122.137 90.773 121.969C90.2975 121.801 89.8636 121.533 89.5006 121.183C89.1375 120.832 88.8539 120.408 88.6689 119.939C88.4839 119.47 88.4017 118.967 88.428 118.463C88.428 116.232 90.014 114.894 92.257 114.894C94.55 114.894 96.0571 116.158 96.0571 118.476C96.0931 118.979 96.0184 119.484 95.8384 119.955C95.6585 120.426 95.3775 120.852 95.0153 121.202C94.6531 121.553 94.2184 121.82 93.7419 121.985C93.2654 122.15 92.7585 122.208 92.257 122.156V122.156ZM92.257 116.256C91.142 116.256 90.435 117.036 90.435 118.461C90.435 119.936 91.13 120.791 92.257 120.791C93.384 120.791 94.0571 119.948 94.0571 118.474C94.0541 117.038 93.332 116.258 92.257 116.258V116.256Z" fill="black"/>
<path d="M103.439 118.29C103.302 118.301 103.164 118.282 103.034 118.235C102.905 118.188 102.787 118.114 102.688 118.018C102.59 117.922 102.513 117.806 102.462 117.677C102.412 117.549 102.39 117.412 102.397 117.274C102.395 117.149 102.422 117.026 102.473 116.912C102.525 116.798 102.602 116.698 102.697 116.617C102.305 116.324 101.822 116.18 101.334 116.208C101.051 116.218 100.774 116.287 100.519 116.41C100.264 116.533 100.038 116.708 99.8549 116.924C99.6718 117.14 99.5357 117.392 99.4554 117.663C99.3752 117.934 99.3527 118.219 99.389 118.5C99.389 119.838 100.108 120.743 101.347 120.743C101.758 120.758 102.169 120.689 102.552 120.54C102.936 120.391 103.285 120.164 103.578 119.875L104.358 120.866C103.949 121.295 103.453 121.631 102.904 121.853C102.355 122.076 101.765 122.178 101.173 122.155C98.819 122.155 97.373 120.792 97.373 118.537C97.373 116.437 98.773 114.893 101.327 114.893C103.769 114.893 104.611 116.144 104.611 117.062C104.627 117.223 104.609 117.385 104.557 117.537C104.504 117.69 104.42 117.83 104.308 117.946C104.197 118.063 104.061 118.154 103.911 118.214C103.761 118.273 103.6 118.299 103.439 118.29V118.29Z" fill="black"/>
<path d="M109.438 122.156C109.274 122.162 109.111 122.133 108.959 122.073C108.807 122.013 108.668 121.921 108.553 121.805C108.438 121.689 108.348 121.55 108.289 121.397C108.23 121.244 108.203 121.081 108.21 120.917C108.206 120.754 108.235 120.592 108.295 120.441C108.355 120.289 108.445 120.151 108.56 120.036C108.675 119.92 108.812 119.829 108.962 119.767C109.113 119.706 109.275 119.675 109.438 119.678C109.6 119.675 109.762 119.705 109.912 119.766C110.063 119.828 110.199 119.919 110.313 120.035C110.426 120.151 110.515 120.289 110.574 120.441C110.632 120.593 110.659 120.755 110.652 120.917C110.661 121.08 110.635 121.243 110.578 121.395C110.52 121.548 110.431 121.687 110.317 121.803C110.203 121.919 110.066 122.011 109.915 122.072C109.763 122.133 109.601 122.161 109.438 122.156Z" fill="black"/>
<path d="M73.408 66.298L67.343 62.998L64.6811 69.368L62.724 62.748L56.338 65.37L59.638 59.305L53.268 56.643L59.888 54.686L57.266 48.299L63.331 51.599L65.9931 45.229L67.95 51.849L74.3371 49.227L71.037 55.292L77.407 57.954L70.787 59.911L73.408 66.298Z" fill="#262525"/>
<path d="M97.888 62.696C101.809 62.696 104.988 59.5172 104.988 55.596C104.988 51.6747 101.809 48.496 97.888 48.496C93.9668 48.496 90.788 51.6747 90.788 55.596C90.788 59.5172 93.9668 62.696 97.888 62.696Z" fill="#FC6B3F"/>
<path d="M88.85 72.822C88.85 70.4241 89.8026 68.1243 91.4982 66.4287C93.1938 64.7331 95.4935 63.7805 97.8915 63.7805C100.289 63.7805 102.589 64.7331 104.285 66.4287C105.98 68.1243 106.933 70.4241 106.933 72.822" fill="#FC6B3F"/>
<path d="M77.402 83.881H56.717V85.726H77.402V83.881Z" fill="#FC6B3F"/>
<path d="M85.115 87.4031H56.717V89.2481H85.115V87.4031Z" fill="#FC6B3F"/>
<path d="M85.115 90.925H56.717V92.77H85.115V90.925Z" fill="#FC6B3F"/>
<path d="M85.115 94.446H56.717V96.291H85.115V94.446Z" fill="#FC6B3F"/>
<path d="M81.808 97.968H56.717V99.813H81.808V97.968Z" fill="#FC6B3F"/>
</svg>
