<svg width="180" height="180" viewBox="0 0 180 180" fill="none" xmlns="http://www.w3.org/2000/svg">
<path d="M119.137 28.1432H35.339V148.446H119.137V28.1432Z" fill="#FFF6DA"/>
<path d="M125.152 153.454H29.673V23.0361H125.152V153.454ZM36.873 146.254H117.952V30.2361H36.873V146.254Z" fill="#262525"/>
<path d="M151.428 111.305H102.628V85.7921H151.428V111.305ZM103.345 110.585H150.708V86.5121H103.345V110.585Z" fill="#262525"/>
<path d="M151.068 117.112H102.985V141.905H151.068V117.112Z" fill="#FFF6DA"/>
<path d="M151.428 142.265H102.628V116.752H151.428V142.265ZM103.345 141.545H150.708V117.472H103.345V141.545Z" fill="#262525"/>
<path d="M151.428 111.306L154.592 108.142L105.792 82.6292L102.628 85.7932V111.306H151.428Z" fill="#FC6B3F"/>
<path d="M151.428 142.266L154.592 139.102L105.792 113.589L102.628 116.753V142.266H151.428Z" fill="#FC6B3F"/>
<path d="M154.233 82.9882H106.15V107.781H154.233V82.9882Z" fill="#FFF6DA"/>
<path d="M154.59 108.141H105.79V82.6282H154.59V108.141ZM106.507 107.421H153.87V83.3482H106.51L106.507 107.421Z" fill="#262525"/>
<path d="M154.233 113.948H106.15V138.741H154.233V113.948Z" fill="#FFF6DA"/>
<path d="M154.59 139.101H105.79V113.588H154.59V139.101ZM106.507 138.381H153.87V114.308H106.51L106.507 138.381Z" fill="#262525"/>
<path d="M121.52 119.098H120.374L119.907 122.949H121.053L121.52 119.098Z" fill="#262525"/>
<path d="M124.234 119.098H123.088L122.621 122.949H123.767L124.234 119.098Z" fill="#262525"/>
<path d="M118.807 119.098H117.661L117.194 122.949H118.34L118.807 119.098Z" fill="#262525"/>
<path d="M116.094 119.098H114.948L114.481 122.949H115.627L116.094 119.098Z" fill="#262525"/>
<path d="M111.765 122.949H112.911L113.378 119.098H112.232L111.765 122.949Z" fill="#262525"/>
<path d="M126.946 119.098H125.8L125.333 122.949H126.479L126.946 119.098Z" fill="#262525"/>
<path d="M110.668 119.098H109.75V122.949H110.201L110.668 119.098Z" fill="#262525"/>
<path d="M129.659 119.098H128.513L128.046 122.949H129.192L129.659 119.098Z" fill="#262525"/>
<path d="M134.16 128.724H109.75V129.945H134.16V128.724Z" fill="#262525"/>
<path d="M128.525 130.884H109.75V132.105H128.525V130.884Z" fill="#262525"/>
<path d="M124.573 133.044H109.75V134.265H124.573V133.044Z" fill="#262525"/>
<path d="M29.673 23.0361L25.2 27.5092V157.927H120.679L125.152 153.454H29.673V23.0361Z" fill="#FC6B3F"/>
</svg>
