<svg width="180" height="180" viewBox="0 0 180 180" fill="none" xmlns="http://www.w3.org/2000/svg">
<path d="M61.873 86.33V81.812H65.617L64.24 77.035H54.94L53.563 81.812H57.135V86.33H44.921V81.812H47.673L55.893 55.261H63.854L72.03 81.812H74.44V86.33H61.873ZM59.721 60.166H59.506L56.02 73.119H63.207L59.721 60.166Z" fill="#262525"/>
<path d="M97.982 67.63C96.5646 67.04 95.0411 66.7473 93.506 66.77C90.365 66.77 88.772 69.051 88.772 72.795H97.293V77.314H88.772V89.449H96.093V93.968H75.475V89.449H81.715V77.314H74.442V72.795H81.715C81.758 66.339 85.674 61.995 92.215 61.995C94.4097 61.9328 96.5934 62.3282 98.627 63.156L97.982 67.63Z" fill="#262525"/>
<path d="M113.267 116.108H30.28V33.12H113.267V116.108ZM37.479 108.908H106.067V40.32H37.48L37.479 108.908Z" fill="#262525"/>
<path d="M113.327 147.439C107.441 147.439 101.567 136.702 95.373 125.377C89.162 114.022 82.738 102.277 76.973 103.834C71.208 105.391 71.558 118.768 71.896 131.707L71.176 131.726C70.815 117.9 70.476 104.841 76.785 103.139C83.094 101.437 89.365 112.899 96.002 125.032C102.214 136.388 108.641 148.132 114.402 146.576C120.163 145.02 119.816 131.643 119.477 118.705C119.116 104.879 118.777 91.819 125.084 90.118C131.391 88.417 137.664 99.878 144.3 112.01L143.679 112.375C137.457 101 131.029 89.257 125.271 90.813C119.513 92.369 119.857 105.747 120.196 118.685C120.558 132.51 120.896 145.57 114.589 147.271C114.178 147.382 113.753 147.439 113.327 147.439V147.439Z" fill="#FC6B3F"/>
<path d="M71.456 138.658C75.2778 138.658 78.376 135.56 78.376 131.738C78.376 127.916 75.2778 124.818 71.456 124.818C67.6342 124.818 64.536 127.916 64.536 131.738C64.536 135.56 67.6342 138.658 71.456 138.658Z" fill="#262525"/>
<path d="M143.534 119.225C147.356 119.225 150.454 116.127 150.454 112.305C150.454 108.483 147.356 105.385 143.534 105.385C139.712 105.385 136.614 108.483 136.614 112.305C136.614 116.127 139.712 119.225 143.534 119.225Z" fill="#262525"/>
<path d="M96.772 130.238L92.081 126.177L94.095 120.308L98.786 124.369L96.772 130.238Z" fill="#262525"/>
<path d="M121.175 123.659L116.484 119.598L118.498 113.729L123.189 117.79L121.175 123.659Z" fill="#262525"/>
<path d="M143.893 111.822L71.448 131.38L71.6357 132.075L144.081 112.517L143.893 111.822Z" fill="#262525"/>
</svg>
