<svg width="181" height="180" viewBox="0 0 181 180" fill="none" xmlns="http://www.w3.org/2000/svg">
<g clip-path="url(#clip0)">
<path d="M111.732 39.6H50.467V100.865H111.732V39.6Z" fill="#FC6B3F"/>
<path d="M115.332 104.466H46.867V36H115.332V104.466ZM54.067 97.266H108.132V43.2H54.067V97.266Z" fill="#262525"/>
<path d="M58 99.3C70.7578 99.3 81.1 88.9578 81.1 76.2C81.1 63.4422 70.7578 53.1 58 53.1C45.2422 53.1 34.9 63.4422 34.9 76.2C34.9 88.9578 45.2422 99.3 58 99.3Z" fill="#FC6B3F"/>
<path d="M58 102.9C52.7193 102.9 47.5571 101.334 43.1663 98.4002C38.7755 95.4664 35.3533 91.2964 33.3324 86.4177C31.3116 81.5389 30.7828 76.1704 31.813 70.9911C32.8433 65.8118 35.3862 61.0543 39.1203 57.3203C42.8543 53.5862 47.6118 51.0433 52.7911 50.013C57.9704 48.9828 63.3389 49.5116 68.2177 51.5324C73.0965 53.5533 77.2664 56.9755 80.2002 61.3663C83.1341 65.7571 84.7 70.9192 84.7 76.2C84.6921 83.2788 81.8765 90.0655 76.871 95.071C71.8655 100.076 65.0789 102.892 58 102.9ZM58 56.7C54.1433 56.7 50.3732 57.8437 47.1664 59.9863C43.9596 62.129 41.4603 65.1745 39.9844 68.7377C38.5085 72.3008 38.1223 76.2216 38.8747 80.0043C39.6271 83.7869 41.4843 87.2615 44.2114 89.9886C46.9386 92.7157 50.4131 94.5729 54.1958 95.3253C57.9784 96.0777 61.8992 95.6916 65.4623 94.2157C69.0255 92.7397 72.071 90.2404 74.2137 87.0336C76.3564 83.8269 77.5 80.0567 77.5 76.2C77.4942 71.0301 75.4379 66.0736 71.7822 62.4179C68.1265 58.7622 63.17 56.7058 58 56.7V56.7Z" fill="#262525"/>
<path d="M100.532 64.7011L140.742 48.2101L120.368 87.5501L100.532 64.7011Z" fill="#FC6B3F"/>
<path d="M121.126 93.911L94.526 63.271L148.448 41.155L121.126 93.911ZM106.539 66.125L119.611 81.182L133.037 55.258L106.539 66.125Z" fill="#262525"/>
<path d="M59.873 134.657C56.958 134.657 55.255 132.912 55.255 129.89V124.74H51.612V122.506H55.251V119.293H58.762V122.506H63.657V124.74H58.762V129.526C58.762 131.058 59.571 132.016 60.975 132.016C61.7726 132.009 62.5502 131.766 63.209 131.316L64.103 133.444C62.8566 134.285 61.3757 134.71 59.873 134.657V134.657Z" fill="#262525"/>
<path d="M79.258 124.739L75.279 134.614C74.193 137.295 72.704 138.763 70.3 138.763C67.853 138.763 66.236 137.295 66.236 135.316C66.2099 135.045 66.2404 134.772 66.3257 134.514C66.4109 134.255 66.5489 134.017 66.731 133.815C66.9131 133.613 67.1352 133.451 67.3833 133.34C67.6314 133.228 67.9 133.169 68.172 133.167C68.4129 133.164 68.6516 133.212 68.873 133.307C69.0943 133.402 69.2935 133.542 69.4577 133.719C69.6218 133.895 69.7475 134.103 69.8266 134.331C69.9057 134.558 69.9365 134.8 69.917 135.04C69.9263 135.36 69.8504 135.677 69.697 135.958C69.5436 136.239 69.3183 136.475 69.044 136.64C69.1711 136.778 69.3259 136.887 69.4983 136.96C69.6707 137.034 69.8567 137.07 70.044 137.066C71.13 137.066 71.853 136.023 72.364 134.366L67.597 124.747H66.278V122.513H73.066V124.747H71.342L73.942 130.747H74.069L76.325 124.747H74.814V122.513H80.368V124.747L79.258 124.739Z" fill="#262525"/>
<path d="M89.429 134.656C88.7331 134.689 88.0399 134.549 87.4116 134.248C86.7833 133.947 86.2394 133.495 85.829 132.932H85.702V136.358H89.064V138.593H80.509V136.358H82.531V124.739H80.956V122.5H85.404V124.352H85.531C85.9845 123.671 86.6024 123.115 87.3275 122.735C88.0527 122.356 88.8617 122.165 89.68 122.181C93 122.181 94.745 124.564 94.745 128.416C94.749 132.443 92.792 134.656 89.429 134.656ZM88.918 124.526C86.875 124.526 85.641 126.226 85.641 128.463C85.641 130.889 86.918 132.315 88.769 132.315C90.514 132.315 91.469 130.931 91.469 128.484C91.469 126.037 90.536 124.527 88.918 124.527V124.526Z" fill="#262525"/>
<path d="M100.025 129.485C100.112 130.303 100.517 131.054 101.153 131.576C101.79 132.097 102.606 132.347 103.425 132.272C104.801 132.265 106.144 131.842 107.276 131.06L108.404 132.933C106.933 134.106 105.092 134.717 103.211 134.657C99.167 134.657 96.511 132.257 96.511 128.528C96.511 124.928 98.873 122.186 103.172 122.186C107.172 122.186 109.301 124.761 109.301 127.911V129.486L100.025 129.485ZM103.217 124.485C102.388 124.453 101.58 124.751 100.97 125.313C100.36 125.876 99.9974 126.656 99.961 127.485H106.132C106.149 127.093 106.086 126.703 105.947 126.336C105.808 125.97 105.595 125.636 105.322 125.355C105.049 125.074 104.722 124.852 104.36 124.702C103.998 124.552 103.609 124.478 103.217 124.484V124.485Z" fill="#262525"/>
<path d="M113.39 142.055H48.283V115.355H113.39V142.055ZM49.003 141.335H112.67V116.079H49.003V141.335Z" fill="#FC6B3F"/>
<path d="M114.789 113.959H111.27V117.478H114.789V113.959Z" fill="#FFF6DA"/>
<path d="M115.153 117.839H110.914V113.599H115.153V117.839ZM111.634 117.119H114.434V114.319H111.634V117.119Z" fill="#FC6B3F"/>
<path d="M50.402 113.959H46.883V117.478H50.402V113.959Z" fill="#FFF6DA"/>
<path d="M50.762 117.839H46.523V113.599H50.762V117.839ZM47.243 117.119H50.043V114.319H47.243V117.119Z" fill="#FC6B3F"/>
<path d="M82.596 113.959H79.077V117.478H82.596V113.959Z" fill="#FFF6DA"/>
<path d="M82.956 117.839H78.717V113.599H82.956V117.839ZM79.437 117.119H82.237V114.319H79.437V117.119Z" fill="#FC6B3F"/>
<path d="M114.789 139.935H111.27V143.454H114.789V139.935Z" fill="#FFF6DA"/>
<path d="M115.153 143.814H110.914V139.575H115.153V143.814ZM111.634 143.094H114.434V140.294H111.634V143.094Z" fill="#FC6B3F"/>
<path d="M50.402 139.935H46.883V143.454H50.402V139.935Z" fill="#FFF6DA"/>
<path d="M50.762 143.814H46.523V139.575H50.762V143.814ZM47.243 143.094H50.043V140.294H47.243V143.094Z" fill="#FC6B3F"/>
<path d="M114.789 126.947H111.27V130.466H114.789V126.947Z" fill="#FFF6DA"/>
<path d="M115.153 130.826H110.914V126.589H115.153V130.826ZM111.634 130.106H114.434V127.306H111.634V130.106Z" fill="#FC6B3F"/>
<path d="M50.402 126.947H46.883V130.466H50.402V126.947Z" fill="#FFF6DA"/>
<path d="M50.762 130.826H46.523V126.589H50.762V130.826ZM47.243 130.106H50.043V127.306H47.243V130.106Z" fill="#FC6B3F"/>
<path d="M82.596 139.935H79.077V143.454H82.596V139.935Z" fill="#FFF6DA"/>
<path d="M82.956 143.814H78.717V139.575H82.956V143.814ZM79.437 143.094H82.237V140.294H79.437V143.094Z" fill="#FC6B3F"/>
<path d="M120.897 128.346H113.03V129.066H120.897V128.346Z" fill="#FC6B3F"/>
<path d="M123.41 131.582C122.842 131.582 122.286 131.413 121.814 131.097C121.342 130.782 120.974 130.333 120.756 129.808C120.539 129.283 120.482 128.705 120.593 128.148C120.704 127.591 120.978 127.079 121.38 126.677C121.782 126.275 122.294 126.002 122.851 125.891C123.408 125.78 123.986 125.837 124.511 126.055C125.036 126.272 125.484 126.641 125.8 127.113C126.116 127.585 126.284 128.141 126.284 128.709C126.283 129.471 125.98 130.201 125.441 130.74C124.902 131.279 124.172 131.582 123.41 131.582V131.582ZM123.41 126.556C122.984 126.556 122.568 126.683 122.214 126.919C121.86 127.156 121.584 127.492 121.422 127.886C121.259 128.279 121.216 128.712 121.299 129.13C121.383 129.547 121.588 129.931 121.889 130.232C122.19 130.533 122.574 130.738 122.991 130.821C123.409 130.904 123.842 130.861 124.235 130.698C124.628 130.535 124.965 130.259 125.201 129.905C125.438 129.551 125.564 129.135 125.564 128.709C125.564 128.138 125.337 127.59 124.933 127.186C124.529 126.781 123.981 126.554 123.41 126.554V126.556Z" fill="#FC6B3F"/>
<path d="M109.534 133.977H50.828V134.697H109.534V133.977Z" fill="#FC6B3F"/>
</g>
<defs>
<clipPath id="clip0">
<rect width="180" height="180" fill="white" transform="translate(0.5)"/>
</clipPath>
</defs>
</svg>
