<svg width="180" height="180" viewBox="0 0 180 180" fill="none" xmlns="http://www.w3.org/2000/svg">
<path d="M57.5 40.426H32.39V65.536H57.5V40.426Z" fill="#262525"/>
<path d="M57.77 65.807H32.12V40.156H57.77V65.807ZM32.66 65.267H57.23V40.698H32.66V65.267Z" fill="#262525"/>
<path d="M88.013 40.426H62.903V65.536H88.013V40.426Z" fill="#84F2D6"/>
<path d="M88.283 65.807H62.633V40.156H88.283V65.807ZM63.173 65.267H87.743V40.698H63.1769L63.173 65.267Z" fill="#262525"/>
<path d="M118.526 40.426H93.416V65.536H118.526V40.426Z" fill="#FFF6DA"/>
<path d="M118.796 65.807H93.146V40.156H118.796V65.807ZM93.6859 65.267H118.256V40.698H93.6859V65.267Z" fill="#262525"/>
<path d="M149.038 40.426H123.928V65.536H149.038V40.426Z" fill="#FC6B3F"/>
<path d="M149.309 65.807H123.658V40.156H149.309V65.807ZM124.198 65.267H148.769V40.698H124.198V65.267Z" fill="#262525"/>
<path d="M104.99 81.6951H43.965V138.699H104.99V81.6951Z" fill="#FFF6DA"/>
<path d="M108.59 142.3H40.365V78.1001H108.59V142.3ZM47.565 135.1H101.39V85.3001H47.565V135.1Z" fill="#262525"/>
<path d="M96.983 96.3682H79.272V123.889H96.983V96.3682Z" fill="#262525"/>
<path d="M79.272 106.204C79.272 106.204 84.919 106.861 88.127 103.433C91.358 99.983 97.027 100.894 97.027 100.894L97.698 124.609H78.547L79.272 106.204Z" fill="#FFF6DA"/>
<path d="M98.037 124.948H78.216V95.3181H98.035L98.037 124.948ZM78.937 124.228H97.316V96.0381H78.937V124.228Z" fill="#FC6B3F"/>
<path d="M112.531 53.051C112.962 53.051 113.312 52.7013 113.312 52.27C113.312 51.8387 112.962 51.489 112.531 51.489C112.1 51.489 111.75 51.8387 111.75 52.27C111.75 52.7013 112.1 53.051 112.531 53.051Z" fill="#FFF6DA"/>
<path d="M112.531 53.41C112.305 53.4099 112.085 53.3429 111.897 53.2175C111.71 53.092 111.564 52.9138 111.477 52.7053C111.391 52.4968 111.369 52.2674 111.413 52.0461C111.457 51.8248 111.565 51.6215 111.725 51.462V51.462C111.942 51.2546 112.231 51.1388 112.532 51.1388C112.833 51.1388 113.122 51.2546 113.339 51.462C113.499 51.6216 113.607 51.8249 113.652 52.0463C113.696 52.2677 113.673 52.4972 113.587 52.7057C113.5 52.9143 113.354 53.0925 113.166 53.2179C112.978 53.3433 112.758 53.4101 112.532 53.41H112.531ZM112.531 51.848C112.475 51.8476 112.42 51.8582 112.369 51.8793C112.317 51.9005 112.27 51.9317 112.231 51.9711V51.9711C112.192 52.0104 112.161 52.0572 112.139 52.1087C112.118 52.1602 112.108 52.2154 112.108 52.2711C112.107 52.3268 112.118 52.382 112.139 52.4336C112.16 52.4851 112.191 52.5319 112.231 52.571C112.311 52.6495 112.419 52.6934 112.531 52.6934C112.643 52.6934 112.751 52.6495 112.831 52.571C112.89 52.512 112.93 52.4368 112.946 52.355C112.962 52.2733 112.953 52.1886 112.921 52.1118C112.889 52.0349 112.835 51.9693 112.765 51.9232C112.696 51.8772 112.614 51.8527 112.531 51.853V51.848Z" fill="#262525"/>
<path d="M116.339 46.0731L121.639 40.868L123.782 43.011L119.628 47.623" fill="#262525"/>
<path d="M117.034 45.412C117.034 45.412 118.762 44.706 119.375 45.412C120.075 46.212 121.75 45.412 121.75 45.412L115.436 51.726C115.281 51.8806 115.098 52.0033 114.896 52.087C114.694 52.1707 114.478 52.2137 114.259 52.2137C114.04 52.2137 113.824 52.1707 113.622 52.087C113.42 52.0033 113.237 51.8806 113.082 51.726V51.726C112.927 51.5715 112.805 51.388 112.721 51.186C112.637 50.9841 112.594 50.7676 112.594 50.549C112.594 50.3304 112.637 50.1139 112.721 49.912C112.805 49.71 112.927 49.5265 113.082 49.372L117.034 45.412Z" fill="#FFF6DA"/>
<path d="M114.26 52.565C113.86 52.5649 113.468 52.4462 113.136 52.2238C112.803 52.0013 112.543 51.6853 112.39 51.3155C112.237 50.9457 112.197 50.5388 112.275 50.1462C112.353 49.7537 112.546 49.393 112.829 49.11L121.611 40.327L124.473 43.19L115.691 51.972C115.504 52.1607 115.281 52.3104 115.035 52.4122C114.789 52.514 114.526 52.5659 114.26 52.565V52.565ZM121.61 41.345L113.337 49.619C113.215 49.7398 113.119 49.8835 113.053 50.0417C112.987 50.1999 112.953 50.3696 112.953 50.541C112.953 50.7124 112.987 50.8821 113.053 51.0403C113.119 51.1985 113.215 51.3422 113.337 51.463C113.585 51.7002 113.916 51.8325 114.259 51.8325C114.602 51.8325 114.933 51.7002 115.181 51.463L123.454 43.19L121.61 41.345Z" fill="#262525"/>
<path d="M121.524 40.7479L124.052 43.2758C124.373 43.5968 124.893 43.5968 125.214 43.2758C125.535 42.9548 125.535 42.4343 125.214 42.1133L122.686 39.5854C122.365 39.2644 121.845 39.2644 121.524 39.5854C121.203 39.9064 121.203 40.4269 121.524 40.7479Z" fill="#262525"/>
<path d="M124.633 43.877C124.478 43.8774 124.324 43.847 124.18 43.7877C124.037 43.7283 123.907 43.641 123.797 43.531L121.269 41.0031C121.048 40.7811 120.924 40.4807 120.924 40.1675C120.924 39.8544 121.048 39.5539 121.269 39.332C121.494 39.1171 121.794 38.9972 122.105 38.9972C122.416 38.9972 122.716 39.1171 122.941 39.332L125.468 41.86C125.633 42.0253 125.745 42.2358 125.791 42.4649C125.836 42.694 125.813 42.9314 125.724 43.1472C125.634 43.3629 125.483 43.5474 125.289 43.6773C125.095 43.8072 124.867 43.8767 124.633 43.877ZM122.105 39.705C122.014 39.7051 121.925 39.7322 121.849 39.7829C121.773 39.8336 121.714 39.9056 121.679 39.9899C121.644 40.0742 121.634 40.167 121.652 40.2565C121.67 40.3461 121.714 40.4284 121.778 40.493L124.306 43.0211C124.394 43.1052 124.511 43.1522 124.632 43.1522C124.754 43.1522 124.871 43.1052 124.959 43.0211C125.002 42.9783 125.036 42.9274 125.06 42.8714C125.083 42.8154 125.095 42.7552 125.095 42.6945C125.095 42.6338 125.083 42.5737 125.06 42.5177C125.036 42.4617 125.002 42.4108 124.959 42.368L122.431 39.84C122.346 39.7544 122.23 39.7058 122.109 39.705H122.105Z" fill="#262525"/>
<path d="M125.213 41.3731C126.2 41.3731 127 40.573 127 39.5861C127 38.5991 126.2 37.7991 125.213 37.7991C124.226 37.7991 123.426 38.5991 123.426 39.5861C123.426 40.573 124.226 41.3731 125.213 41.3731Z" fill="#262525"/>
<path d="M125.215 41.733C124.719 41.7328 124.238 41.5604 123.854 41.2452C123.47 40.9301 123.208 40.4917 123.111 40.0047C123.015 39.5177 123.09 39.0123 123.324 38.5746C123.558 38.1368 123.937 37.7939 124.396 37.6041C124.854 37.4143 125.365 37.3894 125.84 37.5337C126.315 37.678 126.725 37.9826 127.001 38.3955C127.277 38.8084 127.401 39.3042 127.352 39.7982C127.303 40.2923 127.084 40.7541 126.733 41.105C126.534 41.3045 126.297 41.4626 126.037 41.5704C125.776 41.6781 125.497 41.7334 125.215 41.733ZM125.215 38.16C124.885 38.16 124.565 38.2745 124.31 38.4839C124.055 38.6933 123.88 38.9848 123.815 39.3086C123.751 39.6324 123.801 39.9685 123.956 40.2596C124.112 40.5508 124.364 40.779 124.669 40.9054C124.974 41.0317 125.313 41.0485 125.629 40.9526C125.945 40.8568 126.218 40.6544 126.401 40.3799C126.585 40.1054 126.667 39.7758 126.635 39.4473C126.603 39.1187 126.458 38.8115 126.224 38.5781C126.091 38.4454 125.934 38.3402 125.761 38.2684C125.587 38.1967 125.402 38.1599 125.214 38.16H125.215Z" fill="#262525"/>
<path d="M98.578 94.7732H96.777V96.5742H98.578V94.7732Z" fill="#FFF6DA"/>
<path d="M98.939 96.9351H96.418V94.4131H98.939V96.9351ZM97.139 96.2151H98.22V95.1331H97.139V96.2151Z" fill="#FC6B3F"/>
<path d="M89.028 94.7732H87.227V96.5742H89.028V94.7732Z" fill="#FFF6DA"/>
<path d="M89.388 96.9351H86.867V94.4131H89.388V96.9351ZM87.588 96.2151H88.669V95.1331H87.588V96.2151Z" fill="#FC6B3F"/>
<path d="M79.477 94.7732H77.676V96.5742H79.477V94.7732Z" fill="#FFF6DA"/>
<path d="M79.838 96.9351H77.317V94.4131H79.838V96.9351ZM78.038 96.2151H79.119V95.1331H78.038V96.2151Z" fill="#FC6B3F"/>
<path d="M98.578 123.684H96.777V125.485H98.578V123.684Z" fill="#FFF6DA"/>
<path d="M98.939 125.845H96.418V123.324H98.939V125.845ZM97.139 125.125H98.22V124.044H97.139V125.125Z" fill="#FC6B3F"/>
<path d="M89.028 123.684H87.227V125.485H89.028V123.684Z" fill="#FFF6DA"/>
<path d="M89.388 125.845H86.867V123.324H89.388V125.845ZM87.588 125.125H88.669V124.044H87.588V125.125Z" fill="#FC6B3F"/>
<path d="M79.477 123.684H77.676V125.485H79.477V123.684Z" fill="#FFF6DA"/>
<path d="M79.838 125.845H77.317V123.324H79.838V125.845ZM78.038 125.125H79.119V124.044H78.038V125.125Z" fill="#FC6B3F"/>
<path d="M98.578 109.296H96.777V111.097H98.578V109.296Z" fill="#FFF6DA"/>
<path d="M98.939 111.458H96.418V108.936H98.939V111.458ZM97.139 110.738H98.22V109.656H97.139V110.738Z" fill="#FC6B3F"/>
<path d="M89.028 109.296H87.227V111.097H89.028V109.296Z" fill="#FFF6DA"/>
<path d="M89.388 111.458H86.867V108.936H89.388V111.458ZM87.588 110.738H88.669V109.656H87.588V110.738Z" fill="#FC6B3F"/>
<path d="M79.477 109.296H77.676V111.097H79.477V109.296Z" fill="#FFF6DA"/>
<path d="M79.838 111.458H77.317V108.936H79.838V111.458ZM78.038 110.738H79.119V109.656H78.038V110.738Z" fill="#FC6B3F"/>
<path d="M96.165 114.606L109.165 134.564L111.14 123.819L120.597 116.635L96.165 114.606Z" fill="#FFF6DA"/>
<path d="M109.304 135.278L95.642 114.291L121.321 116.424L111.387 123.971L109.304 135.278ZM96.693 114.921L109.018 133.849L110.889 123.668L119.87 116.847L96.693 114.921Z" fill="#262525"/>
<path d="M102.757 109.859H98.578V110.399H102.757V109.859Z" fill="#FC6B3F"/>
<path d="M102.734 111.347C103.369 111.347 103.884 110.832 103.884 110.197C103.884 109.562 103.369 109.047 102.734 109.047C102.099 109.047 101.584 109.562 101.584 110.197C101.584 110.832 102.099 111.347 102.734 111.347Z" fill="#FFF6DA"/>
<path d="M102.734 111.617C102.453 111.617 102.179 111.533 101.945 111.377C101.712 111.221 101.53 111 101.423 110.74C101.316 110.481 101.287 110.195 101.342 109.92C101.397 109.644 101.532 109.392 101.731 109.193C101.929 108.995 102.182 108.859 102.458 108.804C102.733 108.75 103.019 108.778 103.278 108.885C103.537 108.992 103.759 109.174 103.915 109.408C104.071 109.641 104.155 109.915 104.155 110.196C104.155 110.573 104.005 110.934 103.739 111.201C103.472 111.467 103.111 111.617 102.734 111.617V111.617ZM102.734 109.317C102.56 109.317 102.39 109.369 102.245 109.465C102.1 109.562 101.988 109.7 101.921 109.86C101.854 110.021 101.837 110.198 101.871 110.369C101.905 110.54 101.989 110.696 102.112 110.819C102.235 110.942 102.392 111.026 102.562 111.06C102.733 111.094 102.91 111.077 103.071 111.01C103.231 110.944 103.369 110.831 103.466 110.686C103.562 110.541 103.614 110.371 103.614 110.197C103.614 109.964 103.521 109.74 103.356 109.575C103.191 109.41 102.967 109.317 102.734 109.317Z" fill="#FC6B3F"/>
<path d="M61.452 102.332C61.2403 102.345 61.0284 102.312 60.8305 102.236C60.6327 102.159 60.4536 102.041 60.3055 101.889C60.1574 101.737 60.0436 101.555 59.9721 101.356C59.9006 101.156 59.8729 100.943 59.8909 100.732C59.8904 100.441 59.9165 100.151 59.9689 99.8651H59.853C59.5073 100.589 58.9677 101.202 58.2943 101.638C57.6208 102.073 56.8397 102.313 56.038 102.331C53.629 102.331 52.28 100.462 52.28 97.9191C52.28 94.2961 54.67 91.0391 57.638 91.0391C58.3294 91.0113 59.0092 91.2221 59.5637 91.6362C60.1181 92.0502 60.5134 92.6423 60.683 93.3131H60.798L61.434 91.3281H63.728L62.437 98.5741C62.3673 98.8976 62.3221 99.2258 62.3019 99.5561C62.3019 99.9421 62.4749 100.192 62.8799 100.192C63.42 100.132 63.9331 99.9244 64.363 99.5921L64.963 100.883C63.9994 101.764 62.7563 102.277 61.452 102.332ZM58.234 93.1601C56.558 93.1601 55.228 95.3181 55.228 97.7271C55.228 99.2691 55.941 100.213 57.116 100.213C59.116 100.213 60.238 97.8431 60.238 95.8201C60.238 94.2391 59.525 93.1601 58.234 93.1601V93.1601Z" fill="#262525"/>
</svg>
