<svg width="180" height="180" viewBox="0 0 180 180" fill="none" xmlns="http://www.w3.org/2000/svg">
<path d="M114.919 129.851C122.077 129.851 127.879 124.049 127.879 116.891C127.879 109.733 122.077 103.931 114.919 103.931C107.761 103.931 101.959 109.733 101.959 116.891C101.959 124.049 107.761 129.851 114.919 129.851Z" fill="#FFF6DA"/>
<path d="M114.919 133.451C112.196 133.451 109.515 132.779 107.113 131.495C104.711 130.212 102.663 128.355 101.15 126.091C99.6374 123.827 98.7063 121.224 98.4394 118.514C98.1725 115.804 98.5781 113.07 99.6202 110.554C100.662 108.038 102.309 105.818 104.414 104.09C106.519 102.362 109.018 101.181 111.689 100.649C114.36 100.118 117.12 100.254 119.726 101.044C122.332 101.835 124.703 103.255 126.629 105.181V105.181C128.945 107.497 130.521 110.448 131.16 113.66C131.799 116.872 131.471 120.202 130.218 123.228C128.964 126.254 126.842 128.84 124.119 130.66C121.396 132.479 118.194 133.451 114.919 133.451V133.451ZM114.919 107.531C112.754 107.531 110.655 108.282 108.981 109.656C107.307 111.029 106.161 112.941 105.739 115.065C105.316 117.189 105.643 119.393 106.664 121.303C107.685 123.213 109.336 124.71 111.337 125.538C113.337 126.367 115.563 126.477 117.636 125.848C119.708 125.22 121.498 123.892 122.701 122.092C123.904 120.291 124.446 118.129 124.234 115.974C124.022 113.819 123.069 111.804 121.538 110.273V110.273C120.671 109.401 119.639 108.71 118.503 108.239C117.367 107.768 116.149 107.528 114.919 107.531Z" fill="#262525"/>
<path d="M52.462 54.433L115.273 77.4L114.92 116.891L75.43 117.244L52.462 54.433Z" fill="#FFF6DA"/>
<path d="M72.921 120.867L46.421 48.39L118.897 74.89L118.49 120.457L72.921 120.867ZM58.504 60.477L77.937 113.623L111.351 113.323L111.651 79.909L58.504 60.477Z" fill="#262525"/>
<path d="M55.0072 51.8878L49.916 56.979L86.1008 93.1638L91.192 88.0726L55.0072 51.8878Z" fill="#262525"/>
<path d="M88.646 96.095C91.6709 96.095 94.123 93.6429 94.123 90.618C94.123 87.5931 91.6709 85.141 88.646 85.141C85.6211 85.141 83.169 87.5931 83.169 90.618C83.169 93.6429 85.6211 96.095 88.646 96.095Z" fill="#262525"/>
<path d="M153.069 110.201L147.004 106.901L144.342 113.271L142.385 106.651L135.998 109.273L139.298 103.208L132.928 100.546L139.548 98.5891L136.926 92.2021L142.991 95.5021L145.653 89.1321L147.61 95.7521L153.997 93.1301L150.697 99.1951L157.067 101.857L150.447 103.814L153.069 110.201Z" fill="#262525"/>
<path d="M31.771 124.153C15.006 107.898 25.171 96.631 35.936 84.703C45.475 74.133 55.336 63.203 45.99 48.033L46.603 47.656C56.234 63.283 46.1871 74.418 36.4701 85.185C25.9461 96.848 16.006 107.864 32.27 123.637L31.771 124.153Z" fill="#FC6B3F"/>
<path d="M47.567 47.16H44.757V49.97H47.567V47.16Z" fill="#FFF6DA"/>
<path d="M47.926 50.329H44.397V46.796H47.926V50.329ZM45.117 49.609H47.206V47.52H45.117V49.609Z" fill="#FC6B3F"/>
<path d="M33.621 122.491H30.811V125.301H33.621V122.491Z" fill="#FFF6DA"/>
<path d="M33.98 125.66H30.451V122.131H33.98V125.66ZM31.171 124.94H33.259V122.851H31.17L31.171 124.94Z" fill="#FC6B3F"/>
</svg>
