<svg width="24" height="24" viewBox="0 0 24 24" fill="none" xmlns="http://www.w3.org/2000/svg">
<g clip-path="url(#clip0)">
<path d="M7.7981 2H16.1981C17.7359 2.00141 19.2104 2.61293 20.2978 3.70034C21.3852 4.78774 21.9967 6.26218 21.9981 7.8V16.2C21.9981 17.7382 21.387 19.2135 20.2993 20.3012C19.2116 21.3889 17.7364 22 16.1981 22H7.7981C6.25985 22 4.7846 21.3889 3.69689 20.3012C2.60918 19.2135 1.99811 17.7382 1.99811 16.2V7.8C1.99811 6.26174 2.60918 4.78649 3.69689 3.69878C4.7846 2.61107 6.25985 2 7.7981 2V2ZM7.5981 4C6.64332 4 5.72765 4.37928 5.05252 5.05441C4.37739 5.72954 3.99811 6.64522 3.99811 7.6V16.4C3.99811 17.3548 4.37739 18.2704 5.05252 18.9456C5.72765 19.6207 6.64332 20 7.5981 20H16.3981C17.3529 20 18.2686 19.6207 18.9437 18.9456C19.6188 18.2704 19.9981 17.3548 19.9981 16.4V7.6C19.9981 6.64522 19.6188 5.72954 18.9437 5.05441C18.2686 4.37928 17.3529 4 16.3981 4H7.5981ZM17.2481 5.5C17.4953 5.5 17.737 5.57331 17.9426 5.71066C18.1481 5.84801 18.3083 6.04323 18.4029 6.27164C18.4976 6.50004 18.5223 6.75138 18.4741 6.99386C18.4259 7.23633 18.3068 7.45907 18.132 7.63388C17.9572 7.8087 17.7344 7.92774 17.492 7.97597C17.2495 8.0242 16.9982 7.99946 16.7698 7.90485C16.5413 7.81024 16.3461 7.65002 16.2088 7.44446C16.0714 7.2389 15.9981 6.99723 15.9981 6.75C15.9985 6.41859 16.1303 6.10085 16.3646 5.86651C16.599 5.63216 16.9167 5.50035 17.2481 5.5V5.5ZM11.9981 7.00133C12.987 7.00133 13.9537 7.29458 14.776 7.84398C15.5982 8.39339 16.2391 9.17428 16.6175 10.0879C16.9959 11.0015 17.095 12.0069 16.902 12.9768C16.7091 13.9467 16.2329 14.8376 15.5336 15.5369C14.8344 16.2361 13.9435 16.7123 12.9736 16.9053C12.0037 17.0982 10.9983 16.9992 10.0847 16.6207C9.17105 16.2423 8.39016 15.6014 7.84076 14.7792C7.29135 13.9569 6.99811 12.9902 6.99811 12.0013C6.99811 10.6753 7.52489 9.40348 8.46257 8.4658C9.40025 7.52812 10.672 7.00133 11.9981 7.00133ZM11.9981 9.00133C11.4048 9.00133 10.8247 9.17727 10.3314 9.50692C9.83805 9.83656 9.45353 10.3051 9.22647 10.8533C8.99941 11.4015 8.94 12.0047 9.05575 12.5866C9.17151 13.1685 9.45723 13.7031 9.87679 14.1227C10.2963 14.5422 10.8309 14.8279 11.4128 14.9437C11.9948 15.0594 12.598 15 13.1462 14.773C13.6943 14.5459 14.1629 14.1614 14.4925 13.668C14.8222 13.1747 14.9981 12.5947 14.9981 12.0013C14.9983 11.6073 14.9208 11.217 14.7701 10.8529C14.6194 10.4887 14.3985 10.1579 14.1199 9.87915C13.8413 9.60043 13.5105 9.37933 13.1465 9.22849C12.7824 9.07764 12.3922 9 11.9981 9V9.00133Z" fill="#000"/>
</g>
<defs>
<clipPath id="clip0">
<rect width="19.998" height="20" fill="white" transform="translate(2 2)"/>
</clipPath>
</defs>
</svg>
