<svg xmlns="http://www.w3.org/2000/svg" viewBox="0 0 24 24"><g id="Camada_2" data-name="Camada 2"><g id="Camada_1-2" data-name="Camada 1"><path id="instagram-ícone" d="M7,0H17a7,7,0,0,1,7,7V17a7,7,0,0,1-7,7H7a7,7,0,0,1-7-7V7A7,7,0,0,1,7,0M6.72,2.4A4.31,4.31,0,0,0,2.4,6.72h0V17.28A4.31,4.31,0,0,0,6.72,21.6H17.28a4.31,4.31,0,0,0,4.32-4.32h0V6.72A4.31,4.31,0,0,0,17.28,2.4H6.72M18.3,4.2a1.5,1.5,0,1,1-1.5,1.5h0a1.5,1.5,0,0,1,1.5-1.5M12,6a6,6,0,1,1-6,6,6,6,0,0,1,6-6h0m0,2.4A3.6,3.6,0,1,0,15.6,12h0A3.6,3.6,0,0,0,12,8.4Z"/></g></g></svg>