<svg width="300" height="150" viewBox="0 0 300 150" fill="none" xmlns="http://www.w3.org/2000/svg">
<g clip-path="url(#clip0_94_551)">
<path d="M177.978 61.4682V63.0732C175.953 61.8025 173.537 61 170.989 61C163.674 61 157.795 67.086 157.795 74.5096C157.795 82 163.739 88.0191 170.989 88.0191C173.537 88.0191 175.953 87.2834 177.978 85.9459V89.4236C177.978 93.3694 174.843 96.5796 170.989 96.5796C167.854 96.5796 165.241 94.5064 164.327 91.5637L158.579 93.9713C160.408 99.1879 165.307 102.866 170.989 102.866C178.305 102.866 184.183 96.7803 184.183 89.3567V61.4682H177.978ZM170.989 81.6656C167.136 81.6656 164 78.4554 164 74.5096C164 70.5637 167.136 67.3535 170.989 67.3535C174.843 67.3535 177.978 70.5637 177.978 74.5096C177.978 78.4554 174.843 81.6656 170.989 81.6656Z" fill="black"/>
<path d="M101.1 61C93.7845 61 87.906 67.086 87.906 74.5096C87.906 82 93.8499 88.0191 101.1 88.0191C108.416 88.086 114.294 82 114.294 74.5096C114.294 67.086 108.416 61 101.1 61ZM101.1 81.6656C97.2463 81.6656 94.1111 78.4554 94.1111 74.5096C94.1111 70.5637 97.2463 67.3535 101.1 67.3535C104.954 67.3535 108.089 70.5637 108.089 74.5096C108.089 78.4554 104.954 81.6656 101.1 81.6656Z" fill="black"/>
<path d="M77.194 67.3535C79.6761 67.3535 81.8316 68.6242 83.0726 70.6306L87.5141 66.0828C85.0974 63.0064 81.3743 61 77.194 61C69.9439 61 64 67.086 64 74.5096C64 82 69.9439 88.0191 77.194 88.0191C81.3743 88.0191 85.0974 86.0127 87.5141 82.9363L83.0726 78.3885C81.8316 80.328 79.6761 81.6656 77.194 81.6656C73.3403 81.6656 70.2051 78.4554 70.2051 74.5096C70.2051 70.5637 73.3403 67.3535 77.194 67.3535Z" fill="black"/>
<path d="M199.533 61C192.217 61 186.339 67.086 186.339 74.5096C186.339 82 192.283 88.0191 199.533 88.0191C206.848 88.0191 212.727 81.9331 212.727 74.5096V61H199.533ZM206.522 74.5096C206.522 78.4554 203.387 81.6656 199.533 81.6656C195.679 81.6656 192.544 78.4554 192.544 74.5096C192.544 70.5637 195.679 67.3535 199.533 67.3535H206.522V74.5096Z" fill="black"/>
<path d="M152.701 63.742C150.937 61.9363 148.651 61 145.712 61C142.838 61 139.245 62.5382 137.351 66.0159C136.045 63.207 133.236 61 129.905 61C127.358 61 124.941 62.1369 122.981 64.4108V61.4682H116.45V87.4841H121.087H122.981V73.1051C123.047 71.0318 123.634 69.828 124.614 68.8248C125.594 67.7548 126.9 67.4204 128.272 67.4204C131.015 67.4204 132.583 69.6943 132.583 73.3726V87.4841H139.115V73.1051C139.18 71.0318 139.768 69.828 140.748 68.8248C141.727 67.7548 143.034 67.4204 144.405 67.4204C147.149 67.4204 148.716 69.6943 148.716 73.3726V87.4841H155.509V71.7675C155.64 68.2229 154.529 65.6146 152.701 63.742Z" fill="black"/>
<path d="M231.799 73.9745C230.689 73.3057 228.011 72.3025 225.79 71.4331C222.198 70.0287 221.414 69.0924 221.545 68.1561C221.675 67.2197 223.112 66.551 225.398 66.6847C227.684 66.8185 229.579 67.1529 232.387 68.3567L234.543 63.1401C231.212 61.6688 228.142 61 225.79 61C222.002 61 219.781 61.6019 217.756 63.1401C215.731 64.6783 214.882 66.551 214.882 69.0255C214.882 71.4331 216.515 73.5732 218.605 74.9108C219.65 75.5796 221.218 76.449 223.7 77.3185C225.268 77.8535 226.247 78.1879 227.031 78.5892C227.88 79.0573 228.142 79.5924 228.142 80.1943C228.142 80.9299 227.227 81.9331 225.006 81.9331C222.263 81.9331 218.997 80.9299 216.058 79.1911L213.249 84.6083C215.209 85.879 216.319 86.3471 218.475 87.0828C220.63 87.7516 222.655 88.1529 224.68 88.1529C227.684 88.1529 230.101 87.3503 232.126 85.8121C233.824 84.4745 234.935 82.4013 234.935 79.793C235 77.6529 234.216 75.5127 231.799 73.9745Z" fill="black"/>
</g>
<defs>
<clipPath id="clip0_94_551">
<rect width="171" height="42" fill="white" transform="translate(64 61)"/>
</clipPath>
</defs>
</svg>
