<svg width="300" height="150" viewBox="0 0 300 150" fill="none" xmlns="http://www.w3.org/2000/svg">
<path d="M52.6666 76.3298C52.6666 74.5821 52.9216 73.0497 53.4314 71.7326C53.9668 70.4156 54.6678 69.3265 55.5345 68.4653C56.4013 67.5788 57.3955 66.9202 58.5172 66.4897C59.6389 66.0337 60.786 65.8058 61.9587 65.8058C64.7118 65.8058 66.8532 66.6543 68.3828 68.3513C69.9378 70.0483 70.7153 72.5812 70.7153 75.9498C70.7153 76.2031 70.7026 76.4944 70.6771 76.8237C70.6771 77.1276 70.6644 77.4062 70.6389 77.6595H57.4465C57.5739 79.2552 58.1348 80.4963 59.129 81.3828C60.1487 82.244 61.6145 82.6746 63.5265 82.6746C64.6481 82.6746 65.6678 82.5732 66.5856 82.3706C67.5288 82.168 68.2681 81.9527 68.8034 81.7247L69.4152 85.486C69.1603 85.6127 68.8034 85.752 68.3445 85.9039C67.9112 86.0306 67.4013 86.1445 66.815 86.2459C66.2541 86.3725 65.6423 86.4738 64.9795 86.5498C64.3167 86.6258 63.6412 86.6638 62.9529 86.6638C61.1939 86.6638 59.6643 86.4105 58.3642 85.9039C57.0641 85.372 55.9934 84.6502 55.1522 83.7383C54.3109 82.8012 53.6863 81.7121 53.2785 80.471C52.8706 79.2046 52.6666 77.8241 52.6666 76.3298ZM66.0885 74.2782C66.0885 73.645 65.9992 73.0497 65.8208 72.4925C65.6423 71.91 65.3747 71.4161 65.0178 71.0108C64.6864 70.5802 64.2657 70.2509 63.7559 70.023C63.2715 69.7697 62.6852 69.6431 61.9969 69.6431C61.2831 69.6431 60.6585 69.7824 60.1232 70.061C59.5879 70.3143 59.129 70.6562 58.7466 71.0868C58.3897 71.5174 58.1093 72.0113 57.9054 72.5685C57.7014 73.1257 57.5612 73.6956 57.4847 74.2782H66.0885ZM87.0162 70.4409C86.6338 70.3143 86.0985 70.1876 85.4102 70.061C84.7474 69.909 83.9699 69.833 83.0776 69.833C82.5678 69.833 82.0197 69.8837 81.4334 69.985C80.8725 70.0863 80.4774 70.175 80.248 70.2509V86.1699H75.6211V67.2495C76.5133 66.9202 77.6222 66.6163 78.9478 66.3377C80.2989 66.0337 81.7903 65.8818 83.4218 65.8818C83.7277 65.8818 84.0846 65.9071 84.4925 65.9578C84.9003 65.9831 85.3082 66.0338 85.7161 66.1097C86.124 66.1604 86.5191 66.2364 86.9015 66.3377C87.2839 66.4137 87.5898 66.4897 87.8192 66.5656L87.0162 70.4409ZM94.6763 75.7219C94.6763 77.6722 95.0969 79.1032 95.9382 80.0151C96.8049 80.9016 97.9139 81.3448 99.265 81.3448C100.004 81.3448 100.693 81.2435 101.33 81.0409C101.993 80.8382 102.528 80.5976 102.936 80.319V70.023C102.604 69.947 102.197 69.8837 101.712 69.833C101.228 69.757 100.616 69.719 99.8768 69.719C98.1943 69.719 96.9069 70.2763 96.0147 71.3907C95.1224 72.4798 94.6763 73.9236 94.6763 75.7219ZM107.563 84.1563C107.563 87.3223 106.747 89.6399 105.116 91.1089C103.509 92.578 101.037 93.3125 97.6972 93.3125C96.4735 93.3125 95.2754 93.2112 94.1027 93.0086C92.9556 92.8059 91.9104 92.54 90.9672 92.2107L91.8084 88.2975C92.5987 88.6267 93.4909 88.8927 94.4851 89.0953C95.5048 89.2979 96.601 89.3993 97.7737 89.3993C99.6346 89.3993 100.96 89.0193 101.751 88.2595C102.541 87.4996 102.936 86.3725 102.936 84.8781V84.1183C102.477 84.3462 101.865 84.5742 101.1 84.8021C100.361 85.0301 99.5072 85.1441 98.5384 85.1441C97.2638 85.1441 96.0912 84.9415 95.0205 84.5362C93.9753 84.1309 93.0703 83.5357 92.3055 82.7505C91.5662 81.9654 90.9799 80.9902 90.5465 79.8251C90.1386 78.6347 89.9347 77.2669 89.9347 75.7219C89.9347 74.2782 90.1514 72.9484 90.5848 71.7326C91.0436 70.5169 91.6937 69.4784 92.5349 68.6173C93.4017 67.7561 94.4469 67.0849 95.6705 66.6036C96.8942 66.1224 98.2835 65.8818 99.8385 65.8818C101.343 65.8818 102.77 65.9958 104.121 66.2237C105.472 66.4517 106.62 66.6923 107.563 66.9456V84.1563ZM131.536 76.2158C131.536 77.7862 131.307 79.2172 130.848 80.509C130.389 81.8007 129.739 82.9025 128.898 83.8143C128.056 84.7262 127.037 85.4354 125.839 85.9419C124.666 86.4485 123.366 86.7018 121.938 86.7018C120.511 86.7018 119.21 86.4485 118.038 85.9419C116.865 85.4354 115.858 84.7262 115.017 83.8143C114.176 82.9025 113.513 81.8007 113.028 80.509C112.57 79.2172 112.34 77.7862 112.34 76.2158C112.34 74.6454 112.57 73.227 113.028 71.9606C113.513 70.6689 114.176 69.5671 115.017 68.6552C115.884 67.7434 116.903 67.0469 118.076 66.5656C119.249 66.0591 120.536 65.8058 121.938 65.8058C123.34 65.8058 124.628 66.0591 125.8 66.5656C126.998 67.0469 128.018 67.7434 128.859 68.6552C129.701 69.5671 130.351 70.6689 130.81 71.9606C131.294 73.227 131.536 74.6454 131.536 76.2158ZM126.795 76.2158C126.795 74.2402 126.361 72.6825 125.494 71.5427C124.653 70.3776 123.468 69.795 121.938 69.795C120.409 69.795 119.21 70.3776 118.344 71.5427C117.502 72.6825 117.082 74.2402 117.082 76.2158C117.082 78.2167 117.502 79.7998 118.344 80.9649C119.21 82.13 120.409 82.7125 121.938 82.7125C123.468 82.7125 124.653 82.13 125.494 80.9649C126.361 79.7998 126.795 78.2167 126.795 76.2158Z" fill="black"/>
<path d="M147.698 75.7218C147.698 73.6449 147.43 72.1505 146.895 71.2387C146.385 70.3016 145.416 69.833 143.989 69.833C143.479 69.833 142.918 69.871 142.306 69.947C141.695 70.0229 141.236 70.0863 140.93 70.1369V86.1698H136.303V66.9455C137.195 66.6923 138.355 66.4516 139.783 66.2237C141.236 65.9957 142.765 65.8817 144.371 65.8817C145.748 65.8817 146.87 66.059 147.736 66.4136C148.629 66.7682 149.368 67.2368 149.954 67.8194C150.235 67.6167 150.591 67.4014 151.025 67.1735C151.458 66.9455 151.943 66.7429 152.478 66.5656C153.013 66.363 153.574 66.1983 154.16 66.0717C154.772 65.9451 155.384 65.8817 155.996 65.8817C157.551 65.8817 158.826 66.1097 159.82 66.5656C160.839 66.9962 161.63 67.6167 162.191 68.4272C162.777 69.2124 163.172 70.1749 163.376 71.3147C163.605 72.4291 163.72 73.6576 163.72 75V86.1698H159.093V75.7218C159.093 73.6449 158.838 72.1505 158.328 71.2387C157.819 70.3016 156.837 69.833 155.384 69.833C154.645 69.833 153.944 69.9596 153.281 70.2129C152.618 70.4409 152.121 70.6688 151.79 70.8968C151.994 71.53 152.134 72.2012 152.21 72.9104C152.287 73.6196 152.325 74.3794 152.325 75.19V86.1698H147.698V75.7218ZM176.424 82.9405C177.852 82.9405 178.935 82.8645 179.674 82.7125V77.6215C179.42 77.5455 179.05 77.4695 178.566 77.3935C178.081 77.3175 177.546 77.2796 176.96 77.2796C176.45 77.2796 175.927 77.3175 175.392 77.3935C174.882 77.4695 174.41 77.6088 173.977 77.8114C173.569 78.0141 173.238 78.3054 172.983 78.6853C172.728 79.0399 172.6 79.4958 172.6 80.053C172.6 81.1421 172.944 81.902 173.633 82.3326C174.321 82.7378 175.252 82.9405 176.424 82.9405ZM176.042 65.8058C177.571 65.8058 178.859 65.9957 179.904 66.3756C180.949 66.7556 181.778 67.2875 182.389 67.9713C183.027 68.6552 183.473 69.491 183.728 70.4788C184.008 71.4413 184.148 72.5051 184.148 73.6702V85.7139C183.435 85.8659 182.351 86.0432 180.898 86.2458C179.471 86.4738 177.852 86.5878 176.042 86.5878C174.844 86.5878 173.747 86.4738 172.753 86.2458C171.759 86.0179 170.905 85.6506 170.191 85.144C169.503 84.6375 168.955 83.9789 168.547 83.1684C168.165 82.3579 167.973 81.3574 167.973 80.167C167.973 79.0272 168.19 78.0647 168.623 77.2796C169.082 76.4944 169.694 75.8611 170.459 75.3799C171.224 74.8733 172.103 74.5187 173.097 74.3161C174.117 74.0882 175.175 73.9742 176.271 73.9742C176.781 73.9742 177.316 74.0122 177.877 74.0882C178.438 74.1388 179.037 74.2401 179.674 74.3921V73.6323C179.674 73.1004 179.611 72.5938 179.483 72.1125C179.356 71.6313 179.126 71.2134 178.795 70.8588C178.489 70.4789 178.068 70.1876 177.533 69.9849C177.023 69.7823 176.373 69.681 175.583 69.681C174.512 69.681 173.531 69.757 172.639 69.909C171.746 70.0609 171.02 70.2382 170.459 70.4409L169.885 66.7176C170.472 66.5149 171.326 66.3123 172.447 66.1097C173.569 65.9071 174.767 65.8058 176.042 65.8058ZM194.441 74.0502C195.028 73.4423 195.652 72.7964 196.315 72.1125C196.978 71.4033 197.628 70.7068 198.265 70.0229C198.903 69.3137 199.502 68.6425 200.063 68.0093C200.649 67.3508 201.146 66.7809 201.554 66.2997H207.022C205.747 67.718 204.396 69.1871 202.969 70.7068C201.567 72.2265 200.152 73.7082 198.724 75.152C199.489 75.7852 200.292 76.5577 201.133 77.4695C201.974 78.356 202.79 79.3058 203.58 80.319C204.371 81.3321 205.11 82.3452 205.798 83.3584C206.487 84.3715 207.06 85.3087 207.519 86.1698H202.166C201.707 85.3847 201.171 84.5615 200.56 83.7003C199.973 82.8392 199.336 82.0033 198.648 81.1928C197.959 80.3823 197.258 79.6224 196.545 78.9132C195.831 78.1787 195.13 77.5582 194.441 77.0516V86.1698H189.814V57.4474L194.441 56.6875V74.0502ZM208.871 76.3297C208.871 74.5821 209.126 73.0497 209.635 71.7326C210.171 70.4155 210.872 69.3264 211.738 68.4652C212.605 67.5787 213.599 66.9202 214.721 66.4896C215.843 66.0337 216.99 65.8058 218.163 65.8058C220.916 65.8058 223.057 66.6543 224.587 68.3513C226.142 70.0483 226.919 72.5811 226.919 75.9498C226.919 76.2031 226.907 76.4944 226.881 76.8236C226.881 77.1276 226.868 77.4062 226.843 77.6595H213.65C213.778 79.2552 214.339 80.4963 215.333 81.3828C216.353 82.2439 217.818 82.6745 219.73 82.6745C220.852 82.6745 221.872 82.5732 222.789 82.3706C223.733 82.1679 224.472 81.9527 225.007 81.7247L225.619 85.486C225.364 85.6126 225.007 85.7519 224.548 85.9039C224.115 86.0305 223.605 86.1445 223.019 86.2458C222.458 86.3725 221.846 86.4738 221.183 86.5498C220.521 86.6257 219.845 86.6637 219.157 86.6637C217.398 86.6637 215.868 86.4105 214.568 85.9039C213.268 85.372 212.197 84.6501 211.356 83.7383C210.515 82.8011 209.89 81.712 209.482 80.4709C209.075 79.2045 208.871 77.8241 208.871 76.3297ZM222.292 74.2781C222.292 73.6449 222.203 73.0497 222.025 72.4925C221.846 71.9099 221.579 71.416 221.222 71.0108C220.89 70.5802 220.47 70.2509 219.96 70.0229C219.475 69.7697 218.889 69.643 218.201 69.643C217.487 69.643 216.862 69.7823 216.327 70.0609C215.792 70.3142 215.333 70.6562 214.951 71.0867C214.594 71.5173 214.313 72.0112 214.109 72.5684C213.905 73.1257 213.765 73.6956 213.689 74.2781H222.292ZM228.881 89.3612H248V93.1985H228.881V89.3612Z" fill="black"/>
</svg>
