<svg width="300" height="150" viewBox="0 0 300 150" fill="none" xmlns="http://www.w3.org/2000/svg">
<path d="M144.429 78.9823L132.7 58.1567H125.802V92.3772H131.43V66.1498L141.715 84.3111H146.993L157.277 66.1498V92.3772H162.906V58.1567H156.158L144.429 78.9823ZM187.023 67.9951C185.238 66.8463 183.109 66.2718 180.636 66.2718C178.146 66.2718 175.942 66.8422 174.025 67.9829C172.107 69.1236 170.609 70.7043 169.53 72.7248C168.45 74.7454 167.911 77.0675 167.911 79.6912C167.911 82.2832 168.463 84.5808 169.567 86.5841C170.671 88.5874 172.211 90.1559 174.186 91.2897C176.162 92.4217 178.453 92.9879 181.059 92.9881C185.375 92.9881 189.019 91.6519 191.991 88.9795L189.003 85.3864C187.941 86.3802 186.804 87.1216 185.592 87.6105C184.381 88.0993 182.936 88.3438 181.259 88.3438C179.168 88.3438 177.437 87.745 176.067 86.5474C174.697 85.3498 173.838 83.7079 173.49 81.6219H192.59V80.1066C192.59 77.32 192.108 74.892 191.145 72.8227C190.182 70.7535 188.808 69.1443 187.023 67.9951ZM173.49 77.5891C173.822 75.5523 174.615 73.9308 175.868 72.7248C177.121 71.5188 178.678 70.9158 180.537 70.9158C182.446 70.9158 183.99 71.5066 185.169 72.6881C186.348 73.8696 187.02 75.5033 187.186 77.5891H173.49ZM204.842 59.4034H199.414V66.8831H194.233V71.4051H199.413V83.5043C199.413 89.7947 202.343 92.9397 208.203 92.9392C209.015 92.9415 209.827 92.8843 210.631 92.7682C211.333 92.6688 212.028 92.5217 212.71 92.3279V87.8549C212.113 87.9528 211.565 88.0303 211.067 88.0875C210.569 88.1446 209.963 88.173 209.249 88.1728C207.639 88.1728 206.502 87.7654 205.838 86.9506C205.174 86.1358 204.842 84.7752 204.842 82.8689V71.4051H212.711V66.8831H204.841L204.842 59.4034ZM235.671 66.8831V70.1591C234.758 68.9343 233.552 67.9481 232.16 67.287C230.749 66.6109 229.155 66.2728 227.379 66.2725C225.021 66.2725 222.934 66.8429 221.116 67.9836C219.298 69.1243 217.875 70.6963 216.846 72.6996C215.816 74.7041 215.301 77.0099 215.302 79.617C215.302 82.209 215.808 84.5107 216.82 86.5222C217.833 88.5336 219.223 90.1143 220.991 91.2641C222.759 92.413 224.789 92.9874 227.08 92.9874C228.938 92.9874 230.598 92.6248 232.06 91.8995C233.522 91.1742 234.726 90.1437 235.671 88.8078V92.3765H241V66.8831H235.671ZM235.572 83.4553C234.99 84.8896 234.044 86.0303 232.733 86.8775C231.422 87.7247 229.928 88.1483 228.251 88.1483C225.977 88.1483 224.176 87.3825 222.847 85.8508C221.518 84.3191 220.854 82.2414 220.855 79.6177C220.855 77.0106 221.544 74.9411 222.921 73.4092C224.299 71.8773 226.15 71.1115 228.474 71.112C230.118 71.112 231.566 71.532 232.819 72.372C234.072 73.212 234.989 74.3568 235.57 75.8064L235.572 83.4553Z" fill="black"/>
<mask id="mask0_94_561" style="mask-type:luminance" maskUnits="userSpaceOnUse" x="59" y="57" width="56" height="36">
<path d="M98.61 57C94.0846 57 90.5483 60.3458 87.3446 64.596C82.9439 59.0959 79.2635 57 74.8594 57C65.88 57 59 68.4703 59 80.611C59 88.207 62.7446 93 69.0166 93C73.5306 93 76.7772 90.912 82.55 81.0084C82.55 81.0084 84.9559 76.8382 86.6111 73.9654C87.1909 74.8843 87.8021 75.8747 88.4449 76.9364L91.1512 81.4055C96.4234 90.0653 99.3608 93 104.685 93C110.795 93 114.195 88.1429 114.195 80.3878C114.191 67.6758 107.156 57 98.61 57ZM78.1474 78.3268C73.4683 85.5268 71.8494 87.1406 69.244 87.1406C66.5629 87.1406 64.9694 84.8302 64.9694 80.7103C64.9694 71.8964 69.4464 62.8842 74.7835 62.8842C77.6736 62.8842 80.0887 64.5226 83.7882 69.721C80.2754 75.0097 78.1474 78.3268 78.1474 78.3268ZM95.808 77.4206L92.5721 72.1232C91.6962 70.7255 90.8547 69.4387 90.0473 68.263C92.9638 63.8443 95.3697 61.644 98.2308 61.644C104.175 61.644 108.93 70.2343 108.93 80.7859C108.93 84.8078 107.588 87.1417 104.807 87.1417C102.142 87.1406 100.869 85.413 95.808 77.4206Z" fill="white"/>
</mask>
<g mask="url(#mask0_94_561)">
<mask id="mask1_94_561" style="mask-type:luminance" maskUnits="userSpaceOnUse" x="58" y="56" width="57" height="38">
<path d="M114.374 56.82H58.8167V93.18H114.374V56.82Z" fill="white"/>
</mask>
<g mask="url(#mask1_94_561)">
<mask id="mask2_94_561" style="mask-type:luminance" maskUnits="userSpaceOnUse" x="58" y="56" width="57" height="38">
<path d="M114.374 56.82H58.8167V93.18H114.374V56.82Z" fill="white"/>
</mask>
<g mask="url(#mask2_94_561)">
<rect x="58.8018" y="56.8139" width="55.5773" height="36.3744" fill="black"/>
</g>
</g>
</g>
<path d="M144.429 78.9823L132.7 58.1567H125.802V92.3772H131.43V66.1498L141.715 84.3111H146.993L157.277 66.1498V92.3772H162.906V58.1567H156.158L144.429 78.9823ZM187.023 67.9951C185.238 66.8463 183.109 66.2718 180.636 66.2718C178.146 66.2718 175.942 66.8422 174.025 67.9829C172.107 69.1236 170.609 70.7043 169.53 72.7248C168.45 74.7454 167.911 77.0675 167.911 79.6912C167.911 82.2832 168.463 84.5808 169.567 86.5841C170.671 88.5874 172.211 90.1559 174.186 91.2897C176.162 92.4217 178.453 92.9879 181.059 92.9881C185.375 92.9881 189.019 91.6519 191.991 88.9795L189.003 85.3864C187.941 86.3802 186.804 87.1216 185.592 87.6105C184.381 88.0993 182.936 88.3438 181.259 88.3438C179.168 88.3438 177.437 87.745 176.067 86.5474C174.697 85.3498 173.838 83.7079 173.49 81.6219H192.59V80.1066C192.59 77.32 192.108 74.892 191.145 72.8227C190.182 70.7535 188.808 69.1443 187.023 67.9951ZM173.49 77.5891C173.822 75.5523 174.615 73.9308 175.868 72.7248C177.121 71.5188 178.678 70.9158 180.537 70.9158C182.446 70.9158 183.99 71.5066 185.169 72.6881C186.348 73.8696 187.02 75.5033 187.186 77.5891H173.49ZM204.842 59.4034H199.414V66.8831H194.233V71.4051H199.413V83.5043C199.413 89.7947 202.343 92.9397 208.203 92.9392C209.015 92.9415 209.827 92.8843 210.631 92.7682C211.333 92.6688 212.028 92.5217 212.71 92.3279V87.8549C212.113 87.9528 211.565 88.0303 211.067 88.0875C210.569 88.1446 209.963 88.173 209.249 88.1728C207.639 88.1728 206.502 87.7654 205.838 86.9506C205.174 86.1358 204.842 84.7752 204.842 82.8689V71.4051H212.711V66.8831H204.841L204.842 59.4034ZM235.671 66.8831V70.1591C234.758 68.9343 233.552 67.9481 232.16 67.287C230.749 66.6109 229.155 66.2728 227.379 66.2725C225.021 66.2725 222.934 66.8429 221.116 67.9836C219.298 69.1243 217.875 70.6963 216.846 72.6996C215.816 74.7041 215.301 77.0099 215.302 79.617C215.302 82.209 215.808 84.5107 216.82 86.5222C217.833 88.5336 219.223 90.1143 220.991 91.2641C222.759 92.413 224.789 92.9874 227.08 92.9874C228.938 92.9874 230.598 92.6248 232.06 91.8995C233.522 91.1742 234.726 90.1437 235.671 88.8078V92.3765H241V66.8831H235.671ZM235.572 83.4553C234.99 84.8896 234.044 86.0303 232.733 86.8775C231.422 87.7247 229.928 88.1483 228.251 88.1483C225.977 88.1483 224.176 87.3825 222.847 85.8508C221.518 84.3191 220.854 82.2414 220.855 79.6177C220.855 77.0106 221.544 74.9411 222.921 73.4092C224.299 71.8773 226.15 71.1115 228.474 71.112C230.118 71.112 231.566 71.532 232.819 72.372C234.072 73.212 234.989 74.3568 235.57 75.8064L235.572 83.4553Z" fill="black"/>
<mask id="mask3_94_561" style="mask-type:luminance" maskUnits="userSpaceOnUse" x="59" y="57" width="56" height="36">
<path d="M98.61 57C94.0846 57 90.5483 60.3458 87.3446 64.596C82.9439 59.0959 79.2635 57 74.8594 57C65.88 57 59 68.4703 59 80.611C59 88.207 62.7446 93 69.0166 93C73.5306 93 76.7772 90.912 82.55 81.0084C82.55 81.0084 84.9559 76.8382 86.6111 73.9654C87.1909 74.8843 87.8021 75.8747 88.4449 76.9364L91.1512 81.4055C96.4234 90.0653 99.3608 93 104.685 93C110.795 93 114.195 88.1429 114.195 80.3878C114.191 67.6758 107.156 57 98.61 57ZM78.1474 78.3268C73.4683 85.5268 71.8494 87.1406 69.244 87.1406C66.5629 87.1406 64.9694 84.8302 64.9694 80.7103C64.9694 71.8964 69.4464 62.8842 74.7835 62.8842C77.6736 62.8842 80.0887 64.5226 83.7882 69.721C80.2754 75.0097 78.1474 78.3268 78.1474 78.3268ZM95.808 77.4206L92.5721 72.1232C91.6962 70.7255 90.8547 69.4387 90.0473 68.263C92.9638 63.8443 95.3697 61.644 98.2308 61.644C104.175 61.644 108.93 70.2343 108.93 80.7859C108.93 84.8078 107.588 87.1417 104.807 87.1417C102.142 87.1406 100.869 85.413 95.808 77.4206Z" fill="white"/>
</mask>
<g mask="url(#mask3_94_561)">
<mask id="mask4_94_561" style="mask-type:luminance" maskUnits="userSpaceOnUse" x="58" y="56" width="57" height="38">
<path d="M114.374 56.82H58.8167V93.18H114.374V56.82Z" fill="white"/>
</mask>
<g mask="url(#mask4_94_561)">
<mask id="mask5_94_561" style="mask-type:luminance" maskUnits="userSpaceOnUse" x="58" y="56" width="57" height="38">
<path d="M114.374 56.82H58.8167V93.18H114.374V56.82Z" fill="white"/>
</mask>
<g mask="url(#mask5_94_561)">
<rect x="58.8018" y="56.8139" width="55.5773" height="36.3744" fill="black"/>
</g>
</g>
</g>
</svg>
