<svg width="300" height="150" viewBox="0 0 300 150" fill="none" xmlns="http://www.w3.org/2000/svg">
<g clip-path="url(#clip0_94_621)">
<path d="M71.0573 99V65.6151H98.5473V71.9529H78.35V78.6995H90.6429V84.9872H78.35V98.9928H71.0573V99Z" fill="black"/>
<path d="M124.46 84.7362H112.167V92.7123H133.795V99H104.874V65.6151H132.622V71.9529H112.167V78.445H124.46V84.7326V84.7362Z" fill="black"/>
<path d="M141.138 99V65.6151H159.6C164.343 65.6151 167.455 66.9952 169.597 69.2464C171.332 71.0854 172.351 73.4908 172.351 76.1471C172.351 80.4417 169.697 83.7647 165.62 85.5535L173.424 99H165.058L158.327 86.7293H148.431V99H141.138ZM148.431 71.8024V80.5456H160.366C162.916 80.5456 165.008 78.7066 165.008 76.1507C165.008 75.0251 164.601 74.0034 163.835 73.2363C162.662 71.9565 161.181 71.806 159.858 71.806H148.434L148.431 71.8024Z" fill="black"/>
<path d="M180.924 99V65.6151H199.387C204.13 65.6151 207.241 66.9952 209.384 69.2464C211.118 71.0854 212.138 73.4908 212.138 76.1471C212.138 80.4417 209.484 83.7647 205.406 85.5535L213.211 99H204.845L198.114 86.7293H188.217V99H180.924ZM188.217 71.8024V80.5456H200.152C202.702 80.5456 204.795 78.7066 204.795 76.1507C204.795 75.0251 204.387 74.0034 203.622 73.2363C202.449 71.9565 200.968 71.806 199.644 71.806H188.221L188.217 71.8024Z" fill="black"/>
<path d="M220.707 99V65.6151H228V98.9964H220.707V99Z" fill="black"/>
<path d="M74.6875 52.9143C76.7584 52.9143 78.4179 54.4665 78.4179 56.37C78.4179 58.2735 76.7584 59.858 74.6875 59.858C72.6166 59.858 71 58.3165 71 56.37C71 54.4235 72.6202 52.9143 74.6875 52.9143ZM74.6875 58.6248C75.9358 58.6248 76.9158 57.6031 76.9158 56.37C76.9158 55.1368 75.9358 54.1546 74.6875 54.1546C73.4393 54.1546 72.4986 55.1547 72.4986 56.37C72.4986 57.5852 73.4571 58.6248 74.6875 58.6248ZM74.827 51H76.2577L75.0166 52.3837H73.8255L74.8234 51H74.827Z" fill="black"/>
<path d="M83.1391 53.115H89.2981V54.3589H86.9375V59.6608H85.5068V54.3589H83.1391V53.115Z" fill="black"/>
<path d="M94.7882 59.6572V53.115H96.2189V59.6572H94.7882Z" fill="black"/>
<path d="M108.844 58.5172C108.093 59.2199 106.956 59.8615 105.525 59.8615C103.354 59.8615 101.927 58.3093 101.927 56.3843C101.927 54.4593 103.369 52.9178 105.475 52.9178C106.673 52.9178 107.854 53.3875 108.633 54.0614L107.732 55.0042C107.131 54.4844 106.291 54.1618 105.593 54.1618C104.273 54.1618 103.422 55.1727 103.422 56.3951C103.422 57.6175 104.291 58.6284 105.643 58.6284C106.534 58.6284 107.364 58.1588 107.932 57.5852L108.841 58.5172H108.844Z" fill="black"/>
<path d="M116.452 53.115H117.682L120.712 59.6572H119.142L118.541 58.2735H115.522L114.932 59.6572H113.422L116.452 53.115ZM116.012 57.1443H118.051L117.06 54.8285H116.999L116.008 57.1443H116.012Z" fill="black"/>
<path d="M130.68 54.7963C130.29 54.5059 129.471 54.0936 128.391 54.0936C127.74 54.0936 127.16 54.3338 127.16 54.8966C127.16 55.4594 128.019 55.5168 128.87 55.5885C130.061 55.6674 131.921 55.8072 131.921 57.6139C131.921 59.227 130.58 59.8579 128.981 59.8579C127.293 59.8579 126.152 59.1876 125.39 58.5638L126.198 57.5816C126.749 58.0225 127.679 58.6821 128.999 58.6821C129.828 58.6821 130.487 58.3631 130.487 57.7501C130.487 57.1371 129.818 56.9794 128.838 56.8969C127.407 56.8073 125.73 56.646 125.73 54.9827C125.73 53.3193 127.2 52.9071 128.43 52.9071C129.789 52.9071 130.941 53.409 131.499 53.7889L130.68 54.7927V54.7963Z" fill="black"/>
</g>
<defs>
<clipPath id="clip0_94_621">
<rect width="157" height="48" fill="white" transform="translate(71 51)"/>
</clipPath>
</defs>
</svg>
