<svg width="300" height="150" viewBox="0 0 300 150" fill="none" xmlns="http://www.w3.org/2000/svg">
<g clip-path="url(#clip0_94_483)">
<path d="M114.697 63.2044H119.855L128.067 85.7083L127.437 86.7973H123.661L121.42 80.5083H112.563L110.286 86.7973H105.804L114.697 63.2044ZM120.175 76.7775L117.081 68.0367L113.879 76.7775H120.175Z" fill="black"/>
<path d="M130.022 64.8193L134.468 63.2027V86.7956H130.022V64.8193Z" fill="black"/>
<path d="M138.808 82.3541V73.5779H136.425V70.0247H138.808V66.0114L143.112 64.4463V70.0247H146.42V73.5779H143.077V81.9278C143.077 82.745 143.468 83.1003 144.286 83.1358H146.243V86.7956H142.828C139.591 86.6179 138.879 85.1256 138.808 82.3541Z" fill="black"/>
<path d="M148.377 78.4581C148.377 73.3416 151.934 69.7174 157.021 69.7174C162.108 69.7174 165.629 73.3416 165.629 78.4581C165.629 83.5746 162.001 87.1278 156.914 87.1278C151.827 87.1278 148.377 83.5746 148.377 78.4581ZM161.147 78.5647V78.4226C161.147 75.2247 159.582 73.306 157.021 73.306C154.46 73.306 152.859 75.2247 152.859 78.4226V78.5647C152.859 81.6915 154.388 83.5391 156.95 83.5391C159.511 83.5391 161.147 81.6915 161.147 78.5647Z" fill="black"/>
<path d="M178.577 83.1714C174.629 83.1714 172.246 80.1867 172.246 75.1768V74.8215C172.246 69.8471 174.665 66.8269 178.684 66.8269C181.633 66.8269 183.769 68.0438 184.598 71.1013L188.929 69.5273C187.47 65.0503 183.806 62.7408 178.826 62.7408C172.174 62.7408 167.586 67.6796 167.586 74.9991C167.586 82.3186 172.032 87.2575 178.542 87.2575C183.629 87.2575 187.328 84.9835 188.787 80.2933L184.521 78.7424C183.753 81.9739 181.667 83.1714 178.577 83.1714Z" fill="black"/>
<path d="M191.157 64.8726L195.746 63.2044V67.5748H191.157V64.8726ZM191.228 70.0265H195.675V86.7973H191.228V70.0265Z" fill="black"/>
<path d="M198.521 70.0247H202.932V72.7606C203.821 70.8064 205.457 69.6694 207.841 69.6694C211.505 69.6694 213.674 72.1211 213.674 76.7402V85.019L212.648 86.7956H209.263V76.9889C209.263 74.6438 208.374 73.4357 206.311 73.4357C204.248 73.4357 202.932 75.1412 202.932 78.268V86.7956H198.521V70.0247Z" fill="black"/>
<path d="M227.903 80.2933C227.405 82.3186 226.48 83.5267 224.097 83.5267C221.714 83.5267 220.22 81.4303 220.22 78.4812V78.3391C220.22 75.39 221.785 73.2936 224.239 73.2936C226.302 73.2936 227.227 74.5017 227.725 76.3493L231.811 74.8641C230.644 71.7462 228.243 69.7049 224.275 69.7049C219.259 69.7049 215.809 73.3291 215.809 78.3746C215.809 83.4201 218.975 87.1153 224.168 87.1153C228.289 87.1153 230.758 85.0616 231.969 81.7714L227.903 80.2933Z" fill="black"/>
<path d="M233.748 78.4457C233.748 73.3291 237.305 69.7049 242.392 69.7049C247.478 69.7049 251 73.3291 251 78.4457C251 83.5622 247.372 87.1153 242.285 87.1153C237.198 87.1153 233.748 83.5622 233.748 78.4457ZM246.518 78.5523V78.4101C246.518 75.2123 244.953 73.2936 242.392 73.2936C239.83 73.2936 238.23 75.2123 238.23 78.4101V78.5523C238.23 81.679 239.759 83.5267 242.321 83.5267C244.882 83.5267 246.518 81.679 246.518 78.5523Z" fill="black"/>
<path d="M62.5952 53.9999C62.5365 53.9999 62.4884 54.0479 62.4884 54.1065V70.7708C62.4884 70.7903 62.4831 70.8081 62.4742 70.8241L48.0142 95.8382C48.0053 95.856 48 95.8738 48 95.8898V95.8933C48 95.9484 48.0462 95.9981 48.1085 95.9981H60.4751C60.5142 95.9981 60.5498 95.9768 60.5676 95.9448L75.088 70.8241C75.0969 70.8081 75.1022 70.7885 75.1022 70.7708V61.1542C75.1022 61.1098 75.0738 61.0689 75.0311 61.0529L69.5619 59.0631C69.5139 59.0454 69.4588 59.0649 69.4321 59.1111L69.2578 59.4114C69.2311 59.4558 69.176 59.4771 69.1279 59.4575L65.8464 58.2637C65.7522 58.2299 65.7522 58.0967 65.8464 58.0612L71.1146 56.146C71.1378 56.1371 71.1591 56.1211 71.1715 56.098L71.4063 55.6912C71.4188 55.6699 71.4383 55.6521 71.4632 55.645L75.0329 54.3463C75.0756 54.3303 75.104 54.2913 75.104 54.2451V54.1029C75.104 54.0443 75.056 53.9964 74.9973 53.9964H62.5987L62.5952 53.9999ZM76.3419 53.9999C76.2832 53.9999 76.2352 54.0479 76.2352 54.1065V70.7992L90.7699 95.9448C90.7895 95.9786 90.825 95.9981 90.8624 95.9981H99.2734C99.3107 95.9981 99.3481 95.9768 99.3658 95.9448L101.344 92.5231C101.353 92.5072 101.358 92.4876 101.358 92.4699C101.358 92.4521 101.353 92.4325 101.344 92.4166L88.8792 70.8525C88.8597 70.8187 88.8241 70.7992 88.7868 70.7992H76.2352L88.7779 66.2387C88.8205 66.2227 88.849 66.1837 88.849 66.1375V54.1065C88.849 54.0479 88.801 53.9999 88.7423 53.9999H76.3437H76.3419Z" fill="black"/>
</g>
<defs>
<clipPath id="clip0_94_483">
<rect width="203" height="42" fill="white" transform="translate(48 54)"/>
</clipPath>
</defs>
</svg>
