<svg width="80" height="107" viewBox="0 0 80 107" fill="none" xmlns="http://www.w3.org/2000/svg">
<g clip-path="url(#clip0)">
<path d="M78.117 3.40859C77.4398 2.59387 76.6083 1.92208 75.6708 1.43213C74.7332 0.942177 73.7082 0.643782 72.655 0.554213L66.706 0.031134C64.5803 -0.155416 62.4679 0.513424 60.8333 1.89053C59.1988 3.26763 58.176 5.2402 57.99 7.37436L55.823 32.2414L53.656 7.37436C53.4679 5.24104 52.4446 3.26975 50.8106 1.89307C49.1765 0.516386 47.0652 -0.153241 44.94 0.031134L38.991 0.554213C36.8663 0.743295 34.903 1.77081 33.5319 3.41132C32.1607 5.05184 31.4936 7.17139 31.677 9.30506L33.302 27.9623C32.8502 27.8843 32.3925 27.845 31.934 27.8449H25.962C24.4551 27.8463 22.9789 28.272 21.7011 29.0737C20.4232 29.8753 19.3949 31.0208 18.733 32.3799C17.363 31.3796 15.712 30.8417 14.018 30.8438H8.04603C5.91292 30.8462 3.86787 31.6981 2.35963 33.2126C0.851386 34.727 0.00310384 36.7803 0.000986365 38.922V74.9394C-0.00230127 79.1507 0.82145 83.3213 2.42512 87.2127C4.02879 91.1041 6.38093 94.6399 9.34693 97.6177C12.3129 100.596 15.8346 102.957 19.7105 104.567C23.5864 106.177 27.7404 107.004 31.935 107.001H43.879C48.0736 107.004 52.2276 106.177 56.1035 104.567C59.9794 102.957 63.5011 100.596 66.4671 97.6177C69.4331 94.6399 71.7852 91.1041 73.3889 87.2127C74.9925 83.3213 75.8163 79.1507 75.813 74.9394V74.4324C76.7437 73.6737 77.4946 72.7165 78.0111 71.6303C78.5275 70.544 78.7967 69.356 78.799 68.1524V62.1565C78.7993 60.9732 78.5401 59.8044 78.04 58.7329C77.5398 57.6615 76.811 56.7137 75.905 55.9568L79.97 9.30708C80.0652 8.24971 79.9504 7.18387 79.6323 6.17136C79.3143 5.15885 78.7992 4.21981 78.117 3.40859V3.40859ZM39.351 4.70275L45.301 4.18065C46.3311 4.09043 47.3546 4.41456 48.1467 5.08179C48.9388 5.74902 49.4346 6.70472 49.525 7.73882L53.563 54.0783H39.979V35.927C39.9802 33.8073 39.1487 31.7726 37.665 30.2645L35.803 8.94262C35.7587 8.43033 35.8153 7.91427 35.9696 7.42394C36.1239 6.93361 36.3729 6.47861 36.7023 6.0849C37.0318 5.69119 37.4353 5.36646 37.8898 5.12931C38.3442 4.89216 38.8408 4.74723 39.351 4.70275V4.70275ZM22.063 35.927C22.063 34.8886 22.4739 33.8926 23.2053 33.1583C23.9367 32.424 24.9287 32.0115 25.963 32.0115H31.935C32.9694 32.0115 33.9614 32.424 34.6928 33.1583C35.4242 33.8926 35.835 34.8886 35.835 35.927V54.0492H22.063V35.927ZM4.14698 38.925C4.14698 37.8865 4.55792 36.8906 5.28932 36.1563C6.02071 35.4219 7.01266 35.0094 8.04701 35.0094H14.019C15.0533 35.0094 16.0454 35.4219 16.7767 36.1563C17.5081 36.8906 17.919 37.8865 17.919 38.925V50.9167C17.919 51.9552 17.5081 52.9511 16.7767 53.6855C16.0454 54.4198 15.0533 54.8323 14.019 54.8323H8.04701C7.01266 54.8323 6.02071 54.4198 5.28932 53.6855C4.55792 52.9511 4.14698 51.9552 4.14698 50.9167V38.921V38.925ZM74.647 68.1554C74.6455 68.8426 74.4645 69.5174 74.1222 70.1125C73.7799 70.7075 73.2881 71.2021 72.696 71.5469L71.665 72.1493V73.344V74.9504C71.6568 82.3469 68.7266 89.4381 63.5173 94.6682C58.308 99.8983 51.2451 102.84 43.878 102.848H31.934C24.567 102.84 17.504 99.8983 12.2947 94.6682C7.08539 89.4381 4.15519 82.3469 4.14698 74.9504V57.9768C5.33954 58.6433 6.68213 58.9924 8.04701 58.9909H12.589C12.1635 59.9912 11.9447 61.0678 11.946 62.1555C11.95 65.8868 13.428 69.4641 16.0558 72.1026C18.6836 74.7411 22.2466 76.2252 25.963 76.2295H38.713C36.8614 78.3849 35.8438 81.1371 35.846 83.9834C35.846 84.5356 36.0646 85.0653 36.4535 85.4558C36.8425 85.8463 37.3699 86.0657 37.92 86.0657C38.4701 86.0657 38.9976 85.8463 39.3865 85.4558C39.7755 85.0653 39.994 84.5356 39.994 83.9834C39.9961 81.93 40.8096 79.9613 42.2557 78.5093C43.7019 77.0573 45.6628 76.2407 47.708 76.2385C47.773 76.2385 47.837 76.2385 47.901 76.2295H53.846C54.1221 76.2356 54.3967 76.1862 54.6536 76.0844C54.9105 75.9825 55.1445 75.8301 55.3419 75.6362C55.5394 75.4423 55.6962 75.2107 55.8033 74.9551C55.9104 74.6995 55.9655 74.425 55.9655 74.1477C55.9655 73.8704 55.9104 73.5959 55.8033 73.3403C55.6962 73.0847 55.5394 72.8532 55.3419 72.6592C55.1445 72.4653 54.9105 72.313 54.6536 72.2111C54.3967 72.1092 54.1221 72.0599 53.846 72.0659H25.962C23.3451 72.0628 20.8364 71.0175 18.986 69.1596C17.1357 67.3017 16.0949 64.7828 16.092 62.1555C16.092 61.117 16.5029 60.1211 17.2343 59.3867C17.9657 58.6524 18.9577 58.2399 19.992 58.2399H70.755C71.7894 58.2399 72.7813 58.6524 73.5127 59.3867C74.2441 60.1211 74.655 61.117 74.655 62.1555L74.647 68.1554ZM70.747 54.0813H58.083L62.121 7.74183C62.2115 6.70773 62.7073 5.75202 63.4993 5.08479C64.2914 4.41757 65.315 4.09346 66.345 4.18368L72.294 4.70575C73.3238 4.79659 74.2755 5.29419 74.9401 6.08922C75.6046 6.88425 75.9276 7.91164 75.838 8.94562L71.898 54.1627C71.5185 54.107 71.1356 54.0784 70.752 54.0773L70.747 54.0813Z" fill="#000000"/>
</g>
<defs>
<clipPath id="clip0">
<rect width="80" height="107" fill="white"/>
</clipPath>
</defs>
</svg>
