<svg width="505" height="673" viewBox="0 0 505 673" fill="none" xmlns="http://www.w3.org/2000/svg">
<g clip-path="url(#clip0_116_157)">
<path d="M493.109 21.4521C484.391 11.0486 472.142 4.68319 458.631 3.50544L421.07 0.22456C407.559 -0.95319 394.385 3.19698 383.986 11.9179C373.586 20.6389 367.223 32.8931 366.046 46.4092L352.367 202.826L338.688 46.4092C336.249 18.4797 311.554 -2.24311 283.664 0.196519L246.103 3.47739C218.212 5.91702 197.498 30.6217 199.936 58.5232L210.196 175.878C207.393 175.401 204.505 175.148 201.562 175.148H163.861C143.847 175.148 126.496 186.786 118.227 203.667C109.846 197.582 99.5587 193.992 88.4585 193.992H50.7573C22.7547 193.992 -0.0341797 216.79 -0.0341797 244.804V471.353C-0.0341797 498.581 5.29164 524.968 15.8031 549.841C25.9502 573.845 40.4981 595.409 58.9983 613.944C77.4986 632.452 99.0541 647.006 123.076 657.157C147.94 667.672 174.344 673 201.534 673H276.937C304.154 673 330.531 667.672 355.394 657.157C379.389 647.006 400.944 632.452 419.472 613.944C437.973 595.437 452.52 573.873 462.668 549.841C473.179 524.968 478.505 498.553 478.505 471.353V468.156C490.278 458.594 497.341 444.068 497.341 428.645V390.929C497.341 375.282 490.222 361.261 479.065 351.923L504.714 58.4951C505.891 44.9791 501.742 31.7995 493.025 21.396M248.317 29.5281L285.878 26.2472C299.389 25.0695 311.358 35.1084 312.535 48.6245L338.015 340.09H252.27V225.904C252.27 212.051 246.692 199.461 237.666 190.291L225.949 56.1957C224.772 42.6796 234.807 30.7059 248.317 29.5281ZM139.194 225.904C139.194 212.332 150.238 201.283 163.805 201.283H201.506C215.073 201.283 226.117 212.332 226.117 225.904V339.893H139.194V225.904ZM26.0904 244.748C26.0904 231.176 37.1344 220.127 50.7013 220.127H88.4025C101.969 220.127 113.013 231.176 113.013 244.748V320.18C113.013 333.752 101.969 344.801 88.4025 344.801H50.7013C37.1344 344.801 26.0904 333.752 26.0904 320.18V244.748ZM452.296 471.296C452.296 568.04 373.614 646.753 276.909 646.753H201.506C104.8 646.753 26.1184 568.04 26.1184 471.296V364.626C33.4064 368.692 41.8156 370.991 50.7293 370.991H79.4047C76.7978 377.105 75.3402 383.835 75.3402 390.901C75.3402 439.722 115.032 479.429 163.833 479.429H244.337C233.069 492.552 226.229 509.601 226.229 528.193C226.229 535.428 232.088 541.288 239.319 541.288C246.551 541.288 252.41 535.428 252.41 528.193C252.41 501.329 274.246 479.485 301.099 479.485C301.519 479.485 301.912 479.485 302.304 479.429H339.837C347.069 479.429 352.928 473.568 352.928 466.333C352.928 459.098 347.069 453.238 339.837 453.238H163.833C129.467 453.238 101.521 425.28 101.521 390.901C101.521 377.329 112.565 366.28 126.132 366.28H446.578C460.145 366.28 471.189 377.329 471.189 390.901V428.617C471.189 437.366 466.48 445.554 458.883 449.957L452.38 453.714M446.578 340.09H366.607L392.086 48.6245C393.264 35.1084 405.233 25.0695 418.744 26.2472L456.305 29.5281C469.815 30.7059 479.85 42.6796 478.673 56.1957L453.81 340.594C451.455 340.258 449.045 340.09 446.578 340.09Z" fill="#FF6633"/>
</g>
<defs>
<clipPath id="clip0_116_157">
<rect width="505" height="673" fill="white"/>
</clipPath>
</defs>
</svg>
