<svg width="300" height="150" viewBox="0 0 300 150" fill="none" xmlns="http://www.w3.org/2000/svg">
<g clip-path="url(#clip0_94_637)">
<path d="M134.08 68.3939C137.321 68.3939 139.948 65.8031 139.948 62.6073C139.948 59.4114 137.321 56.8207 134.08 56.8207C130.839 56.8207 128.212 59.4114 128.212 62.6073C128.212 65.8031 130.839 68.3939 134.08 68.3939Z" fill="black"/>
<path d="M189.265 68.3939C192.506 68.3939 195.133 65.8031 195.133 62.6073C195.133 59.4114 192.506 56.8207 189.265 56.8207C186.025 56.8207 183.398 59.4114 183.398 62.6073C183.398 65.8031 186.025 68.3939 189.265 68.3939Z" fill="black"/>
<path d="M202.063 86.8755H200.405C197.505 86.8755 195.147 85.0564 195.147 82.8196V70.1316C195.147 69.7529 194.857 69.4485 194.502 69.4485H184.029C183.674 69.4485 183.383 69.7564 183.383 70.1316V82.8196C183.383 83.9309 183.541 84.9749 183.832 85.9517C183.968 86.4119 183.631 86.8719 183.146 86.8719H178.815C175.226 86.8719 172.104 85.3041 170.535 83.0107C170.313 82.6851 170.395 82.2286 170.722 82.0197C175.201 79.1742 178.14 74.9343 178.409 70.1706C178.431 69.7777 178.133 69.4485 177.763 69.4485H167.277C166.954 69.4485 166.674 69.7033 166.638 70.0432C166.329 72.963 163.752 75.3909 160.275 76.2898C159.866 76.396 159.467 76.0739 159.467 75.6279V60.3918C159.467 60.0131 159.177 59.7087 158.821 59.7087H148.349C147.994 59.7087 147.703 60.0166 147.703 60.3918V86.8755H145.22C142.32 86.8755 139.962 85.0564 139.962 82.8196V70.1316C139.962 69.7529 139.671 69.4485 139.316 69.4485H128.844C128.489 69.4485 128.198 69.7564 128.198 70.1316V82.8196C128.198 83.9309 128.356 84.9749 128.646 85.9517C128.783 86.4119 128.445 86.8719 127.961 86.8719H117.905C115.005 86.8719 112.647 85.0528 112.647 82.816V79.2061C112.647 78.8274 112.938 78.5231 113.293 78.5231H122.954C123.31 78.5231 123.601 78.2151 123.601 77.8399V70.1352C123.601 69.7564 123.31 69.4521 122.954 69.4521H113.293C112.938 69.4521 112.647 69.1442 112.647 68.7691V60.3953C112.647 60.0166 112.357 59.7123 112.001 59.7123H101.529C101.174 59.7123 100.883 60.0202 100.883 60.3953V68.8185C100.883 69.169 100.596 69.4556 100.237 69.4556H97.646C97.2907 69.4556 97 69.7388 97 70.0927V77.8931C97 78.2434 97.2871 78.5301 97.646 78.5301H100.237C100.592 78.5301 100.883 78.8132 100.883 79.1671V82.8267C100.883 90.0643 108.52 95.9535 117.905 95.9535H129.357C129.712 95.9535 130.003 95.6456 130.003 95.2704V90.4678C130.003 89.9793 130.624 89.7457 130.943 90.1174C134.234 93.9361 139.973 95.9571 145.223 95.9571H148.31C148.31 95.9571 148.338 95.9606 148.353 95.9606H158.825C159.18 95.9571 159.471 95.6492 159.471 95.2704V88.3513C159.471 87.7107 160.232 87.417 160.612 87.916C164.287 92.7258 171.07 95.9606 178.815 95.9606H184.553C184.909 95.9606 185.199 95.6527 185.199 95.2775V90.489C185.199 90.0006 185.82 89.7635 186.14 90.1351C189.434 93.9432 195.162 95.9571 200.405 95.9571H202.063C202.419 95.9571 202.709 95.6703 202.709 95.32V87.5232C202.709 87.1728 202.422 86.8861 202.063 86.8861V86.8755Z" fill="black"/>
<path d="M200.703 58.4098H201.364L200.671 57.2596C200.671 57.2596 200.699 57.2525 200.711 57.2454C200.875 57.164 201.005 57.0543 201.101 56.9092C201.195 56.7641 201.245 56.6013 201.245 56.4137C201.245 56.2261 201.198 56.0598 201.109 55.9182C201.019 55.7767 200.889 55.6634 200.729 55.5785C200.567 55.4971 200.38 55.4546 200.168 55.4581H199.576L199.059 55.4617V58.4063H199.645V57.3622H200.094L200.703 58.4063V58.4098ZM199.645 55.9926H200.144C200.287 55.9926 200.405 56.0315 200.499 56.1094C200.592 56.1872 200.639 56.2898 200.639 56.4173C200.639 56.4987 200.617 56.573 200.577 56.6367C200.535 56.7004 200.481 56.7499 200.412 56.7889C200.344 56.8243 200.266 56.842 200.176 56.842H199.648V55.9926H199.645Z" fill="black"/>
<path d="M200.024 59.868C198.385 59.868 197.05 58.5514 197.05 56.934C197.05 55.3166 198.385 54 200.024 54C201.665 54 203 55.3166 203 56.934C203 58.5514 201.665 59.868 200.024 59.868ZM200.024 54.4247C198.622 54.4247 197.48 55.5502 197.48 56.934C197.48 58.3178 198.622 59.4433 200.024 59.4433C201.428 59.4433 202.569 58.3178 202.569 56.934C202.569 55.5502 201.428 54.4247 200.024 54.4247Z" fill="black"/>
</g>
<defs>
<clipPath id="clip0_94_637">
<rect width="106" height="42" fill="white" transform="translate(97 54)"/>
</clipPath>
</defs>
</svg>
