<svg width="300" height="150" viewBox="0 0 300 150" fill="none" xmlns="http://www.w3.org/2000/svg">
<path d="M69.2013 87.9721C68.3984 87.9721 68 87.6704 68 87.067V86.8776C68 86.499 68.3299 85.9133 69.0022 85.1205C69.6682 84.3278 70.0043 83.535 70.0043 82.7423V73.7142C70.0043 72.8919 69.6682 72.0932 69.0022 71.3123C68.3299 70.5372 68 70.0048 68 69.7208V69.5315C68 69.1529 68.3859 68.7861 69.1515 68.437L76.7019 64.9169C77.3991 64.6329 77.953 64.6034 78.3514 64.8222C78.7498 65.0471 78.949 65.4079 78.949 65.9167V82.7423C78.949 83.535 79.3224 84.3278 80.0756 85.1205C80.8288 85.9133 81.2022 86.499 81.2022 86.8776V87.067C81.2022 87.6704 80.7852 87.9721 79.9511 87.9721H69.2013ZM74.5482 62.3552C72.8489 62.3552 71.4671 61.9056 70.3964 61.0004C69.3321 60.0952 68.7967 58.9653 68.7967 57.6046C68.7967 56.2438 69.3321 55.1079 70.3964 54.2087C71.4608 53.3035 72.8489 52.8539 74.5482 52.8539C76.2164 52.8539 77.5796 53.3035 78.6502 54.2087C79.7146 55.1139 80.2499 56.2438 80.2499 57.6046C80.2499 58.9653 79.7146 60.1012 78.6502 61.0004C77.5858 61.8997 76.2164 62.3552 74.5482 62.3552Z" fill="black"/>
<path d="M109.256 82.7896C109.325 83.5824 109.642 84.3633 110.209 85.1442C110.775 85.9192 111.061 86.5168 111.061 86.925V87.1143C111.061 87.7177 110.663 88.0195 109.86 88.0195H99.8572C99.0542 88.0195 98.6559 87.7177 98.6559 87.1143V86.925C98.6559 86.5463 98.9733 85.9606 99.6082 85.1679C100.243 84.3751 100.523 83.5824 100.461 82.7896L99.963 74.2822C99.8323 71.9394 99.5024 70.2769 98.9858 69.2889C98.4691 68.3069 97.6413 67.8158 96.5084 67.8158C95.444 67.8158 94.6348 68.23 94.0808 69.0523C93.5331 69.8746 93.253 70.9987 93.253 72.4245V82.7837C93.253 83.5764 93.6202 84.3692 94.3547 85.162C95.0892 85.9547 95.4564 86.5404 95.4564 86.9191V87.1084C95.4564 87.7118 95.0581 88.0135 94.2551 88.0135H83.4493C82.6463 88.0135 82.248 87.7118 82.248 87.1084V86.9191C82.248 86.5404 82.6152 85.9547 83.3497 85.162C84.0842 84.3692 84.4515 83.5764 84.4515 82.7837V73.4243C84.4515 72.7617 84.2336 72.1938 83.8041 71.7382C83.3684 71.2768 82.9264 70.8804 82.4783 70.5491C82.0301 70.2178 81.806 69.8628 81.806 69.4783V69.3363C81.806 68.9221 82.2044 68.5258 83.0074 68.1471L90.01 64.8696C90.6449 64.6152 91.1179 64.6093 91.4354 64.8459C91.7528 65.0826 91.9085 65.473 91.9085 66.0114V68.2477C93.309 65.8694 95.693 64.6803 99.0605 64.6803C101.563 64.6803 103.71 65.4553 105.509 67.0112C107.308 68.5613 108.341 71.0815 108.609 74.5661L109.256 82.7896Z" fill="black"/>
<path d="M136.078 82.7896C136.078 83.5823 136.408 84.3633 137.08 85.1442C137.746 85.9192 138.082 86.499 138.082 86.8776V87.067C138.082 87.6704 137.696 87.9721 136.931 87.9721H129.772C128.907 87.9721 128.471 87.5757 128.471 86.783V86.357C126.903 87.7532 124.874 88.4454 122.371 88.4454C119.135 88.4454 116.365 87.3923 114.043 85.2862C111.727 83.18 110.57 80.2693 110.57 76.5658C110.57 73.1108 111.734 70.2651 114.068 68.0347C116.402 65.7984 119.184 64.6862 122.421 64.6862C124.457 64.6862 126.175 65.1299 127.575 66.0173V59.6929C127.575 59.0599 127.357 58.5156 126.928 58.0542C126.492 57.5927 126.05 57.1963 125.602 56.865C125.154 56.5337 124.93 56.1788 124.93 55.7942V55.6522C124.93 55.0488 125.316 54.6406 126.081 54.4157L133.874 52.1794C135.343 51.7357 136.072 52.1144 136.072 53.3213V68.0554V82.7896H136.078ZM124.376 86.1145C125.278 86.144 126.031 85.8009 126.654 85.0673C127.27 84.3396 127.581 83.3575 127.581 82.1211V72.951C127.581 71.4306 127.121 70.058 126.206 68.8393C125.291 67.6206 124.245 67.0112 123.081 67.0112C120.616 67.0112 119.296 68.9576 119.128 72.8564C119.06 74.3472 119.203 76.0748 119.552 78.0389C119.9 80.0031 120.504 81.8312 121.351 83.5291C122.197 85.2211 123.205 86.0849 124.376 86.1145Z" fill="black"/>
<path d="M140.267 87.9721C139.464 87.9721 139.252 87.6704 139.252 87.067V86.8776C139.252 86.499 139.395 85.9133 140.068 85.1205C140.734 84.3278 141.07 83.535 141.07 82.7423V73.7142C141.07 72.8919 140.734 72.0932 140.068 71.3123C139.402 70.5372 139.252 70.0048 139.252 69.7208V69.5315C139.252 69.1529 139.451 68.7861 140.217 68.437L147.767 64.9169C148.465 64.6329 149.205 64.6034 149.604 64.8222C150.002 65.0471 150.201 65.4079 150.201 65.9167V82.7423C150.201 83.535 150.575 84.3278 151.328 85.1205C152.081 85.9133 152.455 86.499 152.455 86.8776V87.067C152.455 87.6704 152.038 87.9721 151.203 87.9721H140.267ZM145.614 62.3552C143.914 62.3552 142.533 61.9056 141.462 61.0004C140.398 60.0952 139.862 58.9653 139.862 57.6046C139.862 56.2438 140.398 55.1079 141.462 54.2087C142.526 53.3035 143.914 52.8539 145.614 52.8539C147.282 52.8539 148.832 53.3035 149.902 54.2087C150.967 55.1139 151.502 56.2438 151.502 57.6046C151.502 58.9653 150.967 60.1012 149.902 61.0004C148.838 61.8997 147.282 62.3552 145.614 62.3552Z" fill="black"/>
<path d="M179.911 67.3899C179.911 67.6443 179.724 67.946 179.363 68.295C178.996 68.6441 178.629 69.1055 178.261 69.6735C177.894 70.2414 177.714 70.91 177.714 71.6672V92.8175C177.714 93.6102 178.044 94.403 178.716 95.1957C179.382 95.9885 179.718 96.5742 179.718 96.9528V97.0948C179.718 97.6983 179.32 98 178.517 98H168.215C167.412 98 167.014 97.6983 167.014 97.0948V96.9528C167.014 96.5742 167.381 95.9885 168.115 95.1957C168.85 94.403 169.217 93.6102 169.217 92.8175V87.0196C167.748 87.9721 166.018 88.4454 164.014 88.4454C160.777 88.4454 158.007 87.3924 155.685 85.2862C153.37 83.1801 152.212 80.2693 152.212 76.5658C152.212 73.1108 153.376 70.2651 155.71 68.0347C158.044 65.7984 160.827 64.6862 164.063 64.6862C166.528 64.6862 168.545 65.3488 170.114 66.6799V66.3959C170.114 65.8872 170.331 65.5085 170.761 65.2541C171.197 64.9997 171.776 64.9228 172.51 65.0175L178.71 65.8753C179.513 65.97 179.911 66.4137 179.911 67.2065V67.3899ZM167.257 86.1145C168.159 86.144 168.912 85.8009 169.535 85.0673C170.151 84.3396 170.462 83.3575 170.462 82.1211V72.951C170.462 71.2413 170.014 69.8214 169.111 68.6973C168.209 67.5733 167.163 67.0112 165.962 67.0112C163.497 67.0112 162.177 68.9576 162.009 72.8564C161.941 74.3472 162.084 76.0748 162.432 78.0389C162.781 80.0031 163.385 81.8312 164.231 83.5291C165.078 85.2211 166.086 86.0849 167.257 86.1145Z" fill="black"/>
<path d="M206.888 82.7423C206.888 83.6001 206.994 84.245 207.212 84.6887C207.43 85.1324 207.679 85.3749 207.965 85.4282C208.245 85.4755 208.5 85.5938 208.718 85.7832C208.936 85.9725 209.042 86.2742 209.042 86.6883C209.042 87.2918 208.619 87.7 207.766 87.9248C206.913 88.1437 205.625 88.2561 203.888 88.2561C202.319 88.2561 201.18 88.049 200.464 87.6408C199.749 87.2267 199.319 86.5168 199.188 85.4992C197.856 87.4633 195.503 88.4454 192.136 88.4454C189.466 88.4454 187.244 87.6112 185.457 85.9488C183.671 84.2864 182.781 81.9968 182.781 79.0802V71.1466C182.781 70.3243 182.444 69.5315 181.778 68.7683C181.112 68.0051 180.776 67.4668 180.776 67.1532V66.9639C180.776 66.3309 181.162 65.9641 181.928 65.8694L189.379 64.9169C190.947 64.7276 191.731 65.0411 191.731 65.8694L191.582 79.938C191.551 81.8371 191.787 83.2096 192.304 84.0497C192.821 84.8898 193.649 85.3099 194.781 85.3099C195.715 85.3099 196.499 84.8721 197.134 84.0024C197.769 83.1327 198.087 81.985 198.087 80.5592V71.1466C198.087 70.3243 197.751 69.5315 197.085 68.7683C196.418 68.0051 196.082 67.4668 196.082 67.1532V66.9639C196.082 66.3309 196.468 65.9641 197.234 65.8694L204.685 64.9169C206.154 64.7276 206.882 65.0411 206.882 65.8694V82.7423H206.888Z" fill="black"/>
<path d="M229.147 80.4586C229.514 80.1096 229.925 80.009 230.373 80.151C230.822 80.293 231.033 80.6184 230.996 81.1271C230.927 82.7127 229.963 84.3278 228.095 85.9725C226.228 87.6231 223.813 88.4454 220.844 88.4454C217.208 88.4454 214.246 87.3391 211.942 85.1205C209.639 82.902 208.494 80.0031 208.494 76.4238C208.494 73.0043 209.702 70.1882 212.117 67.9874C214.532 65.7866 217.426 64.6862 220.794 64.6862C223.825 64.6862 226.178 65.3488 227.846 66.6799C229.514 68.0111 230.348 69.5138 230.348 71.1939C230.348 72.5251 229.701 73.5072 228.4 74.1402L218.447 79.4647C219.817 81.5235 221.715 82.5529 224.149 82.5529C225.182 82.5529 226.159 82.3577 227.074 81.9613C227.989 81.5649 228.68 81.0621 229.147 80.4586ZM219.891 67.0112C218.889 67.0112 218.08 67.4845 217.464 68.437C216.847 69.3895 216.536 70.5787 216.536 72.0044C216.536 73.9035 216.785 75.5719 217.289 76.9977L221.939 74.3354C222.804 73.7675 223.24 72.957 223.24 71.9098C223.24 70.8626 222.966 69.7859 222.412 68.6796C221.871 67.5673 221.024 67.0112 219.891 67.0112Z" fill="black"/>
</svg>
