<svg width="300" height="150" viewBox="0 0 300 150" fill="none" xmlns="http://www.w3.org/2000/svg">
<path d="M211.475 58.9482C211.475 57.726 212.472 56.7211 213.684 56.7211C214.896 56.7211 215.893 57.726 215.893 58.9482C215.893 60.1704 214.896 61.1754 213.684 61.1754C212.472 61.1754 211.475 60.1704 211.475 58.9482ZM215.489 58.9482C215.489 57.9433 214.681 57.1556 213.711 57.1556C212.714 57.1556 211.906 57.9704 211.906 58.9482C211.906 59.9532 212.687 60.768 213.711 60.768C214.681 60.768 215.489 59.9532 215.489 58.9482ZM212.822 60.1433H213.28V59.247H213.765C214.115 59.247 214.142 59.3556 214.142 59.6815C214.142 59.926 214.169 60.0346 214.196 60.1433H214.707V60.0618C214.6 60.0346 214.6 59.9532 214.6 59.6001C214.6 59.1655 214.492 59.1112 214.303 59.0297C214.519 58.9482 214.654 58.7309 214.654 58.4865C214.654 58.2964 214.546 57.8346 213.953 57.8346H212.795V60.1433H212.822ZM213.28 58.8667V58.242H213.872C214.142 58.242 214.196 58.4322 214.196 58.5408C214.196 58.7581 214.088 58.8667 213.818 58.8667H213.28ZM87.6372 64.3531C88.3646 65.1951 108.73 83.0667 109.107 83.3927C109.485 83.7457 110.266 85.1309 110.347 85.2667C110.535 85.5926 110.427 85.7285 110.104 85.5655C109.673 85.321 108.353 84.7235 108.111 84.5334C107.141 83.8001 93.887 73.3976 93.7523 73.3161C93.6176 73.2075 93.5099 73.2889 93.5368 73.5877C93.5638 73.7507 93.5907 74.1581 93.1866 73.805C92.8095 73.4791 87.745 69.8396 86.9368 66.363C86.856 66.0099 87.1254 64.6519 87.2062 64.4346C87.287 64.1902 87.4756 64.1902 87.6372 64.3531V64.3531ZM93.1597 72.7186L89.3613 69.0248C89.2805 68.9433 89.1458 68.9704 89.0919 69.0248L89.0111 69.1062C88.9572 69.1606 88.9572 69.3235 89.0381 69.3778L92.8095 73.0445C92.8634 73.0988 92.9981 73.126 93.0519 73.0717L93.1597 72.963C93.2136 72.9087 93.2405 72.8272 93.1597 72.7186V72.7186Z" fill="black"/>
<path d="M103.961 70.1926C104.284 70.1655 106.628 73.126 106.978 73.8593C107.275 74.4297 107.275 76.4667 107.275 77.363C107.275 78.5037 107.275 80.0519 107.14 80.2692C106.978 80.5408 106.601 81.084 106.871 81.4371L105.928 82.8494C105.928 82.8494 105.685 82.6321 105.577 82.7679C105.47 82.9037 105.497 83.4198 105.524 83.8C105.524 84.1259 105.2 84.2346 104.662 84.2617C104.392 84.2617 104.311 84.3704 104.311 84.805C104.338 85.2667 104.419 85.8914 104.257 86C103.692 86.3803 103.611 86.7605 103.584 88.2C103.584 88.8247 103.395 89.1506 103.422 91.0519C103.422 91.3506 104.446 91.8395 104.742 92.2198C105.093 92.6543 105.039 93.2247 104.688 93.4148C104.311 93.6321 103.853 93.5235 103.288 93.2519C103.018 93.1161 102.453 92.763 102.318 92.7358C102.183 92.7087 101.968 92.7087 101.779 92.6272C101.591 92.5457 101.24 92.4099 101.106 92.4099C100.782 92.4099 100.378 92.7087 99.9472 92.9531C99.5162 93.1975 98.277 94.0938 97.5227 93.9037C97.2534 93.8494 97.1456 93.5778 97.3072 93.2247C97.5497 92.6272 98.277 91.8938 98.6811 91.6222C98.8966 91.4864 99.0044 91.4321 99.1121 91.3235C99.193 91.2148 99.193 90.9975 99.193 90.8346V86.4617C99.193 86.163 99.1121 86.1087 98.8158 86.0815C98.5195 86.0543 98.4117 86.0543 98.3309 85.5926C98.304 85.4296 98.304 85.1309 98.3309 84.9136C98.3578 84.5334 98.277 84.2346 97.7652 84.2346C97.3881 84.2346 97.2534 84.0173 97.2534 83.4469V80.3506C97.2534 80.0247 97.1456 79.9432 96.8223 79.7803C96.4452 79.563 95.5023 79.0469 95.3407 78.9383C95.0983 78.7482 95.0983 78.4494 95.1791 78.042C95.664 75.5976 96.3105 72.7729 96.7685 71.5235C97.0109 70.8988 97.0917 70.9803 97.3611 70.8445C97.873 70.6 98.9505 70.4099 99.166 70.3556C99.3815 70.3013 99.597 70.2198 99.7587 70.2198C100.109 70.2469 100.405 70.7087 100.675 71.2519C100.863 71.6593 100.998 72.2025 101.213 72.2025C101.429 72.2025 101.51 71.9309 101.591 71.5506C101.698 71.1704 101.671 70.926 101.402 70.4371C101.267 70.2198 101.267 70.0297 101.429 70.0297C101.779 70.0568 102.048 70.084 102.318 70.0297C102.506 70.0025 102.641 70.1111 102.506 70.3827C102.372 70.6815 102.129 71.1976 102.156 71.3062C102.237 71.6593 102.399 72.2297 102.614 72.284C102.83 72.3111 103.153 71.605 103.261 71.3062C103.476 70.6815 103.665 70.2198 103.961 70.1926V70.1926Z" fill="black"/>
<path d="M103.073 71.0889C103.019 71.0889 102.939 71.0889 102.885 71.0617C102.669 71.0074 102.373 70.8716 102.104 70.4099L101.565 70.3012C101.43 70.6272 101.242 70.8173 100.999 70.8716C100.622 70.9802 100.245 70.763 100.002 70.5728L100.164 70.3284C100.487 70.5457 100.73 70.6272 100.918 70.5728C101.08 70.5185 101.242 70.3556 101.349 70.0568L101.403 69.9482L102.319 70.1111L102.346 70.1654C102.508 70.4642 102.723 70.6815 102.966 70.7086C103.154 70.763 103.37 70.7086 103.558 70.5457L103.72 70.7901C103.504 71.0074 103.289 71.0889 103.073 71.0889V71.0889Z" fill="black"/>
<path d="M104.042 70.8988C104.042 70.8988 105.227 71.9309 106.062 73.2889C106.412 73.8592 106.789 74.2667 106.816 75.2173C106.816 76.3309 107.49 80.758 105.631 81.2197C105.631 81.2197 105.281 80.8395 105.308 78.9654C105.308 78.0691 105.523 76.0049 105.254 75.9234C105.011 75.8691 104.931 76.6839 104.931 76.9827C104.931 77.3086 104.958 78.3136 104.904 79.2913C104.85 80.0518 105.065 81.3012 105.065 82.9852C105.065 83.3383 104.904 83.7457 104.634 83.7728C102.156 83.9901 99.0041 83.8815 98.6 83.9086C98.0613 83.9358 97.7111 83.9086 97.7111 82.958C97.7111 82.0074 97.7919 77.9333 98.0613 74.837C98.0882 74.3753 97.8996 74.4025 97.7649 74.6741C97.5764 75.1358 97.0107 76.8469 96.9568 77.3086C96.9298 77.5802 97.2531 77.879 97.3609 78.0148C97.5494 78.2592 97.4956 78.558 97.4686 78.8025C97.4417 79.2099 97.28 79.2642 97.1453 79.2099C96.9029 79.1284 96.1756 78.9383 96.0409 78.8025C95.8523 78.6395 95.556 78.558 95.6098 78.1778C96.0678 74.7827 96.849 72.6642 97.0376 71.8494C97.1453 71.3605 97.28 71.3062 97.6841 71.0889C98.1151 70.8716 99.1658 70.7086 99.3813 70.6815C99.6237 70.6271 99.8392 70.6272 100.136 71.0617C100.567 71.7407 101.375 74.1037 101.887 74.0494C102.371 74.0494 103.395 71.958 104.042 70.8988V70.8988ZM99.3543 84.316C99.5968 84.2889 100.432 84.2889 100.567 84.316C100.701 84.316 100.89 84.3975 100.89 84.7234C100.89 85.0494 100.89 85.1309 100.863 85.2123C100.836 85.2938 100.809 85.7012 100.055 85.7012C99.3274 85.7012 99.0041 85.5383 98.9502 85.5383C98.8425 85.4839 98.7886 85.3753 98.7886 85.1309C98.8425 84.6963 98.8156 84.3975 99.3543 84.316ZM102.237 84.1802C102.533 84.1802 103.072 84.2889 103.395 84.316C103.718 84.3432 103.826 84.479 103.853 84.7778C103.88 85.0765 103.853 85.1852 103.853 85.2938C103.853 85.4025 103.772 85.6741 103.234 85.7012C102.695 85.7284 102.533 85.7012 102.21 85.7012C101.994 85.7012 101.644 85.5926 101.644 85.2123V84.6691C101.671 84.4247 101.833 84.1531 102.237 84.1802V84.1802Z" fill="black"/>
<path d="M101.995 86.0543C102.184 86 102.642 86.0272 102.83 86.0272C103.073 86.0272 103.18 86.2445 103.234 86.6519C103.288 87.1951 103.18 87.7655 103.153 88.0642C103.126 88.363 103.099 88.6346 102.615 88.6889C102.399 88.7161 101.941 88.6889 101.86 88.6889C101.779 88.6618 101.51 88.7161 101.456 88.0914C101.429 87.7383 101.483 86.6247 101.51 86.4889C101.537 86.2988 101.645 86.2445 101.699 86.1901C101.779 86.1358 101.887 86.0815 101.995 86.0543V86.0543Z" fill="black"/>
<path d="M102.291 86.9234C102.399 86.8962 102.479 86.8962 102.56 86.9777C102.668 87.0592 102.749 87.1679 102.722 87.3308C102.722 87.4395 102.641 87.6024 102.587 87.6567C102.533 87.7111 102.453 87.7925 102.264 87.7654C102.102 87.7111 102.048 87.5753 102.048 87.4938C102.022 87.4395 102.022 87.3037 102.075 87.2222C102.102 87.1135 102.21 86.9506 102.291 86.9234V86.9234Z" fill="black"/>
<path d="M100.002 86.0543C100.218 86.0543 100.541 86.0271 100.73 86.0271C100.972 86.0271 101.134 86.1358 101.161 86.5432C101.214 87.0864 101.134 87.7383 101.134 88.0642C101.134 88.363 101.161 88.6074 100.595 88.6889C100.379 88.716 99.9753 88.6889 99.8945 88.6889C99.8136 88.6617 99.5443 88.716 99.4904 88.0913C99.4634 87.7383 99.5173 86.6247 99.5443 86.4889C99.5712 86.2988 99.5443 86.1901 99.652 86.1086C99.7059 86.0543 99.8675 86.0543 100.002 86.0543V86.0543Z" fill="black"/>
<path d="M100.325 87.0049C100.379 86.9506 100.46 86.9506 100.567 87.0049C100.648 87.0592 100.675 87.1407 100.675 87.3308C100.675 87.4938 100.648 87.6296 100.594 87.7111C100.541 87.7654 100.487 87.9284 100.271 87.8469C100.136 87.7925 100.11 87.6567 100.083 87.5753C100.056 87.5209 100.083 87.2222 100.136 87.1407C100.19 87.0592 100.244 87.0592 100.325 87.0049V87.0049Z" fill="black"/>
<path d="M101.026 90.3457V89.5037C101.026 89.3408 100.945 89.205 100.703 89.205H99.9482C99.598 89.205 99.5711 89.4494 99.5711 89.7753L99.598 90.6445C99.598 90.9161 99.9752 90.9432 100.164 90.9432L100.676 90.9161C101.107 90.9161 101.026 90.6716 101.026 90.3457ZM102.992 90.5358L103.019 89.5309C103.019 89.3679 102.831 89.1507 102.588 89.1507L101.726 89.1778C101.565 89.1778 101.376 89.5581 101.376 89.7753V90.4815C101.376 90.6988 101.78 90.9432 102.023 90.9432H102.427C102.669 90.9432 102.992 90.726 102.992 90.5358V90.5358ZM102.292 91.1605C102.48 91.1605 102.831 91.242 102.885 91.2963C103.019 91.4593 102.965 91.7037 103.073 91.8124C103.181 91.921 103.45 91.8667 103.531 91.921C103.585 91.9753 103.531 92.0025 103.693 92.1111C103.8 92.1655 103.854 92.1111 104.07 92.1926C104.528 92.3827 104.689 92.6815 104.609 92.8445C104.582 92.8988 104.285 93.0346 104.097 93.0074C103.854 92.9803 103.531 92.8988 103.127 92.6272C102.75 92.3827 102.615 92.3013 102.238 92.1926C101.753 92.0568 101.538 92.0297 101.538 91.4864C101.565 91.2963 101.807 91.1605 102.292 91.1605V91.1605ZM99.8135 91.2692H100.191C100.325 91.2692 100.541 91.242 100.649 91.2692C100.837 91.2963 100.972 91.4593 100.945 91.7037C100.918 91.9753 100.864 92.084 100.649 92.1926C100.352 92.3556 100.218 92.3284 100.056 92.3827C99.7058 92.5185 99.6519 92.7358 99.2747 93.0346C99.0054 93.2519 98.1703 93.5778 97.9817 93.5506C97.7931 93.5235 97.7392 93.442 97.7931 93.1976C97.847 92.9531 98.0356 92.6272 98.2511 92.4914C98.6821 92.2198 98.736 92.3284 98.8976 92.2469C99.0054 92.1926 99.167 91.9482 99.1939 91.9482C99.2478 91.9482 99.2747 91.9482 99.3286 91.8667C99.4094 91.7581 99.4094 91.7309 99.4633 91.5679C99.5172 91.405 99.598 91.2963 99.8135 91.2692Z" fill="black"/>
<path d="M102.318 61.7457C102.318 63.0222 101.294 64.0543 100.028 64.0543C98.7621 64.0543 97.7384 63.0222 97.7384 61.7457C97.7384 60.4692 98.7621 59.4371 100.028 59.4371C101.294 59.4642 102.318 60.4692 102.318 61.7457ZM102.049 56.5852C98.5465 56.5852 95.691 59.4642 95.691 62.9951C95.691 66.526 98.5465 69.405 102.049 69.405C105.551 69.405 108.406 66.526 108.406 62.9951C108.406 59.4371 105.551 56.5852 102.049 56.5852V56.5852Z" fill="black"/>
<path d="M184.509 93.4691H122.873C118.698 93.4691 115.734 92.2469 114.118 89.8296C112.232 87.0321 112.34 82.7136 114.441 77.3358C117.027 70.7629 119.721 65.521 124.382 61.3382C129.662 56.6123 132.813 56.6395 135.346 56.6395H199.864C204.39 56.6395 208.107 59.6271 208.35 63.4568C208.484 65.6839 207.865 70.1926 206.222 74.8642C204.713 79.1012 201.777 85.0765 196.281 89.5852C191.567 93.4691 187.149 93.4691 184.509 93.4691V93.4691ZM135.076 58.4321C132.679 58.4321 130.147 58.595 125.567 62.6963C121.149 66.6345 118.59 71.6864 116.085 78.042C114.199 82.8222 114.01 86.5703 115.573 88.879C116.839 90.7802 119.29 91.7308 122.873 91.7308H184.509C187.068 91.7308 190.947 91.7308 195.177 88.2543C204.578 80.5407 206.841 67.5037 206.599 63.6197C206.437 60.7679 203.42 58.4592 199.891 58.4592H135.373C135.292 58.4321 135.184 58.4321 135.076 58.4321V58.4321Z" fill="black"/>
<path d="M120.044 86.3259C120.044 86.3259 131.196 63.8913 131.25 63.8913H150.538C152.02 63.9185 154.148 64.3259 155.064 65.6839C156.007 67.0962 156.034 68.8345 155.28 70.3555C154.014 72.8543 151.104 74.0493 148.383 74.7012C148.329 74.7012 148.06 74.7555 148.06 74.7555C151.454 76.5753 151.616 79.3185 150.485 81.3012C148.464 84.9679 145.016 86.3259 140.409 86.3259H120.044V86.3259ZM134.213 82.2246C137.123 82.2246 138.551 81.6814 139.628 80.7037C140.625 79.8074 141.245 78.5037 141.191 77.553C141.137 76.5209 140.571 75.8963 139.009 75.8963H133.836L129.688 82.2246H134.213V82.2246ZM146.498 69.4321C146.794 68.5358 146.201 67.3407 144.289 67.3407H139.871L136.746 72.0123C141.406 72.0395 145.447 72.6098 146.498 69.4321ZM194.664 80.8666C189.384 86.4345 180.818 88.9333 174.029 85.0222C171.874 83.7728 170.311 81.8716 169.934 79.3728C169.584 77.037 169.988 75.0543 171.066 72.6913C172.009 70.6271 173.787 68.5901 175.861 67.0148C179.605 64.1629 184.158 63.158 188.63 63.4296C190.489 63.5654 192.509 64.1358 193.613 65.6839L194.529 64.0271H203.581L194.934 73.6691H190.489C190.489 73.6691 191.566 71.5234 191.458 70.274C191.297 68.4814 189.627 67.2864 187.822 67.6938C186.071 68.074 184.589 68.8617 183.35 70.1111C180.898 72.637 179.04 75.8963 179.201 79.0197C179.228 79.7259 179.525 80.758 180.063 81.2197C183.862 84.3703 189.276 81.4913 191.997 78.1777L194.664 80.8666V80.8666ZM161.61 68.916H168.022L161.745 86.3259H151.347L161.61 68.916V68.916ZM166.971 62.995C165.166 62.9135 163.577 64.0543 163.388 65.5753C163.2 67.0962 164.493 68.3728 166.298 68.4543C168.102 68.5358 169.692 67.395 169.88 65.874C170.069 64.3802 168.749 63.0765 166.971 62.995Z" fill="black"/>
</svg>
