<svg width="300" height="150" viewBox="0 0 300 150" fill="none" xmlns="http://www.w3.org/2000/svg">
<path fill-rule="evenodd" clip-rule="evenodd" d="M119.262 81.7506C118.341 81.7506 117.495 81.566 116.724 81.1969C115.953 80.8277 115.293 80.3223 114.743 79.6807C114.194 79.0391 113.769 78.2964 113.468 77.4527C113.166 76.6089 113.016 75.7124 113.016 74.7632C113.016 73.7612 113.175 72.8295 113.494 71.9682C113.813 71.1068 114.256 70.351 114.823 69.7006C115.39 69.0502 116.068 68.5404 116.857 68.1712C117.645 67.8021 118.518 67.6175 119.475 67.6175C120.574 67.6175 121.531 67.8592 122.346 68.3426C123.161 68.826 123.826 69.472 124.339 70.2806V67.8548H127.45V81.0123C127.45 82.0319 127.259 82.9459 126.878 83.7545C126.497 84.5631 125.961 85.2487 125.27 85.8112C124.579 86.3737 123.764 86.8044 122.824 87.1032C121.885 87.4021 120.857 87.5515 119.741 87.5515C118.199 87.5515 116.91 87.301 115.873 86.8C114.836 86.299 113.946 85.5915 113.202 84.6774L115.142 82.8053C115.674 83.4557 116.343 83.9655 117.149 84.3346C117.955 84.7038 118.819 84.8883 119.741 84.8883C120.29 84.8883 120.817 84.8136 121.322 84.6642C121.827 84.5148 122.27 84.2819 122.652 83.9655C123.033 83.6491 123.334 83.2448 123.555 82.7526C123.777 82.2604 123.888 81.6803 123.888 81.0123V79.272C123.427 80.0631 122.78 80.6739 121.947 81.1046C121.114 81.5353 120.219 81.7506 119.262 81.7506ZM120.485 78.9292C120.875 78.9292 121.247 78.8677 121.602 78.7447C121.956 78.6216 122.279 78.4546 122.572 78.2437C122.864 78.0327 123.126 77.7867 123.356 77.5054C123.586 77.2241 123.764 76.9253 123.888 76.6089V73.3129C123.569 72.5043 123.072 71.8539 122.399 71.3617C121.726 70.8695 121.017 70.6234 120.272 70.6234C119.723 70.6234 119.222 70.7421 118.771 70.9794C118.319 71.2167 117.933 71.5331 117.614 71.9286C117.295 72.3241 117.052 72.7768 116.883 73.2866C116.715 73.7963 116.631 74.3237 116.631 74.8686C116.631 75.4311 116.728 75.9585 116.923 76.4507C117.118 76.9429 117.388 77.3736 117.734 77.7427C118.079 78.1119 118.487 78.4019 118.957 78.6128C119.426 78.8238 119.936 78.9292 120.485 78.9292ZM137.125 81.9352C136.009 81.9352 134.999 81.7462 134.095 81.3683C133.191 80.9903 132.42 80.4762 131.782 79.8258C131.144 79.1753 130.653 78.4195 130.307 77.5581C129.961 76.6968 129.789 75.7915 129.789 74.8423C129.789 73.8579 129.957 72.9306 130.294 72.0605C130.63 71.1903 131.118 70.4257 131.756 69.7665C132.394 69.1073 133.169 68.5843 134.082 68.1976C134.994 67.8109 136.018 67.6175 137.152 67.6175C138.286 67.6175 139.301 67.8109 140.195 68.1976C141.09 68.5843 141.852 69.1029 142.481 69.7533C143.111 70.4037 143.589 71.1596 143.917 72.0209C144.245 72.8823 144.409 73.7788 144.409 74.7104C144.409 74.9389 144.404 75.1587 144.395 75.3696C144.386 75.5806 144.364 75.7563 144.329 75.897H133.563C133.616 76.4419 133.749 76.9253 133.962 77.3472C134.175 77.7691 134.449 78.1294 134.786 78.4283C135.123 78.7271 135.504 78.9556 135.929 79.1138C136.354 79.272 136.797 79.3511 137.258 79.3511C137.967 79.3511 138.636 79.1797 139.265 78.837C139.894 78.4942 140.324 78.0415 140.554 77.479L143.611 78.3228C143.097 79.3775 142.278 80.2432 141.152 80.92C140.027 81.5968 138.685 81.9352 137.125 81.9352ZM140.74 73.603C140.652 72.5658 140.266 71.7353 139.584 71.1112C138.902 70.4872 138.073 70.1752 137.099 70.1752C136.62 70.1752 136.173 70.2587 135.756 70.4257C135.34 70.5927 134.972 70.8256 134.653 71.1244C134.334 71.4232 134.073 71.7836 133.869 72.2055C133.665 72.6274 133.546 73.0932 133.51 73.603H140.74ZM153.074 81.9352C151.958 81.9352 150.948 81.7462 150.044 81.3683C149.14 80.9903 148.369 80.4762 147.731 79.8258C147.093 79.1753 146.602 78.4195 146.256 77.5581C145.911 76.6968 145.738 75.7915 145.738 74.8423C145.738 73.8579 145.906 72.9306 146.243 72.0605C146.579 71.1903 147.067 70.4257 147.705 69.7665C148.343 69.1073 149.118 68.5843 150.031 68.1976C150.943 67.8109 151.967 67.6175 153.101 67.6175C154.235 67.6175 155.25 67.8109 156.144 68.1976C157.039 68.5843 157.801 69.1029 158.431 69.7533C159.06 70.4037 159.538 71.1596 159.866 72.0209C160.194 72.8823 160.358 73.7788 160.358 74.7104C160.358 74.9389 160.353 75.1587 160.344 75.3696C160.336 75.5806 160.313 75.7563 160.278 75.897H149.512C149.566 76.4419 149.698 76.9253 149.911 77.3472C150.124 77.7691 150.398 78.1294 150.735 78.4283C151.072 78.7271 151.453 78.9556 151.878 79.1138C152.303 79.272 152.746 79.3511 153.207 79.3511C153.916 79.3511 154.585 79.1797 155.214 78.837C155.843 78.4942 156.273 78.0415 156.503 77.479L159.56 78.3228C159.046 79.3775 158.227 80.2432 157.101 80.92C155.976 81.5968 154.634 81.9352 153.074 81.9352ZM156.689 73.603C156.601 72.5658 156.215 71.7353 155.533 71.1112C154.851 70.4872 154.022 70.1752 153.048 70.1752C152.569 70.1752 152.122 70.2587 151.705 70.4257C151.289 70.5927 150.921 70.8256 150.602 71.1244C150.283 71.4232 150.022 71.7836 149.818 72.2055C149.614 72.6274 149.495 73.0932 149.459 73.603H156.689ZM172.054 81.6715L168.013 75.686L166.099 77.5581V81.6715H162.537V62.4231H166.099V74.104L171.681 67.8812H175.483L170.273 73.7348L175.855 81.6715H172.054ZM189.332 81.6715H187.524V73.9985C187.524 72.434 187.254 71.265 186.713 70.4916C186.173 69.7181 185.38 69.3314 184.334 69.3314C183.82 69.3314 183.311 69.4325 182.806 69.6346C182.301 69.8368 181.827 70.1137 181.384 70.4652C180.941 70.8168 180.555 71.2299 180.228 71.7045C179.9 72.1791 179.656 72.6977 179.497 73.2602V81.6715H177.689V62.4231H179.497V71.0453C180.064 70.0082 180.834 69.1908 181.809 68.5931C182.784 67.9954 183.829 67.6966 184.946 67.6966C185.743 67.6966 186.421 67.8416 186.979 68.1317C187.538 68.4217 187.989 68.826 188.335 69.3446C188.681 69.8632 188.933 70.4872 189.093 71.2167C189.252 71.9462 189.332 72.7504 189.332 73.6293V81.6715ZM197.359 81.9352C195.906 81.9352 194.808 81.4386 194.063 80.4454C193.319 79.4522 192.947 77.9712 192.947 76.0024V67.9339H194.754V75.686C194.754 78.7974 195.827 80.3531 197.971 80.3531C198.502 80.3531 199.025 80.2652 199.539 80.0894C200.053 79.9136 200.527 79.6588 200.961 79.3248C201.395 78.9908 201.785 78.5953 202.131 78.1382C202.476 77.6812 202.756 77.1626 202.968 76.5825V67.9339H204.776V79.3511C204.776 79.8433 204.997 80.0894 205.44 80.0894V81.6715C205.086 81.7242 204.838 81.7506 204.696 81.7506C204.288 81.7506 203.938 81.6275 203.646 81.3814C203.354 81.1353 203.207 80.8277 203.207 80.4586V78.5601C202.587 79.6324 201.763 80.463 200.735 81.0518C199.707 81.6407 198.582 81.9352 197.359 81.9352ZM220.512 81.6715H218.705V73.9985C218.705 72.3637 218.465 71.1772 217.987 70.4389C217.508 69.7006 216.764 69.3314 215.754 69.3314C215.222 69.3314 214.691 69.4281 214.159 69.6215C213.627 69.8148 213.131 70.0873 212.671 70.4389C212.21 70.7904 211.807 71.2079 211.461 71.6913C211.115 72.1747 210.854 72.6977 210.677 73.2602V81.6715H208.869V67.9339H210.517V71.0453C210.801 70.5531 211.151 70.1005 211.567 69.6874C211.984 69.2743 212.449 68.9183 212.963 68.6195C213.477 68.3206 214.022 68.0921 214.598 67.9339C215.174 67.7757 215.772 67.6966 216.392 67.6966C217.172 67.6966 217.823 67.8372 218.346 68.1185C218.869 68.3998 219.289 68.7953 219.608 69.305C219.927 69.8148 220.158 70.4389 220.299 71.1772C220.441 71.9154 220.512 72.7328 220.512 73.6293V81.6715ZM230.852 81.0123C230.746 81.065 230.591 81.1353 230.387 81.2232C230.183 81.3111 229.949 81.399 229.683 81.4869C229.417 81.5748 229.116 81.6539 228.779 81.7242C228.442 81.7945 228.088 81.8297 227.716 81.8297C227.326 81.8297 226.954 81.777 226.599 81.6715C226.245 81.566 225.935 81.4034 225.669 81.1837C225.403 80.964 225.191 80.6871 225.031 80.3531C224.872 80.0191 224.792 79.6324 224.792 79.1929V69.3578H222.878V67.9339H224.792V63.2932H226.599V67.9339H229.789V69.3578H226.599V78.6919C226.635 79.2017 226.812 79.5753 227.131 79.8126C227.45 80.0499 227.831 80.1685 228.274 80.1685C228.788 80.1685 229.24 80.085 229.63 79.918C230.02 79.751 230.268 79.6324 230.374 79.5621L230.852 81.0123ZM239.04 81.9352C238.029 81.9352 237.099 81.7462 236.249 81.3683C235.398 80.9903 234.662 80.4718 234.042 79.8126C233.422 79.1534 232.939 78.3931 232.594 77.5318C232.248 76.6704 232.075 75.7476 232.075 74.7632C232.075 73.7963 232.248 72.8867 232.594 72.0341C232.939 71.1815 233.422 70.4345 234.042 69.7928C234.662 69.1512 235.393 68.6415 236.235 68.2635C237.077 67.8856 238.003 67.6966 239.013 67.6966C240.023 67.6966 240.949 67.8856 241.791 68.2635C242.633 68.6415 243.355 69.1556 243.957 69.806C244.56 70.4564 245.029 71.2035 245.366 72.0473C245.703 72.8911 245.871 73.7875 245.871 74.7368C245.871 74.8774 245.867 75.018 245.858 75.1587C245.849 75.2993 245.836 75.396 245.818 75.4487H233.989C234.042 76.187 234.215 76.8682 234.507 77.4922C234.8 78.1162 235.172 78.6568 235.624 79.1138C236.076 79.5709 236.599 79.9268 237.192 80.1817C237.786 80.4366 238.419 80.564 239.093 80.564C239.554 80.564 240.005 80.5025 240.448 80.3795C240.891 80.2564 241.299 80.0894 241.671 79.8785C242.043 79.6675 242.376 79.4083 242.668 79.1006C242.96 78.793 243.186 78.4546 243.346 78.0855L244.914 78.5074C244.702 79.0171 244.4 79.4786 244.01 79.8917C243.621 80.3048 243.169 80.6651 242.655 80.9727C242.141 81.2804 241.574 81.5177 240.953 81.6847C240.333 81.8517 239.695 81.9352 239.04 81.9352ZM244.143 74.0776C244.09 73.3393 243.917 72.6669 243.625 72.0605C243.333 71.454 242.96 70.9311 242.509 70.4916C242.057 70.0521 241.529 69.7093 240.927 69.4633C240.324 69.2172 239.686 69.0941 239.013 69.0941C238.34 69.0941 237.702 69.2172 237.099 69.4633C236.497 69.7093 235.969 70.0521 235.518 70.4916C235.066 70.9311 234.702 71.4584 234.428 72.0737C234.153 72.6889 233.989 73.3569 233.936 74.0776H244.143ZM255.494 69.516C254.271 69.5511 253.208 69.8851 252.304 70.518C251.4 71.1508 250.762 72.0209 250.39 73.1284V81.6715H248.582V67.9339H250.284V71.2299C250.762 70.2631 251.391 69.4589 252.171 68.8172C252.951 68.1756 253.792 67.8548 254.696 67.8548H255.148C255.29 67.8548 255.405 67.8636 255.494 67.8812V69.516Z" fill="black"/>
<path fill-rule="evenodd" clip-rule="evenodd" d="M98.7163 75.699C98.6846 71.0707 94.7671 67.3339 89.9995 67.3851C85.3243 67.4348 81.5296 71.1934 81.5408 75.7629C81.5521 80.4151 85.4322 84.2174 90.1533 84.2021C94.8642 84.1869 98.748 80.3304 98.7163 75.699ZM59.0366 67.3849C54.329 67.347 50.3899 71.1259 50.3716 75.6978C50.3528 80.2444 54.3214 84.1221 58.9746 84.1039C63.5658 84.0858 67.4536 80.3387 67.5456 75.8435C67.6386 71.2953 63.7426 67.4227 59.0366 67.3849ZM72.1452 68.9864C73.8157 72.3131 74.34 75.7816 73.398 79.428C71.6577 86.1639 65.343 90.4754 57.7916 90.0526C51.3276 89.6908 45.5106 84.3199 44.7691 77.7504C44.1301 72.0874 44.6441 66.3824 44.5047 60.6979C44.4876 59.9895 45.4467 59.775 45.4467 59.775L50.6414 59.7692C50.6414 59.7692 51.6815 60.0341 51.6329 60.7884C51.5789 61.6216 51.6203 62.4616 51.6203 63.4942C53.5984 62.6262 55.3701 61.8977 57.3181 61.6631C60.3678 61.296 63.2565 61.7617 65.9563 63.1659C66.7392 63.5731 67.2662 63.5076 68.0167 63.1413C72.4698 60.9673 76.9733 60.9557 81.4165 63.1485C82.2628 63.566 82.8326 63.4674 83.6168 63.0856C93.6836 58.1866 105.252 65.4858 104.843 76.452C104.635 82.025 100.972 87.1778 95.5767 89.0949C89.5916 91.2221 84.102 90.2109 79.6219 85.6433C75.3653 81.3041 74.5442 76.1125 76.6442 70.4669C77.3097 68.6777 77.3047 68.5979 75.3648 68.4752C74.2874 68.407 73.2114 68.3994 72.1452 68.9864Z" fill="black"/>
<path fill-rule="evenodd" clip-rule="evenodd" d="M54.7279 71.4069C53.1634 72.9362 51.9945 75.5017 53.6336 77.833C54.4835 73.1572 57.529 71.1678 62.186 70.9851C60.4976 69.1579 56.8219 69.3597 54.7279 71.4069Z" fill="black"/>
<path fill-rule="evenodd" clip-rule="evenodd" d="M85.9938 71.4069C84.4293 72.9362 83.2604 75.5017 84.8995 77.833C85.7494 73.1572 88.7949 71.1678 93.4519 70.9851C91.7634 69.1579 88.0882 69.3597 85.9938 71.4069Z" fill="black"/>
</svg>
