<svg width="300" height="150" viewBox="0 0 300 150" fill="none" xmlns="http://www.w3.org/2000/svg">
<g clip-path="url(#clip0_94_585)">
<path d="M112.276 95.3866V96.5946C112.276 96.939 111.738 96.9322 111.738 96.6028V92.2819C111.738 92.1247 111.865 92.0189 112.015 92.0189H113.638C114.932 92.0189 115.537 92.8812 115.537 93.7448C115.537 94.6084 114.924 95.388 113.615 95.388H112.278L112.276 95.3866ZM112.276 94.8986H113.614C114.609 94.8986 115.02 94.3129 115.005 93.7435C114.997 93.1279 114.511 92.5056 113.644 92.5056H112.275V94.8986H112.276Z" fill="black"/>
<path d="M118.259 95.1236V96.5784C118.259 96.9227 117.713 96.9227 117.713 96.5851V92.2792C117.713 92.122 117.825 92.0162 117.99 92.0162H119.762C121.055 92.0162 121.713 92.751 121.713 93.6296C121.713 94.3874 121.302 94.9352 120.382 95.0924L121.593 96.4048C121.877 96.6895 121.466 97.0203 121.219 96.7654L119.708 95.1223H118.258L118.259 95.1236ZM118.259 94.6505H119.77C120.75 94.6505 121.175 94.1922 121.16 93.6296C121.152 93.014 120.637 92.5192 119.77 92.5192H118.259V94.6491V94.6505Z" fill="black"/>
<path d="M124.511 96.3018H127.464C127.777 96.3018 127.823 96.7966 127.464 96.7966H124.316C124.107 96.7966 123.971 96.6461 123.971 96.4672V92.3484C123.971 92.1762 124.107 92.0257 124.316 92.0257H127.472C127.793 92.0257 127.778 92.5056 127.465 92.5056H124.512V94.1936H127.323C127.622 94.1936 127.637 94.6735 127.323 94.6735H124.512V96.3018H124.511Z" fill="black"/>
<path d="M129.589 92.3267C129.447 92.004 129.964 91.7939 130.112 92.1165L132.034 95.9574L133.911 92.1314C134.03 91.8237 134.54 91.9891 134.427 92.3267L132.273 96.7004C132.169 96.8956 131.899 96.9403 131.772 96.6773L129.588 92.3267H129.589Z" fill="black"/>
<path d="M136.507 92.1233C136.507 91.7478 137.068 91.7559 137.068 92.1233V96.6095C137.068 96.9553 136.507 96.9702 136.507 96.6095V92.1233Z" fill="black"/>
<path d="M139.775 96.7966C139.589 96.7966 139.43 96.6461 139.43 96.474V92.3402C139.43 92.1681 139.587 92.0257 139.775 92.0257H141.405C142.893 92.0257 143.633 93.2188 143.633 94.4105C143.633 95.6022 142.893 96.7953 141.405 96.7953H139.775V96.7966ZM139.97 96.3086H141.405C142.527 96.3086 143.087 95.3555 143.087 94.4105C143.087 93.4655 142.527 92.5056 141.405 92.5056H139.97V96.3086Z" fill="black"/>
<path d="M146.505 96.3018H149.458C149.772 96.3018 149.818 96.7966 149.458 96.7966H146.311C146.101 96.7966 145.966 96.6461 145.966 96.4672V92.3484C145.966 92.1762 146.101 92.0257 146.311 92.0257H149.466C149.788 92.0257 149.773 92.5056 149.459 92.5056H146.507V94.1936H149.318C149.616 94.1936 149.631 94.6735 149.318 94.6735H146.507V96.3018H146.505ZM147.97 91.2231L148.449 91.5986C148.681 91.7789 149.024 91.5241 148.777 91.3139L148.178 90.8191C148.036 90.7065 147.909 90.7065 147.751 90.8191L147.161 91.3139C146.928 91.5308 147.235 91.7871 147.467 91.6068L147.969 91.2244L147.97 91.2231Z" fill="black"/>
<path d="M155.464 92.206C155.464 91.8915 156.031 91.8766 156.031 92.206V96.5119C156.031 96.8875 155.515 96.9241 155.358 96.6624L152.562 92.9042L152.622 93.94V96.5878C152.622 96.9553 152.054 96.9634 152.054 96.5878V92.2901C152.054 91.9145 152.473 91.8549 152.66 92.1328L155.538 95.9954L155.464 94.8633V92.2074V92.206Z" fill="black"/>
<path d="M161.88 96.6095C161.522 96.7749 161.118 96.8793 160.759 96.8793C159.48 96.8793 158.329 95.8286 158.329 94.3441C158.329 93.1144 159.203 92.1382 160.355 91.9593C161.229 91.84 161.993 92.0569 162.583 92.6792C162.807 92.9341 162.403 93.2418 162.194 93.0168C161.686 92.4772 161.095 92.3945 160.437 92.469C159.517 92.6114 158.867 93.2649 158.867 94.3522C158.867 95.4395 159.741 96.3628 160.774 96.3628C161.051 96.3628 161.357 96.2882 161.641 96.1459C161.874 96.0266 162.098 95.8462 162.255 95.6429C162.426 95.388 162.883 95.6659 162.689 95.9425C162.487 96.2272 162.202 96.4523 161.88 96.6095Z" fill="black"/>
<path d="M164.887 92.1233C164.887 91.7478 165.448 91.7559 165.448 92.1233V96.6095C165.448 96.9553 164.887 96.9702 164.887 96.6095V92.1233Z" fill="black"/>
<path d="M168.477 95.5371L167.871 96.7221C167.736 97 167.243 96.8048 167.378 96.5051L169.636 92.042C169.681 91.9444 169.786 91.8996 169.884 91.8996C169.981 91.8996 170.07 91.9444 170.123 92.042L172.373 96.4821C172.568 96.8048 172.013 96.9919 171.872 96.7004L171.288 95.5371H168.477ZM169.882 92.7022L168.701 95.0653H171.057L169.882 92.7022Z" fill="black"/>
<path d="M181.153 96.6095C180.795 96.7749 180.391 96.8793 180.031 96.8793C178.753 96.8793 177.602 95.8286 177.602 94.3441C177.602 93.1144 178.476 92.1382 179.627 91.9593C180.502 91.84 181.265 92.0569 181.856 92.6792C182.08 92.9341 181.676 93.2418 181.467 93.0168C180.959 92.4772 180.368 92.3945 179.71 92.469C178.79 92.6114 178.139 93.2649 178.139 94.3522C178.139 95.4395 179.014 96.3628 180.046 96.3628C180.323 96.3628 180.63 96.2882 180.914 96.1459C181.146 96.0266 181.371 95.8462 181.528 95.6429C181.699 95.388 182.156 95.6659 181.961 95.9425C181.76 96.2272 181.475 96.4523 181.153 96.6095Z" fill="black"/>
<path d="M183.921 94.3291C183.921 93.151 184.714 92.1464 185.902 91.9593C186.179 91.9213 186.433 91.9294 186.695 91.9593C187.847 92.1396 188.736 93.0995 188.736 94.3291C188.736 95.8896 187.614 96.8793 186.344 96.8793C184.998 96.8793 183.921 95.9195 183.921 94.3291ZM184.482 94.3522C184.482 95.5819 185.29 96.3628 186.344 96.3628C187.398 96.3628 188.183 95.6131 188.183 94.3522C188.183 93.3842 187.548 92.6114 186.628 92.4623C186.403 92.4324 186.186 92.4324 185.978 92.4623C185.074 92.6046 184.483 93.3327 184.483 94.3522H184.482Z" fill="black"/>
<path d="M190.838 94.3291C190.838 93.151 191.631 92.1464 192.819 91.9593C193.096 91.9213 193.35 91.9294 193.612 91.9593C194.763 92.1396 195.653 93.0995 195.653 94.3291C195.653 95.8896 194.531 96.8793 193.261 96.8793C191.915 96.8793 190.838 95.9195 190.838 94.3291ZM191.398 94.3522C191.398 95.5819 192.207 96.3628 193.261 96.3628C194.315 96.3628 195.1 95.6131 195.1 94.3522C195.1 93.3842 194.465 92.6114 193.544 92.4623C193.32 92.4324 193.103 92.4324 192.894 92.4623C191.99 92.6046 191.4 93.3327 191.4 94.3522H191.398Z" fill="black"/>
<path d="M198.585 95.3866V96.5946C198.585 96.939 198.047 96.9322 198.047 96.6028V92.2819C198.047 92.1247 198.174 92.0189 198.324 92.0189H199.948C201.241 92.0189 201.846 92.8812 201.846 93.7448C201.846 94.6084 201.233 95.388 199.925 95.388H198.587L198.585 95.3866ZM198.585 94.8986H199.923C200.918 94.8986 201.329 94.3129 201.314 93.7435C201.306 93.1279 200.821 92.5056 199.953 92.5056H198.584V94.8986H198.585Z" fill="black"/>
<path d="M204.718 96.3018H207.671C207.984 96.3018 208.03 96.7966 207.671 96.7966H204.523C204.314 96.7966 204.179 96.6461 204.179 96.4672V92.3484C204.179 92.1762 204.314 92.0257 204.523 92.0257H207.679C208.001 92.0257 207.986 92.5056 207.672 92.5056H204.719V94.1936H207.53C207.829 94.1936 207.844 94.6735 207.53 94.6735H204.719V96.3018H204.718Z" fill="black"/>
<path d="M210.851 95.1236V96.5784C210.851 96.9227 210.305 96.9227 210.305 96.5851V92.2792C210.305 92.122 210.417 92.0162 210.582 92.0162H212.354C213.647 92.0162 214.305 92.751 214.305 93.6296C214.305 94.3874 213.894 94.9352 212.974 95.0924L214.185 96.4048C214.469 96.6895 214.058 97.0203 213.81 96.7654L212.3 95.1223H210.85L210.851 95.1236ZM210.851 94.6505H212.362C213.342 94.6505 213.767 94.1922 213.752 93.6296C213.744 93.014 213.229 92.5192 212.362 92.5192H210.851V94.6491V94.6505Z" fill="black"/>
<path d="M217.109 95.5371L216.504 96.7221C216.369 97 215.875 96.8048 216.011 96.5051L218.269 92.042C218.313 91.9444 218.419 91.8996 218.516 91.8996C218.613 91.8996 218.703 91.9444 218.755 92.042L221.006 96.4821C221.2 96.8048 220.646 96.9919 220.504 96.7004L219.92 95.5371H217.109ZM218.515 92.7022L217.334 95.0653H219.689L218.515 92.7022Z" fill="black"/>
<path d="M225.979 92.0189C226.345 92.0189 226.345 92.5368 225.979 92.5368H224.311C224.311 93.8872 224.319 95.2592 224.319 96.6095C224.319 96.7966 224.162 96.8875 224.035 96.8875C223.908 96.8875 223.766 96.798 223.766 96.6095V92.5368H222.107C221.756 92.5368 221.756 92.0189 222.107 92.0189H225.98H225.979Z" fill="black"/>
<path d="M228.194 92.1233C228.194 91.7478 228.755 91.7559 228.755 92.1233V96.6095C228.755 96.9553 228.194 96.9702 228.194 96.6095V92.1233Z" fill="black"/>
<path d="M230.729 92.3267C230.587 92.004 231.103 91.7939 231.252 92.1165L233.174 95.9574L235.051 92.1314C235.17 91.8237 235.679 91.9891 235.567 92.3267L233.413 96.7004C233.309 96.8956 233.039 96.9403 232.912 96.6773L230.728 92.3267H230.729Z" fill="black"/>
<path d="M237.698 95.5371L237.093 96.7221C236.958 97 236.465 96.8048 236.6 96.5051L238.858 92.042C238.903 91.9444 239.008 91.8996 239.105 91.8996C239.203 91.8996 239.292 91.9444 239.344 92.042L241.595 96.4821C241.789 96.8048 241.235 96.9919 241.093 96.7004L240.509 95.5371H237.698ZM239.104 92.7022L237.923 95.0653H240.278L239.104 92.7022Z" fill="black"/>
<path d="M121.877 86.2447C119.694 86.2447 117.733 85.7729 116.047 84.8415C114.349 83.9047 113.015 82.5665 112.082 80.8637C111.153 79.173 110.683 77.2058 110.683 75.0163C110.683 72.8267 111.153 70.8554 112.08 69.1539C113.014 67.4403 114.348 66.0967 116.047 65.1585C117.733 64.2271 119.694 63.7553 121.875 63.7553C124.057 63.7553 125.981 64.2271 127.658 65.1585C129.345 66.0967 130.668 67.4348 131.591 69.1377C132.507 70.8283 132.972 72.8064 132.972 75.0149C132.972 77.5177 132.383 79.6923 131.222 81.4873L131.649 81.9347C132.116 82.4038 132.357 82.9543 132.357 83.563C132.357 84.1717 132.122 84.7493 131.657 85.2157C131.192 85.6821 130.649 85.918 130.041 85.918C129.362 85.918 128.777 85.6617 128.3 85.1547L127.878 84.7127C126.186 85.7282 124.17 86.242 121.877 86.242V86.2447ZM121.877 68.2063C120.647 68.2063 119.545 68.491 118.602 69.0523C117.664 69.6108 116.93 70.408 116.421 71.4194C115.902 72.4498 115.64 73.6591 115.64 75.0149C115.64 76.3707 115.902 77.5732 116.42 78.5914C116.929 79.5947 117.663 80.3865 118.602 80.945C119.545 81.5063 120.647 81.791 121.877 81.791C122.862 81.791 123.769 81.6039 124.58 81.2338L123.746 80.3539C123.29 79.817 123.059 79.2774 123.059 78.75C123.059 78.1332 123.289 77.6058 123.742 77.1814C124.184 76.7679 124.734 76.5578 125.376 76.5578C126.084 76.5578 126.716 76.8181 127.255 77.3306L127.273 77.3482L127.631 77.7197C127.908 76.871 128.049 75.9639 128.049 75.0136C128.049 73.6591 127.785 72.4498 127.268 71.4181C126.757 70.404 126.032 69.6068 125.115 69.0482C124.194 68.4883 123.105 68.2049 121.877 68.2049V68.2063Z" fill="black"/>
<path d="M145.931 86.2447C143.901 86.2447 142.089 85.8231 140.544 84.9906C138.987 84.1528 137.761 82.9583 136.902 81.4399C136.046 79.9296 135.613 78.1738 135.613 76.2188V66.2729C135.613 65.5788 135.88 65.0067 136.386 64.6189C136.853 64.261 137.415 64.0793 138.057 64.0793C138.699 64.0793 139.295 64.2596 139.772 64.6135C140.293 65.0026 140.568 65.5869 140.568 66.3055V76.2188C140.568 77.8796 141.045 79.1798 142.028 80.1939C143.005 81.204 144.271 81.6961 145.898 81.6961C147.526 81.6961 148.838 81.204 149.836 80.1912C150.838 79.1771 151.324 77.8769 151.324 76.2202V66.3719C151.324 65.6615 151.593 65.0704 152.104 64.6609C152.584 64.2759 153.154 64.0807 153.803 64.0807C154.452 64.0807 155.015 64.2691 155.483 64.642C155.984 65.0419 156.248 65.6276 156.248 66.338V76.2188C156.248 78.1738 155.814 79.9296 154.958 81.4399C154.099 82.9583 152.873 84.1528 151.316 84.9906C149.772 85.8231 147.959 86.2447 145.929 86.2447H145.931Z" fill="black"/>
<path d="M177.453 86.2447C177.038 86.2447 176.63 86.1417 176.237 85.937C175.816 85.7187 175.499 85.3987 175.293 84.9866L173.184 80.7837H163.449L161.339 84.9893C161.141 85.415 160.832 85.7444 160.429 85.9532C160.057 86.1457 159.648 86.2447 159.213 86.2447C158.587 86.2447 158.011 86.04 157.5 85.6346C156.957 85.2035 156.669 84.6449 156.669 84.0186C156.669 83.7677 156.737 83.483 156.875 83.1495L156.894 83.1088L166.12 64.9877C166.325 64.5226 166.628 64.1918 167.019 64.0047C167.369 63.8366 167.793 63.7539 168.316 63.7539C169.596 63.7539 170.196 64.4196 170.474 64.9782L179.631 82.9936C179.85 83.3596 179.963 83.7474 179.963 84.1474C179.963 84.7846 179.68 85.3255 179.145 85.7133C178.66 86.0644 178.089 86.2434 177.453 86.2434V86.2447ZM165.606 76.4954H171.027L168.316 71.0818L165.606 76.4954Z" fill="black"/>
<path d="M198.004 86.2257C197.551 86.2257 197.103 86.1173 196.672 85.9044C196.237 85.6902 195.88 85.4014 195.611 85.0449L186.843 73.5602V83.9033C186.843 84.8456 186.414 85.3797 186.056 85.6617C185.578 86.0373 185.009 86.2271 184.366 86.2271C183.722 86.2271 183.12 86.0373 182.642 85.6617C182.283 85.3797 181.856 84.8469 181.856 83.9033V66.6675C181.856 65.8621 182.115 65.2182 182.629 64.7531C183.124 64.3071 183.718 64.0807 184.398 64.0807C184.879 64.0807 185.317 64.1864 185.702 64.3966C186.071 64.5986 186.414 64.8968 186.72 65.2859L195.774 77.2546L195.754 76.8845V66.2729C195.754 65.5815 196.045 65.008 196.595 64.6148C197.091 64.261 197.662 64.082 198.297 64.082C198.933 64.082 199.496 64.2583 199.961 64.6053C200.473 64.989 200.744 65.5652 200.744 66.2729V83.6742C200.744 84.4592 200.446 85.1167 199.883 85.575C199.35 86.0088 198.718 86.2284 198.006 86.2284L198.004 86.2257Z" fill="black"/>
<path d="M212.367 86.2447C211.74 86.2447 211.179 86.0495 210.701 85.6645C210.191 85.2564 209.922 84.6639 209.922 83.9535V68.5628H204.495C203.756 68.5628 203.167 68.3405 202.744 67.9026C202.326 67.4687 202.115 66.9427 202.115 66.3367C202.115 65.7306 202.325 65.206 202.737 64.7626C203.161 64.3084 203.752 64.078 204.495 64.078H220.273C221.006 64.078 221.607 64.3017 222.06 64.7409C222.518 65.1883 222.75 65.7239 222.75 66.3353C222.75 66.9468 222.518 67.4511 222.06 67.8971C221.607 68.3378 221.006 68.5615 220.272 68.5615H214.813L214.844 83.9508C214.844 84.668 214.559 85.2631 214.02 85.6726C213.521 86.0508 212.966 86.242 212.366 86.242L212.367 86.2447Z" fill="black"/>
<path d="M239.489 86.2447C239.074 86.2447 238.666 86.1417 238.273 85.937C237.852 85.7187 237.535 85.3987 237.329 84.9866L235.22 80.7837H225.486L223.375 84.9893C223.177 85.415 222.868 85.7444 222.465 85.9532C222.093 86.1457 221.684 86.2447 221.249 86.2447C220.623 86.2447 220.047 86.04 219.537 85.6346C218.993 85.2035 218.705 84.6449 218.705 84.0186C218.705 83.7677 218.773 83.483 218.911 83.1495L218.93 83.1088L228.156 64.9877C228.361 64.5226 228.664 64.1918 229.055 64.0047C229.405 63.8366 229.829 63.7539 230.352 63.7539C231.632 63.7539 232.232 64.4196 232.51 64.9782L241.668 82.9936C241.886 83.3596 241.999 83.7474 241.999 84.1474C241.999 84.7846 241.716 85.3255 241.181 85.7133C240.696 86.0644 240.126 86.2434 239.489 86.2434V86.2447ZM227.642 76.4954H233.063L230.352 71.0818L227.642 76.4954Z" fill="black"/>
<path d="M79.8026 86.4183C73.4563 86.4183 68.2925 81.2379 68.2925 74.8712C68.2925 70.8351 70.3061 67.3087 73.4009 65.2466C73.382 65.2548 73.3617 65.2602 73.3428 65.2683C73.2279 65.3185 73.1185 65.3754 73.0049 65.4283C72.6874 65.5761 72.3738 65.732 72.067 65.8987C71.9224 65.9774 71.7792 66.0601 71.6373 66.1428C71.3494 66.3109 71.067 66.4899 70.7899 66.6742C70.6724 66.7529 70.5534 66.8274 70.4386 66.9088C70.0642 67.1732 69.6993 67.4525 69.348 67.7467C69.2655 67.8158 69.1885 67.8917 69.1074 67.9622C68.8331 68.2008 68.5668 68.4476 68.3101 68.7038C68.1979 68.815 68.0884 68.9302 67.979 69.0455C67.7492 69.2882 67.5262 69.539 67.3114 69.7952C67.2208 69.9023 67.1276 70.0081 67.0397 70.1179C66.7505 70.4799 66.4735 70.8514 66.2154 71.2378C66.1721 71.3028 66.1343 71.3706 66.091 71.4371C65.8761 71.7679 65.6734 72.1054 65.4829 72.4512C65.4099 72.584 65.3396 72.7196 65.2707 72.8538C65.1139 73.1575 64.9666 73.468 64.8274 73.7825C64.7707 73.9113 64.7112 74.0388 64.6585 74.1703C64.4788 74.6082 64.3139 75.0529 64.172 75.5084C64.1585 75.5504 64.1504 75.5938 64.1369 75.6359C64.0112 76.0534 63.9044 76.4778 63.8112 76.9076C63.7801 77.0526 63.7544 77.2004 63.726 77.3468C63.6611 77.6966 63.6071 78.0491 63.5652 78.4057C63.5476 78.5521 63.5287 78.6972 63.5152 78.8436C63.4706 79.3344 63.4395 79.8306 63.4395 80.3322C63.4395 89.382 70.7778 96.7451 79.7999 96.7451H80.0959C84.0678 96.6936 87.8585 95.5615 91.1668 93.5238C91.7101 93.1903 92.2344 92.8297 92.7466 92.4501C92.9021 92.3335 93.0629 92.225 93.2156 92.1057C93.8535 91.6054 94.4697 91.078 95.0481 90.5113L95.2157 90.3364C96.1928 89.3589 96.732 88.0601 96.732 86.6786C96.732 83.8315 94.4224 81.5158 91.5844 81.5158C91.2411 81.5158 90.9033 81.5497 90.5749 81.6148C90.4195 81.646 90.2735 81.707 90.1222 81.7517C89.9546 81.8019 89.7816 81.8385 89.6194 81.9049C89.4505 81.9754 89.2964 82.0744 89.1356 82.1625C89.0032 82.2357 88.864 82.294 88.7369 82.3781C88.5802 82.4838 88.441 82.6167 88.295 82.7401C88.1734 82.8431 88.0423 82.9299 87.9288 83.0451C85.7557 85.2211 82.869 86.4196 79.7999 86.4196L79.8026 86.4183Z" fill="black"/>
<path d="M71.144 94.9487C66.1802 91.9782 62.8503 86.5376 62.8503 80.3322C62.8503 71.113 70.3237 63.4855 79.5094 63.3282H79.804C83.8245 63.3282 87.3396 65.347 89.3951 68.4489C89.3856 68.4259 89.3775 68.4001 89.3681 68.3771C89.3289 68.2863 89.2829 68.1995 89.241 68.1086C89.0829 67.7616 88.9126 67.4213 88.7315 67.0864C88.6626 66.9603 88.591 66.8342 88.5194 66.7095C88.3383 66.395 88.145 66.0886 87.9437 65.7876C87.8788 65.69 87.8166 65.591 87.7504 65.4947C87.4801 65.1083 87.195 64.7328 86.8936 64.3722C86.8409 64.3098 86.7841 64.2501 86.7301 64.1878C86.476 63.8922 86.2111 63.6048 85.9354 63.3282C85.8341 63.2265 85.73 63.1262 85.6273 63.0272C85.3732 62.7832 85.1097 62.5487 84.8408 62.3209C84.7435 62.2395 84.6489 62.1541 84.5489 62.0741C84.184 61.7799 83.8069 61.4993 83.4177 61.2363C83.3637 61.1997 83.3055 61.1685 83.2515 61.1319C82.9123 60.9095 82.5636 60.6994 82.2082 60.5028C82.0812 60.4323 81.9514 60.3659 81.8217 60.2981C81.5136 60.1381 81.1987 59.9876 80.8797 59.8466C80.754 59.791 80.6311 59.7341 80.504 59.6812C80.0662 59.5009 79.6202 59.3341 79.1648 59.1918C79.1256 59.1796 79.0864 59.1714 79.0472 59.1592C78.6282 59.0318 78.2025 58.9247 77.7701 58.8311C77.6268 58.8 77.4809 58.7742 77.3363 58.7471C76.9876 58.682 76.6349 58.6278 76.2781 58.5858C76.1335 58.5681 75.9889 58.5491 75.8429 58.5356C75.3537 58.4908 74.8591 58.4597 74.3591 58.4597C67.083 58.4597 60.9029 63.2577 58.7852 69.863C58.7717 69.905 58.7528 69.9444 58.7406 69.9864C58.623 70.3646 58.5325 70.7551 58.4419 71.1442C58.4095 71.2838 58.3635 71.4194 58.3352 71.5604C58.2689 71.8831 58.2311 72.2153 58.1838 72.5447C58.1527 72.7603 58.1081 72.9704 58.0851 73.1887C58.0568 73.4693 58.0554 73.7595 58.0406 74.0442C58.027 74.3208 57.9987 74.5933 57.9987 74.8739C57.9987 83.8504 63.4165 91.581 71.1427 94.9474L71.144 94.9487Z" fill="black"/>
<path d="M100.332 88.1835L98.4105 86.28L98.5294 86.0793C100.542 82.7021 101.607 78.8273 101.607 74.8739C101.608 62.813 91.8263 53 79.8026 53C70.8656 53 63.1665 58.4258 59.8028 66.1658C62.7678 61.1997 68.1844 57.8658 74.3604 57.8658C76.6578 57.8658 78.8566 58.3349 80.8635 59.1809C86.8868 61.7216 91.1925 67.6667 91.3101 74.577C91.3141 74.6719 91.3141 74.7722 91.3141 74.8739L91.306 75.1708C91.2492 77.4228 90.5519 79.5676 89.3032 81.3924C90.0154 81.082 90.7897 80.9193 91.5884 80.9193C91.9844 80.9193 92.3709 80.9599 92.7439 81.0359C95.3576 81.5741 97.3293 83.8992 97.3293 86.6758C97.3293 87.0365 97.2969 87.3917 97.232 87.7388C97.0401 88.78 96.5644 89.7439 95.8441 90.5411L95.8482 90.5452L95.6414 90.7594C94.4102 91.9945 93.0358 93.0845 91.5533 94.0024L93.0493 95.4843C94.0237 96.4618 95.3157 96.9986 96.6914 96.9986C98.0672 96.9986 99.3592 96.4618 100.331 95.4856C102.338 93.4723 102.338 90.1954 100.331 88.1821L100.332 88.1835Z" fill="black"/>
</g>
<defs>
<clipPath id="clip0_94_585">
<rect width="184" height="44" fill="white" transform="translate(58 53)"/>
</clipPath>
</defs>
</svg>
