<svg width="300" height="150" viewBox="0 0 300 150" fill="none" xmlns="http://www.w3.org/2000/svg">
<g clip-path="url(#clip0_94_619)">
<path d="M63.0812 64.4484C63.0812 59.1987 67.8182 55.5246 74.768 55.5246C82.8512 55.5246 88.2052 60.5634 88.2052 68.2802H84.3444C84.2923 60.932 80.946 56.1024 74.6654 56.1024C69.9806 56.1024 66.6344 58.7804 66.6344 62.6122C66.6344 72.5338 89.2882 73.8453 89.2882 85.6562C89.2882 91.1682 84.1914 95 76.5202 95C67.766 95 62 89.9595 62 82.2427H65.913C65.913 89.4862 70.2379 94.4736 76.7757 94.4736C81.9751 94.4736 85.7351 91.4819 85.7351 87.3878C85.7351 77.4662 63.0812 76.0501 63.0812 64.4484Z" fill="black"/>
<path d="M112.921 55.5246C124.555 55.5246 132.279 63.4505 132.279 75.2614C132.279 87.0723 124.555 94.9982 112.921 94.9982C101.286 94.9982 93.561 87.1237 93.561 75.2614C93.561 63.3991 101.284 55.5246 112.921 55.5246ZM112.818 94.4736C121.983 94.4736 128.006 86.81 128.006 75.2082C128.006 63.6065 122.033 56.1024 112.921 56.1024C103.808 56.1024 97.8859 63.766 97.8859 75.3146C97.8859 86.8632 103.807 94.4754 112.816 94.4754L112.818 94.4736Z" fill="black"/>
<path d="M170.737 94.4754H164.25L164.302 94.2663C164.971 92.3769 165.331 89.8567 165.331 87.9673V57.6248L152.408 94.4754H151.791L138.971 57.6248V87.9656C138.971 89.8549 139.383 92.3752 140 94.2645L140.052 94.4736H137.375L137.428 94.2645C138.097 92.3752 138.457 89.8549 138.457 87.9656V62.6122C138.457 60.6697 138.097 58.1495 137.428 56.3133L137.375 56.1024H143.039L154.109 87.9656L165.281 56.1024H170.737L170.685 56.3133C170.016 58.1512 169.656 60.6697 169.656 62.6122V87.9656C169.656 89.8549 170.016 92.3752 170.685 94.2645L170.737 94.4736V94.4754Z" fill="black"/>
<path d="M192.545 55.5246C201.566 55.5246 207.553 61.6693 207.553 70.827C207.553 79.9847 201.565 86.1294 192.545 86.1294C183.524 86.1294 177.536 80.0255 177.536 70.827C177.536 61.6286 183.523 55.5246 192.545 55.5246ZM192.465 85.7236C199.569 85.7236 204.24 79.7809 204.24 70.7863C204.24 61.7916 199.609 55.9712 192.545 55.9712C185.48 55.9712 180.889 61.9139 180.889 70.8678C180.889 79.8217 185.48 85.7236 192.465 85.7236Z" fill="black"/>
<path d="M211.795 63.9237C211.795 58.6741 216.532 55 223.482 55C231.565 55 236.919 60.0388 236.919 67.7555H233.058C233.006 60.4074 229.66 55.5778 223.379 55.5778C218.694 55.5778 215.348 58.2558 215.348 62.0876C215.348 72.0092 238.002 73.3207 238.002 85.1316C238.002 90.6436 232.905 94.4754 225.234 94.4754C216.481 94.4754 210.715 89.4366 210.715 81.7198H214.628C214.628 88.9634 218.953 93.9508 225.491 93.9508C230.69 93.9508 234.45 90.9591 234.45 86.8649C234.45 76.9434 211.797 75.5273 211.797 63.9255L211.795 63.9237Z" fill="black"/>
<path d="M102.38 59.406C98.6804 63.5976 96.6152 69.6413 98.2632 75.031C100.65 82.0743 111.613 80.7964 117.532 80.2541C122.217 79.6994 126.855 78.262 131.031 75.9668C135.258 73.7283 139.321 70.8802 143.948 69.1061C157.966 63.564 174.473 68.904 182.906 81.5479L182.431 81.8758C174.412 69.3684 157.802 64.2871 144.353 70.1553C139.943 71.9968 136.08 74.9778 131.825 77.452C127.493 79.9032 123.085 82.193 118.376 83.9016C111.026 86.3935 100.593 87.9372 95.4714 80.4668C90.8979 73.163 95.2767 62.6601 102.023 58.9505L102.378 59.4096L102.38 59.406Z" fill="black"/>
</g>
<defs>
<clipPath id="clip0_94_619">
<rect width="176" height="40" fill="white" transform="translate(62 55)"/>
</clipPath>
</defs>
</svg>
