<svg width="300" height="150" viewBox="0 0 300 150" fill="none" xmlns="http://www.w3.org/2000/svg">
<g clip-path="url(#clip0_94_507)">
<path d="M81.9094 68.3082H91.7275V78.0919H98.4533V52.7257H91.7275V62.1465H81.9094V52.7257H75.1836V78.0919H81.9094V68.3082Z" fill="black"/>
<path d="M130.443 65.4088C130.443 58.1617 124.626 52 116.263 52C107.901 52 102.084 58.1617 102.084 65.4088C102.084 72.6558 107.901 78.8176 116.263 78.8176C124.626 78.8176 130.443 72.6558 130.443 65.4088ZM109.174 65.4088C109.174 61.0612 112.082 58.1617 116.263 58.1617C120.444 58.1617 123.353 61.0612 123.353 65.4088C123.353 69.7564 120.444 72.6558 116.263 72.6558C112.082 72.6558 109.174 69.7564 109.174 65.4088Z" fill="black"/>
<path d="M140.619 59.6099C140.619 58.7044 141.527 57.7989 144.072 57.7989C147.708 57.7989 148.253 59.9727 148.253 59.9727H155.159C155.159 59.9727 153.89 52 144.072 52C137.346 52 133.529 55.8049 133.529 59.9727C133.529 69.2137 148.617 66.8569 148.617 70.8449C148.617 71.9333 147.525 73.0187 144.8 73.0187C140.438 73.0187 139.53 69.9394 139.53 69.9394H132.624C132.624 69.9394 134.44 78.8176 144.803 78.8176C152.073 78.8176 155.71 74.8328 155.71 70.482C155.71 61.241 140.622 63.5978 140.622 59.6099H140.619Z" fill="black"/>
<path d="M165.158 78.0919H171.883V58.8842H179.882V52.7257H157.159V58.8842H165.158V78.0919Z" fill="black"/>
<path d="M202.237 71.9302H189.329V68.1252H199.692V62.6923H189.329V58.8842H202.237V52.7257H182.604V78.0919H202.237V71.9302Z" fill="black"/>
<path d="M212.776 71.9302V52.7257H206.054V78.0919H224.956V71.9302H212.776Z" fill="black"/>
<path d="M79.6179 98L90.5596 92.4567L85.9417 89.655L75 95.2015L79.6179 98Z" fill="black"/>
<path d="M150.165 92.2326C150.269 92.6018 150.453 92.9331 150.722 93.2202C151.196 93.7155 151.959 94.1888 153.365 94.1888C155.428 94.1888 156.254 93.3653 156.254 92.5418C156.254 91.2262 154.251 90.917 152.228 90.4848C150.206 90.0525 148.202 89.2102 148.202 86.8818C148.202 84.9257 149.956 83.1778 153.26 83.1778C155.574 83.1778 156.916 84.1054 157.679 85.0298C158.134 85.5851 158.441 86.2034 158.628 86.8818H156.15C156.045 86.6136 155.881 86.3454 155.634 86.1214C155.222 85.7302 154.498 85.339 153.26 85.339C151.38 85.339 150.681 85.9573 150.681 86.7808C150.681 87.7084 151.817 88.1406 153.219 88.4277C155.593 88.901 158.733 89.4783 158.733 92.4409C158.733 94.4979 156.894 96.3499 153.365 96.3499C150.744 96.3499 149.275 95.3403 148.493 94.2929C148.038 93.6966 147.731 92.9962 147.585 92.2358H150.165V92.2326Z" fill="black"/>
<path d="M160.897 83.5879H163.271V90.7908C163.271 92.8479 164.49 94.0846 166.471 94.0846C168.453 94.0846 169.671 92.851 169.671 90.7908V83.5879H172.045V90.7908C172.045 94.1856 169.877 96.3468 166.471 96.3468C163.066 96.3468 160.897 94.1856 160.897 90.7908V83.5879Z" fill="black"/>
<path d="M174.833 83.5879H178.549L181.955 90.8949H182.265L185.674 83.5879H189.39V95.9366H187.016V88.0144L187.221 86.2634H187.016L183.816 93.0561H180.407L177.207 86.2634H177.001L177.207 88.0144V95.9366H174.833V83.5879Z" fill="black"/>
<path d="M192.276 83.5879H195.995L199.401 90.8949H199.711L203.117 83.5879H206.832V95.9366H204.459V88.0144L204.664 86.2634H204.459L201.259 93.0561H197.853L194.653 86.2634H194.444L194.653 88.0144V95.9366H192.276V83.5879Z" fill="black"/>
<path d="M212.096 83.5879H209.722V95.9366H212.096V83.5879Z" fill="black"/>
<path d="M213.748 83.5879H225V85.8532H220.559V95.9366H218.186V85.8532H213.748V83.5879Z" fill="black"/>
<path d="M121.483 89.3995H118.713V86.4117H121.483C122.448 86.4117 123.176 87.0521 123.176 87.904C123.176 88.7558 122.448 89.3963 121.483 89.3963M124.901 91.69C125.312 91.4944 125.698 91.2073 126.047 90.8444C126.822 90.0462 127.215 89.0556 127.215 87.904C127.215 85.1118 125.018 83.162 121.872 83.162H114.773V96.3436H118.713V92.545H121.125L123.274 96.3436H127.246L124.679 91.7941L124.898 91.69H124.901Z" fill="black"/>
<path d="M133.181 93.0025V86.5095H134.678C136.748 86.5095 138.033 87.7525 138.033 89.756C138.033 91.7594 136.748 93.0025 134.678 93.0025H133.181ZM142.17 89.756C142.17 85.9353 139.061 83.1652 134.776 83.1652H129.24V96.3468H134.776C139.061 96.3468 142.17 93.5767 142.17 89.756Z" fill="black"/>
<path d="M101.992 81.5182L91.0502 87.0616L95.6649 89.8632L106.607 84.3199L101.992 81.5182Z" fill="black"/>
<path d="M86.4196 84.6512L95.5035 90.1346L95.6554 90.2261L95.8136 90.1472L106.246 84.8626L105.831 89.4878L95.1933 94.8671L86.1095 89.39L85.9575 89.2985L85.7993 89.3774L75.3672 94.662L75.7818 90.0368L86.4196 84.6512ZM86.4323 84.2915L75.4811 89.8348L75 95.2015L85.9417 89.6582L95.1743 95.2267L106.126 89.6866L106.607 84.3199L95.6649 89.8632L86.4323 84.2883V84.2915Z" fill="black"/>
<path d="M77.6112 83.3576V83.3292C77.6112 83.3292 78.1619 83.1652 78.1619 82.5058C78.1619 81.9568 77.722 81.5151 77.032 81.5151H75.1836V85.361H77.0035C77.8581 85.361 78.3265 84.8941 78.3265 84.2631C78.3265 83.4649 77.6112 83.3576 77.6112 83.3576ZM75.6805 81.9852H77.0035C77.4181 81.9852 77.665 82.2313 77.665 82.5626C77.665 82.8938 77.4181 83.1399 77.0035 83.1399H75.6805V81.9852ZM77.0035 84.8973H75.6805V83.6069H77.0035C77.5542 83.6069 77.8296 83.8813 77.8296 84.2663C77.8296 84.6228 77.5542 84.8973 77.0035 84.8973Z" fill="black"/>
<path d="M80.1749 83.386H80.118L78.988 81.5182H78.4088L79.8996 83.9634V85.3642H80.3965V83.9634L81.8841 81.5182H81.3049L80.1749 83.386Z" fill="black"/>
</g>
<defs>
<clipPath id="clip0_94_507">
<rect width="150" height="46" fill="white" transform="translate(75 52)"/>
</clipPath>
</defs>
</svg>
