<svg width="300" height="150" viewBox="0 0 300 150" fill="none" xmlns="http://www.w3.org/2000/svg">
<g clip-path="url(#clip0_94_578)">
<path d="M149.649 57.8495L150.471 58.6789V60.7947L149.649 61.624H142.166V66.2231H149.084L149.906 67.0525V69.1682L149.084 69.9976H142.166V74.5381H149.649L150.471 75.3675V77.4833L149.649 78.3127H139.245L138.423 77.4833V58.6789L139.245 57.8495H149.649ZM174.658 57.8495L173.836 58.6789V77.4849L174.658 78.3143H185.062L185.884 77.4849V75.3692L185.062 74.5398H177.578V69.9993H184.496L185.318 69.1699V67.0541L184.496 66.2247H177.578V61.6257H185.062L185.884 60.7963V58.6805L185.062 57.8511H174.658V57.8495ZM238.178 61.6175L239 60.7881V58.6724L238.178 57.843H227.774L226.952 58.6724V77.4784L227.774 78.3078H238.178L239 77.4784V75.3627L238.178 74.5333H230.694V69.9928H237.612L238.434 69.1634V67.0476L237.612 66.2182H230.694V61.6192H238.178V61.6175ZM166.481 57.8495L165.714 58.6236L162.548 74.5398H161.723L158.59 58.6252L157.821 57.8511H155.594L154.783 58.6691L158.479 77.4361L159.351 78.3159H164.916L165.788 77.4361L169.521 58.6691L168.71 57.8511H166.481V57.8495ZM215.27 61.4679C217.286 61.4679 217.969 61.8973 218.198 62.1526C218.442 62.4242 218.567 62.9299 218.598 63.7479L218.608 64.0211L219.418 64.8392H221.523L222.349 64.0081L222.341 63.7089C222.31 62.577 222.136 60.9215 220.977 59.6254C219.799 58.3081 217.986 57.695 215.27 57.695C212.554 57.695 210.768 58.3032 209.587 59.6075C208.35 60.9735 208.192 62.7494 208.192 64.1447C208.192 66.2475 209.093 67.8624 210.795 68.817C212.069 69.5309 213.566 69.7683 215.013 69.9993C218.181 70.505 218.605 70.8644 218.605 72.024C218.605 73.0713 218.476 73.7039 218.198 74.0145C217.969 74.2698 217.284 74.6991 215.27 74.6991C213.141 74.6991 212.491 74.3625 212.293 74.1625C212.078 73.9462 211.964 73.3786 211.94 72.4256L211.933 72.1476L211.121 71.3279H209.016L208.192 72.1589L208.199 72.4549C208.23 73.925 208.425 75.5936 209.646 76.8279C210.786 77.9809 212.468 78.4721 215.271 78.4721C218.074 78.4721 219.8 77.859 220.979 76.5417C222.186 75.1919 222.349 73.499 222.349 72.0223C222.349 69.9554 221.456 68.3681 219.767 67.4298C218.511 66.7337 217.031 66.4979 215.602 66.2686C212.369 65.7531 211.937 65.3742 211.937 64.1431C211.937 63.0828 212.066 62.4697 212.352 62.151C212.583 61.8956 213.27 61.4679 215.271 61.4679H215.27ZM132.486 68.5844C131.755 69.3162 130.838 69.783 129.844 69.9407L133.638 77.7598L133.087 78.3159H130.155L129.349 77.5028L125.706 69.9976H124.939L123.313 69.9993V77.4866L122.491 78.3159H120.394L119.572 77.4866V58.6789L120.394 57.8495H129.085C131.744 57.8495 133.907 60.0319 133.907 62.7153V65.1319C133.907 66.4378 133.401 67.664 132.484 68.5844H132.486ZM130.168 62.7169C130.168 62.1152 129.683 61.624 129.085 61.624H123.313V66.2247H129.08C129.373 66.2247 129.644 66.1125 129.849 65.9076C130.055 65.7011 130.168 65.4262 130.168 65.1335V62.7169ZM203.309 68.5844C202.579 69.3162 201.662 69.783 200.667 69.9407L204.461 77.7598L203.91 78.3159H200.978L200.172 77.5028L196.53 69.9976H195.762L194.136 69.9993V77.4866L193.314 78.3159H191.217L190.395 77.4866V58.6789L191.217 57.8495H199.908C202.567 57.8495 204.73 60.0319 204.73 62.7153V65.1319C204.73 66.4378 204.224 67.664 203.307 68.5844H203.309ZM200.991 62.7169C200.991 62.1152 200.506 61.624 199.908 61.624H194.136V66.2247H199.903C200.196 66.2247 200.467 66.1125 200.672 65.9076C200.878 65.7011 200.991 65.4262 200.991 65.1335V62.7169Z" fill="black"/>
<path d="M146.834 85.865V87.179H145.444V92.2985H144.005V87.179H142.629V85.865H146.834ZM154.193 89.7908V92.2985H152.754V85.865H155.658C156.567 85.865 157.022 86.2017 157.022 86.8749V88.7825C157.022 89.3403 156.717 89.6656 156.108 89.7615L157.421 92.3001H155.869L154.669 89.7924H154.193V89.7908ZM154.193 87.0798V88.6069H155.233C155.366 88.6069 155.458 88.5874 155.508 88.55C155.558 88.5126 155.584 88.4394 155.584 88.3304V87.3547C155.584 87.2457 155.558 87.1725 155.508 87.1351C155.458 87.0977 155.366 87.0798 155.233 87.0798H154.193ZM166.634 92.3001L166.335 90.965H164.607L164.331 92.3001H162.892L164.481 85.8666H166.422L168.087 92.3001H166.634ZM164.794 89.8428H166.133L165.445 87.1156L164.794 89.8428ZM174.118 85.8666H175.557V92.3001H174.118V85.8666ZM185.144 85.8666H186.458V92.3001H185.105L183.416 88.4719V92.3001H182.09V85.8666H183.479L185.144 89.6331V85.8666ZM193.005 85.8666H194.444V92.3001H193.005V85.8666ZM204.031 85.8666H205.344V92.3001H203.992L202.303 88.4719V92.3001H200.977V85.8666H202.366L204.031 89.6331V85.8666ZM215.947 87.8442H214.495V87.3156C214.495 87.2067 214.469 87.1335 214.419 87.0961C214.369 87.0587 214.277 87.0408 214.143 87.0408H213.555C213.421 87.0408 213.329 87.0603 213.279 87.0961C213.229 87.1335 213.203 87.2067 213.203 87.3156V90.8625C213.203 90.9715 213.229 91.0446 213.279 91.0821C213.329 91.1195 213.421 91.1373 213.555 91.1373H214.143C214.277 91.1373 214.369 91.1195 214.419 91.0821C214.469 91.0446 214.495 90.9715 214.495 90.8625V90.0689H213.869V88.9256H215.947V91.3016C215.947 91.9749 215.492 92.3115 214.583 92.3115H213.118C212.209 92.3115 211.755 91.9749 211.755 91.3016V86.8766C211.755 86.2033 212.209 85.8666 213.118 85.8666H214.583C215.492 85.8666 215.947 86.2033 215.947 86.8766V87.8458V87.8442Z" fill="black"/>
<path d="M61 64L66.451 53H78.7167L84.1677 64H71.9021L66.451 75L61 64ZM99.1573 75L93.7062 86H81.4406L86.8916 97H99.1573L104.608 86L99.1573 75ZM89.6171 69.5H77.3515L73.9442 76.3758L75.9879 80.5016H88.2536L91.6609 73.6258L89.6171 69.5ZM66.4526 97H80.0802L74.6292 86H69.1782L65.0891 94.25L66.4526 97ZM99.1556 53H85.528L90.9791 64H96.4301L100.519 55.75L99.1556 53Z" fill="black"/>
</g>
<defs>
<clipPath id="clip0_94_578">
<rect width="178" height="44" fill="white" transform="translate(61 53)"/>
</clipPath>
</defs>
</svg>
