<svg width="300" height="150" viewBox="0 0 300 150" fill="none" xmlns="http://www.w3.org/2000/svg">
<g clip-path="url(#clip0_94_549)">
<path d="M139.834 49L130.236 54.8449V57.9075L139.834 54.6076V49ZM202.834 59.5898C200.108 59.5898 197.904 60.5172 195.81 62.5015V60.1721H189.68V84.932H195.985V71.7972C195.985 68.3679 197.512 65.5209 201.766 65.5209C205.692 65.5209 206.805 68.3679 206.805 71.7972V84.932H213.044V69.8561C213 64.2053 209.597 59.5898 202.834 59.5898ZM168.193 69.5541C169.088 66.4915 171.444 65.0465 174.323 65.0465C177.312 65.0465 179.515 66.3405 180.3 69.5541H168.193V69.5541ZM174.279 59.5898C166.819 59.5898 161.736 65.3484 161.736 72.4011C161.736 79.5185 166.884 85.2124 174.279 85.2124C180.257 85.2124 184.358 81.9341 185.928 77.1676H179.428C178.533 78.6773 177.115 79.4969 174.65 79.4969C170.92 79.4969 168.782 77.6205 168.15 74.4716H186.626C186.67 73.8461 186.735 73.3716 186.735 72.7677C186.714 64.2053 181.151 59.5898 174.279 59.5898ZM150.022 95.2414C146.662 95.2414 144.416 92.8042 144.416 89.5906C144.416 86.377 146.684 83.9399 150.022 83.9399C153.338 83.9399 155.628 86.377 155.628 89.5906C155.65 92.8042 153.338 95.2414 150.022 95.2414ZM152.072 73.2854L160.951 65.4994V60.1721H139.638V65.9307H151.92L144.045 72.7246L149.302 78.742C142.474 79.1518 138.286 83.9399 138.286 89.6338C138.286 96.061 143.587 101 150.087 101C156.544 101 161.954 96.061 161.954 89.6338C161.954 86.2045 161.016 83.6595 158.857 81.1792L152.072 73.2854ZM93.1298 62.6093V60.1721H87V84.932H93.3044V71.8619C93.3044 68.4326 94.8314 65.7798 99.4342 65.7798H101.332V59.8486H99.9578C97.231 59.8486 95.2458 60.6251 93.1298 62.6093ZM130.411 84.9104H136.759V59.2878L130.411 60.8407V84.9104ZM114.399 79.1949C110.56 79.1949 107.898 76.4343 107.898 72.4011C107.898 68.3463 110.581 65.5425 114.399 65.5425C118.238 65.5425 120.9 68.3463 120.9 72.4011C120.9 76.4558 118.216 79.1949 114.399 79.1949ZM114.508 59.5898C107.222 59.5898 101.594 65.3053 101.594 72.4011C101.594 79.8204 106.524 85.2124 113.832 85.2124C116.297 85.2124 119.089 84.2202 121.074 82.1497V84.9104H127.204V71.8403C127.204 65.0465 121.838 59.5898 114.508 59.5898Z" fill="black"/>
</g>
<defs>
<clipPath id="clip0_94_549">
<rect width="126" height="52" fill="white" transform="translate(87 49)"/>
</clipPath>
</defs>
</svg>
