<svg width="300" height="150" viewBox="0 0 300 150" fill="none" xmlns="http://www.w3.org/2000/svg">
<g clip-path="url(#clip0_94_635)">
<path d="M142.265 78.9353C142.426 79.5269 142.713 80.0498 143.129 80.5094C143.864 81.2964 145.047 82.0505 147.222 82.0505C150.42 82.0505 151.699 80.7378 151.699 79.4251C151.699 77.3254 148.598 76.8328 145.465 76.1448C142.332 75.4568 139.229 74.1111 139.229 70.4043C139.229 67.2891 141.946 64.4986 147.061 64.4986C150.642 64.4986 152.721 65.9737 153.904 67.4515C154.607 68.3376 155.087 69.32 155.374 70.4043H151.538C151.377 69.9777 151.123 69.5512 150.739 69.1907C150.101 68.5687 148.982 67.944 147.061 67.944C144.151 67.944 143.065 68.9292 143.065 70.2392C143.065 71.7142 144.824 72.4049 146.997 72.8645C150.675 73.6185 155.535 74.5377 155.535 79.26C155.535 82.5403 152.689 85.4931 147.222 85.4931C143.161 85.4931 140.892 83.886 139.677 82.2128C138.974 81.2606 138.494 80.1461 138.268 78.9325H142.265V78.9353Z" fill="black"/>
<path d="M156.493 65.1591H173.918V68.7669H167.043V84.8409H163.365V68.7669H156.49V65.1591H156.493Z" fill="black"/>
<path d="M178.84 65.1591H187.536L192.939 84.8409H189.261L187.982 80.0856H178.389L177.11 84.8409H173.432L178.835 65.1591H178.84ZM187.024 76.475L184.945 68.7669H181.428L179.35 76.475H187.024Z" fill="black"/>
<path d="M192.461 65.1591H209.886V68.7669H203.011V84.8409H199.334V68.7669H192.458V65.1591H192.461Z" fill="black"/>
<path d="M212.443 65.1591H216.12V84.8409H212.443V65.1591Z" fill="black"/>
<path d="M230.348 64.5014C236.581 64.5014 241.058 69.0944 241.058 74.9972C241.058 80.9001 236.581 85.4931 230.348 85.4931C224.114 85.4931 219.637 80.9001 219.637 74.9972C219.637 69.0944 224.114 64.5014 230.348 64.5014ZM230.348 81.8881C234.344 81.8881 237.223 78.9353 237.223 75C237.223 71.0647 234.344 68.1119 230.348 68.1119C226.351 68.1119 223.473 71.0647 223.473 75C223.473 78.9353 226.351 81.8881 230.348 81.8881Z" fill="black"/>
<path d="M244.572 65.1591H249.529L258.322 79.9205H258.642L258.322 77.2951V65.1591H262V84.8409H257.043L248.25 70.0795H247.931L248.25 72.7049V84.8409H244.572V65.1591Z" fill="black"/>
<path d="M104.612 78.0849C105.251 77.7712 105.846 77.3171 106.383 76.7365C107.584 75.4651 108.191 73.8882 108.191 72.0527C108.191 67.6083 104.792 64.5041 99.9261 64.5041H88.939V85.4986H95.0388V79.4499H98.7727L102.099 85.4986H108.244L104.272 78.2555L104.612 78.0877V78.0849ZM99.3199 74.4303H95.0361V69.675H99.3199C100.814 69.675 101.941 70.696 101.941 72.0527C101.941 73.4094 100.814 74.4303 99.3199 74.4303Z" fill="black"/>
<path d="M131.335 75C131.335 68.9182 126.522 64.5041 119.894 64.5041H111.326V85.4986H119.894C126.522 85.4986 131.335 81.0845 131.335 75.0027V75ZM117.424 80.1709V69.8291H119.741C122.944 69.8291 124.932 71.8105 124.932 75C124.932 78.1895 122.941 80.1709 119.741 80.1709H117.424Z" fill="black"/>
<path d="M78.8504 85.2757L58.4239 77.5043L38 85.2757V92.2464L45.5859 95.9972L58.4266 91.1126L71.2672 95.9972L78.8531 92.2464V85.2757H78.8504ZM71.2377 95.4001L58.6116 90.5952L58.4239 90.5237L58.2361 90.5952L45.61 95.4001L39.368 92.3124L58.4239 85.0611L77.4797 92.3124L71.2351 95.4001H71.2377Z" fill="black"/>
<path d="M78.8504 57.7509L71.2672 54L58.4266 58.8847L45.5859 54L38 57.7509V64.7215L58.4266 72.493L78.8531 64.7215V57.7509H78.8504ZM45.6127 54.5972L58.2388 59.402L58.4266 59.4736L58.6143 59.402L71.2377 54.5972L77.4797 57.6848L58.4239 64.9362L39.368 57.6848L45.6127 54.5972Z" fill="black"/>
</g>
<defs>
<clipPath id="clip0_94_635">
<rect width="224" height="42" fill="white" transform="translate(38 54)"/>
</clipPath>
</defs>
</svg>
