<svg width="200" height="233" viewBox="0 0 200 233" fill="none" xmlns="http://www.w3.org/2000/svg">
<path d="M180.749 98.844L180.512 99.2537C180.403 99.4437 180.29 99.6339 180.175 99.8214C177.25 104.607 172.982 108.427 167.903 110.806L182.735 119.84H182.748C185.683 119.127 188.442 117.827 190.859 116.017C193.276 114.207 195.301 111.926 196.81 109.311L197.011 108.963C199.879 103.995 200.723 98.1126 199.369 92.5377V92.5377L184.542 83.5103C184.757 88.8777 183.442 94.1956 180.749 98.844V98.844Z" fill="#262525"/>
<path d="M44.404 16.4734L44.64 16.0637C47.4397 11.2295 48.4647 5.56983 47.5384 0.0607682L47.4394 0L18.0576 0.822014L30.808 27.3055L30.9061 27.3654C36.5958 25.5256 41.4037 21.646 44.404 16.4734V16.4734Z" fill="#262525"/>
<path d="M48.3986 18.2338L48.1625 18.6435C48.0522 18.8345 47.9393 19.0237 47.8256 19.2112C44.8999 23.9967 40.632 27.8167 35.5527 30.1961L163.256 107.976C168.946 106.136 173.753 102.256 176.754 97.0836L176.991 96.6739C179.79 91.8395 180.815 86.18 179.889 80.671L52.1893 2.89575C52.4064 8.26451 51.0916 13.5843 48.3986 18.2338V18.2338Z" fill="#262525"/>
<path d="M156.829 24.9889C155.47 23.3595 153.8 22.0159 151.918 21.036C150.036 20.056 147.978 19.4592 145.863 19.2799L133.919 18.2383C131.806 18.0533 129.677 18.2864 127.654 18.9242C125.631 19.5619 123.754 20.5919 122.129 21.9554C120.504 23.3188 119.164 24.9889 118.184 26.8704C117.205 28.7519 116.605 30.8079 116.421 32.921L112.07 82.645L107.72 32.921C107.342 28.6553 105.287 24.7137 102.007 21.9611C98.726 19.2084 94.4876 17.8693 90.221 18.2374L78.2769 19.2791C74.0112 19.6574 70.0697 21.7123 67.317 24.9928C64.5643 28.2734 63.2252 32.5119 63.5934 36.7785L66.858 74.0854C65.9509 73.9294 65.0321 73.851 64.1116 73.8511H52.1216C49.0965 73.8539 46.1328 74.7051 43.5673 76.3079C41.0018 77.9108 38.9372 80.201 37.6081 82.9185C34.8588 80.919 31.5462 79.8431 28.1467 79.8457H16.1531C11.8705 79.8505 7.7647 81.5539 4.73645 84.5821C1.7082 87.6104 0.00484517 91.7162 2.04898e-05 95.9988V168.019C-0.00671456 176.44 1.64699 184.78 4.86651 192.561C8.08604 200.343 12.8082 207.413 18.7628 213.368C24.7175 219.322 31.7878 224.045 39.5692 227.264C47.3506 230.484 55.6905 232.137 64.1116 232.131H88.09C96.5112 232.137 104.851 230.484 112.632 227.264C120.414 224.045 127.484 219.322 133.439 213.368C139.393 207.413 144.116 200.343 147.335 192.561C150.555 184.78 152.208 176.44 152.202 168.019V167.006C154.07 165.489 155.577 163.575 156.614 161.403C157.651 159.231 158.191 156.855 158.196 154.448V142.459C158.197 140.093 157.677 137.755 156.672 135.613C155.668 133.47 154.205 131.575 152.386 130.062L160.545 36.7794C160.736 34.666 160.506 32.5357 159.868 30.5119C159.23 28.4881 158.197 26.6109 156.829 24.9889V24.9889ZM79.0026 27.5748L90.9466 26.5332C93.0144 26.3548 95.0686 27.004 96.6582 28.3385C98.2478 29.6729 99.2431 31.5835 99.4255 33.651L107.533 126.314H80.2639V90.0042C80.2663 85.7651 78.5966 81.6963 75.6173 78.6808L71.8848 36.0537C71.7064 33.9859 72.3557 31.9318 73.6901 30.3421C75.0246 28.7525 76.9352 27.7573 79.0026 27.5748V27.5748ZM44.2955 90.0042C44.2978 87.9292 45.1229 85.94 46.5901 84.4728C48.0573 83.0056 50.0467 82.1803 52.1216 82.178H64.1116C66.1865 82.1806 68.1756 83.0059 69.6428 84.4731C71.1099 85.9402 71.9352 87.9293 71.9377 90.0042V126.245H44.2955V90.0042V90.0042ZM8.32612 95.9996C8.32841 93.9245 9.15382 91.935 10.6212 90.4676C12.0885 89.0003 14.078 88.1749 16.1531 88.1726H28.1423C30.2175 88.1749 32.207 89.0003 33.6743 90.4676C35.1417 91.935 35.967 93.9245 35.9693 95.9996V119.979C35.9668 122.054 35.1413 124.043 33.674 125.51C32.2067 126.977 30.2173 127.803 28.1423 127.805H16.1531C14.0781 127.803 12.0888 126.977 10.6215 125.51C9.15416 124.043 8.32864 122.054 8.32612 119.979V95.9996V95.9996ZM149.87 154.449C149.867 155.823 149.504 157.173 148.817 158.362C148.129 159.552 147.142 160.541 145.954 161.231L143.885 162.427L143.875 164.818V168.02C143.859 182.81 137.976 196.989 127.518 207.448C117.06 217.906 102.88 223.789 88.09 223.805H64.1116C49.3215 223.789 35.142 217.906 24.6838 207.448C14.2256 196.989 8.34289 182.81 8.32612 168.02V134.104C10.7194 135.437 13.4139 136.134 16.1531 136.131H25.2674C24.413 138.131 23.9736 140.284 23.9758 142.459C23.9843 149.921 26.9525 157.074 32.2291 162.35C37.5057 167.626 44.6598 170.594 52.1216 170.601H77.7205C74.004 174.912 71.9616 180.415 71.9664 186.106C71.9434 186.667 72.0342 187.227 72.2331 187.752C72.4319 188.277 72.7349 188.756 73.1238 189.161C73.5126 189.567 73.9792 189.889 74.4957 190.109C75.0122 190.329 75.568 190.443 76.1294 190.443C76.6909 190.443 77.2466 190.329 77.7631 190.109C78.2796 189.889 78.7463 189.567 79.1351 189.161C79.5239 188.756 79.8269 188.277 80.0258 187.752C80.2247 187.227 80.3154 186.667 80.2925 186.106C80.2971 182 81.9302 178.064 84.8334 175.161C87.7367 172.257 91.6731 170.624 95.7789 170.62C95.9091 170.62 96.0394 170.613 96.1661 170.601H108.101C108.662 170.624 109.222 170.534 109.747 170.335C110.272 170.136 110.752 169.833 111.157 169.444C111.562 169.055 111.884 168.588 112.104 168.072C112.325 167.555 112.438 167 112.438 166.438C112.438 165.877 112.325 165.321 112.104 164.805C111.884 164.288 111.562 163.821 111.157 163.433C110.752 163.044 110.272 162.741 109.747 162.542C109.222 162.343 108.662 162.252 108.101 162.275H52.1216C46.8678 162.269 41.8309 160.18 38.116 156.465C34.401 152.75 32.3114 147.713 32.3054 142.459C32.3077 140.384 33.133 138.395 34.6004 136.927C36.0678 135.46 38.0573 134.635 40.1324 134.633H142.044C144.119 134.635 146.108 135.46 147.575 136.928C149.042 138.395 149.868 140.384 149.87 142.459V154.449ZM142.044 126.307H116.611L124.718 33.6441C124.9 31.5765 125.896 29.6657 127.485 28.3313C129.075 26.9968 131.129 26.3476 133.197 26.5262L145.14 27.5679C147.208 27.7503 149.118 28.7456 150.453 30.3352C151.787 31.9248 152.436 33.9789 152.258 36.0468L144.348 126.464C143.584 126.357 142.815 126.304 142.044 126.307V126.307Z" fill="#262525"/>
<path d="M79.0026 27.5745L90.9466 26.5329C93.0144 26.3545 95.0685 27.0037 96.6582 28.3382C98.2478 29.6726 99.2431 31.5832 99.4255 33.6507L107.533 126.313H80.2639V90.0039C80.2663 85.7648 78.5966 81.696 75.6173 78.6805L71.8848 36.0534C71.7063 33.9856 72.3557 31.9315 73.6901 30.3418C75.0246 28.7522 76.9352 27.757 79.0026 27.5745V27.5745ZM44.2954 90.0039C44.2977 87.9289 45.1229 85.9397 46.5901 84.4725C48.0573 83.0053 50.0467 82.18 52.1216 82.1777H64.1116C66.1865 82.1803 68.1756 83.0056 69.6427 84.4728C71.1099 85.9399 71.9352 87.929 71.9377 90.0039V126.245H44.2954V90.0039V90.0039ZM8.32611 95.9993C8.32841 93.9242 9.15381 91.9347 10.6212 90.4673C12.0885 89 14.078 88.1746 16.1531 88.1723H28.1423C30.2175 88.1746 32.207 89 33.6743 90.4673C35.1417 91.9347 35.967 93.9242 35.9693 95.9993V119.979C35.9668 122.054 35.1413 124.043 33.674 125.51C32.2067 126.977 30.2173 127.802 28.1423 127.805H16.1531C14.0781 127.802 12.0888 126.977 10.6215 125.51C9.15415 124.043 8.32864 122.054 8.32611 119.979V95.9993V95.9993ZM149.87 154.449C149.867 155.823 149.504 157.172 148.816 158.362C148.129 159.552 147.142 160.541 145.954 161.231L143.885 162.427L143.875 164.817V168.02C143.859 182.81 137.976 196.989 127.518 207.447C117.06 217.905 102.88 223.788 88.09 223.805H64.1116C49.3215 223.788 35.142 217.905 24.6838 207.447C14.2256 196.989 8.34288 182.81 8.32611 168.02V134.104C10.7194 135.436 13.4139 136.134 16.1531 136.131H25.2674C24.413 138.131 23.9736 140.284 23.9758 142.459C23.9843 149.921 26.9525 157.074 32.2291 162.35C37.5057 167.626 44.6598 170.593 52.1216 170.601H77.7205C74.004 174.911 71.9616 180.414 71.9663 186.106C71.9434 186.667 72.0342 187.227 72.233 187.752C72.4319 188.277 72.7349 188.756 73.1237 189.161C73.5126 189.566 73.9792 189.889 74.4957 190.109C75.0122 190.329 75.5679 190.442 76.1294 190.442C76.6909 190.442 77.2466 190.329 77.7631 190.109C78.2796 189.889 78.7462 189.566 79.1351 189.161C79.5239 188.756 79.8269 188.277 80.0258 187.752C80.2247 187.227 80.3154 186.667 80.2925 186.106C80.2971 182 81.9301 178.064 84.8334 175.16C87.7367 172.257 91.673 170.624 95.7789 170.619C95.9091 170.619 96.0394 170.613 96.1661 170.601H108.101C108.662 170.624 109.222 170.533 109.747 170.334C110.272 170.135 110.752 169.833 111.157 169.444C111.562 169.055 111.884 168.588 112.104 168.072C112.325 167.555 112.438 166.999 112.438 166.438C112.438 165.876 112.325 165.321 112.104 164.804C111.884 164.288 111.562 163.821 111.157 163.432C110.752 163.043 110.272 162.74 109.747 162.542C109.222 162.343 108.662 162.252 108.101 162.275H52.1216C46.8678 162.269 41.8309 160.179 38.1159 156.464C34.401 152.749 32.3114 147.712 32.3054 142.459C32.3077 140.384 33.133 138.394 34.6004 136.927C36.0678 135.46 38.0573 134.635 40.1324 134.633H142.044C144.119 134.635 146.108 135.46 147.575 136.927C149.042 138.395 149.868 140.384 149.87 142.459V154.449ZM142.044 126.306H116.611L124.718 33.6438C124.9 31.5762 125.896 29.6654 127.485 28.331C129.075 26.9965 131.129 26.3473 133.197 26.5259L145.14 27.5676C147.208 27.75 149.118 28.7453 150.453 30.3349C151.787 31.9245 152.436 33.9786 152.258 36.0465L144.348 126.464C143.584 126.356 142.815 126.304 142.044 126.306V126.306Z" fill="#FFF6DA"/>
<path d="M176.754 97.0792L176.991 96.6695C179.79 91.8348 180.815 86.175 179.889 80.6657L102.64 33.6187L106.464 73.3821L163.256 107.972C168.946 106.132 173.754 102.252 176.754 97.0792V97.0792Z" fill="#262525"/>
<path d="M199.367 92.5331L184.54 83.5056C184.757 88.8752 183.442 94.1957 180.749 98.8463L180.512 99.256C180.402 99.4469 180.289 99.6362 180.175 99.8237C177.25 104.609 172.982 108.429 167.903 110.809L182.735 119.842H182.748C185.683 119.13 188.442 117.829 190.859 116.019C193.276 114.209 195.301 111.928 196.81 109.313L197.011 108.966C199.88 103.995 200.723 98.1098 199.367 92.5331V92.5331Z" fill="#262525"/>
</svg>
