<svg width="24" height="24" viewBox="0 0 24 24" fill="none" xmlns="http://www.w3.org/2000/svg">
<path d="M10.5034 1.38001C10.0389 1.02723 9.46826 0.842856 8.88514 0.857158H2.57143C1.88944 0.857158 1.23539 1.12808 0.753154 1.61031C0.270918 2.09255 0 2.7466 0 3.42859L0 20.5714C0 21.2534 0.270918 21.9075 0.753154 22.3897C1.23539 22.872 1.88944 23.1429 2.57143 23.1429H21.4286C22.1106 23.1429 22.7646 22.872 23.2468 22.3897C23.7291 21.9075 24 21.2534 24 20.5714V6.85716C24 6.17517 23.7291 5.52112 23.2468 5.03888C22.7646 4.55665 22.1106 4.28573 21.4286 4.28573H11.8114L11.4429 2.81144C11.3022 2.24111 10.9707 1.73603 10.5034 1.38001Z" fill="#FF6633"/>
</svg>
