<svg width="66" height="66" viewBox="0 0 66 66" fill="none" xmlns="http://www.w3.org/2000/svg">
<g clip-path="url(#clip0)">
<path d="M28.627 35.3031L49.227 35.3031L49.227 30.087L28.627 30.087C30.8944 27.4269 32.1389 24.0454 32.137 20.55L26.921 20.55C26.9181 23.0785 25.9124 25.5026 24.1245 27.2905C22.3365 29.0784 19.9124 30.0841 17.384 30.087L17.384 35.3031C19.9124 35.3063 22.3363 36.312 24.1241 38.0999C25.912 39.8877 26.9178 42.3117 26.921 44.8401L32.137 44.8401C32.1389 41.3447 30.8944 37.9633 28.627 35.3031V35.3031Z" fill="#84F2D6"/>
<path d="M64 33C64 28.8141 63.1806 24.7546 61.5647 20.934C60.0034 17.2428 57.7679 13.9273 54.9203 11.0797C52.0727 8.23206 48.7572 5.99657 45.066 4.43531C41.2454 2.81936 37.1859 2 33 2C28.8141 2 24.7546 2.81936 20.934 4.43531C17.2428 5.99657 13.9273 8.23206 11.0797 11.0797C8.23206 13.9273 5.99657 17.2428 4.43531 20.934C2.81936 24.7546 2 28.8141 2 33C2 37.1858 2.81936 41.2454 4.43531 45.066C5.99657 48.7572 8.23206 52.0727 11.0797 54.9203C13.9273 57.7679 17.2428 60.0034 20.934 61.5647C24.7546 63.1806 28.8141 64 33 64C37.1859 64 41.2454 63.1806 45.066 61.5647C48.7572 60.0034 52.0727 57.7679 54.9203 54.9203C57.7679 52.0727 60.0034 48.7572 61.5647 45.066C63.1806 41.2454 64 37.1859 64 33ZM66 33C66 51.2254 51.2254 66 33 66C14.7746 66 -2.23913e-06 51.2254 -1.44248e-06 33C-6.45818e-07 14.7746 14.7746 -2.23913e-06 33 -1.44248e-06C51.2254 -6.45818e-07 66 14.7746 66 33Z" fill="#FFF6DA"/>
</g>
<defs>
<clipPath id="clip0">
<rect width="66" height="66" fill="white" transform="translate(66) rotate(90)"/>
</clipPath>
</defs>
</svg>
