<svg width="66" height="66" viewBox="0 0 66 66" fill="none" xmlns="http://www.w3.org/2000/svg">
<g clip-path="url(#clip0)">
<path d="M35.303 37.373V16.773H30.087V37.373C27.4268 35.1056 24.0453 33.8611 20.55 33.863V39.079C23.0785 39.0819 25.5026 40.0876 27.2905 41.8755C29.0784 43.6635 30.0841 46.0876 30.087 48.616H35.303C35.3062 46.0876 36.3119 43.6637 38.0998 41.8759C39.8876 40.088 42.3116 39.0822 44.84 39.079V33.863C41.3447 33.8611 37.9632 35.1056 35.303 37.373Z" fill="#84F2D6"/>
<path d="M33 2C28.8141 2 24.7546 2.81936 20.934 4.43531C17.2428 5.99657 13.9273 8.23206 11.0797 11.0797C8.23206 13.9273 5.99657 17.2428 4.43531 20.934C2.81936 24.7546 2 28.8141 2 33C2 37.1859 2.81936 41.2454 4.43531 45.066C5.99657 48.7572 8.23206 52.0727 11.0797 54.9203C13.9273 57.7679 17.2428 60.0034 20.934 61.5647C24.7546 63.1806 28.8141 64 33 64C37.1859 64 41.2454 63.1806 45.066 61.5647C48.7572 60.0034 52.0727 57.7679 54.9203 54.9203C57.7679 52.0727 60.0034 48.7572 61.5647 45.066C63.1806 41.2454 64 37.1859 64 33C64 28.8141 63.1806 24.7546 61.5647 20.934C60.0034 17.2428 57.7679 13.9273 54.9203 11.0797C52.0727 8.23206 48.7572 5.99657 45.066 4.43531C41.2454 2.81936 37.1859 2 33 2ZM33 0C51.2254 0 66 14.7746 66 33C66 51.2254 51.2254 66 33 66C14.7746 66 0 51.2254 0 33C0 14.7746 14.7746 0 33 0Z" fill="#FFF6DA"/>
</g>
<defs>
<clipPath id="clip0">
<rect width="66" height="66" fill="white"/>
</clipPath>
</defs>
</svg>
