<svg width="66" height="66" viewBox="0 0 66 66" fill="none" xmlns="http://www.w3.org/2000/svg">
<g clip-path="url(#clip0)">
<path d="M37.373 30.6969L16.773 30.6969L16.773 35.913L37.373 35.913C35.1056 38.5731 33.8611 41.9546 33.863 45.45L39.079 45.45C39.0819 42.9215 40.0876 40.4974 41.8756 38.7095C43.6635 36.9216 46.0876 35.9159 48.616 35.913L48.616 30.6969C46.0876 30.6937 43.6637 29.688 41.8759 27.9001C40.088 26.1123 39.0822 23.6883 39.079 21.1599L33.863 21.1599C33.8611 24.6553 35.1056 28.0367 37.373 30.6969V30.6969Z" fill="#84F2D6"/>
<path d="M2 33C2 37.1859 2.81936 41.2454 4.43531 45.066C5.99657 48.7572 8.23206 52.0727 11.0797 54.9203C13.9273 57.7679 17.2428 60.0034 20.934 61.5647C24.7546 63.1806 28.8141 64 33 64C37.1859 64 41.2454 63.1806 45.066 61.5647C48.7572 60.0034 52.0727 57.7679 54.9203 54.9203C57.7679 52.0727 60.0034 48.7572 61.5647 45.066C63.1806 41.2454 64 37.1859 64 33C64 28.8141 63.1806 24.7546 61.5647 20.934C60.0034 17.2428 57.7679 13.9273 54.9203 11.0797C52.0727 8.23206 48.7572 5.99657 45.066 4.43531C41.2454 2.81936 37.1858 2 33 2C28.8141 2 24.7546 2.81936 20.934 4.43531C17.2428 5.99657 13.9273 8.23206 11.0797 11.0797C8.23206 13.9273 5.99657 17.2428 4.43531 20.934C2.81936 24.7546 2 28.8141 2 33ZM-1.44248e-06 33C-2.23913e-06 14.7746 14.7746 -6.45818e-07 33 -1.44248e-06C51.2254 -2.23913e-06 66 14.7746 66 33C66 51.2254 51.2254 66 33 66C14.7746 66 -6.45818e-07 51.2254 -1.44248e-06 33Z" fill="#FFF6DA"/>
</g>
<defs>
<clipPath id="clip0">
<rect width="66" height="66" fill="white" transform="translate(0 66) rotate(-90)"/>
</clipPath>
</defs>
</svg>
