<svg width="90" height="48" viewBox="0 0 90 48" fill="none" xmlns="http://www.w3.org/2000/svg">
<path d="M0 15.6359H5.61851C5.61851 17.5465 6.49643 18.3403 8.48626 18.3403C10.0081 18.3403 10.886 17.8406 10.886 16.7535C10.886 15.8422 10.1251 15.3426 6.64289 14.6663C2.16576 13.755 0.38048 12.1386 0.38048 9.22889C0.38048 5.40784 3.19013 3.23026 8.19418 3.23026C13.4911 3.23026 16.1838 5.49329 16.1838 9.98981H10.6528C10.6528 8.19679 9.92139 7.49174 8.04856 7.49174C6.64372 7.49174 5.94171 7.99135 5.94171 8.96182C5.94171 10.2256 7.93155 10.5486 9.80439 10.9899C14.4574 12.077 16.3892 13.4296 16.3892 16.4568C16.3892 20.2187 13.3455 22.6289 8.60492 22.6289C2.72132 22.6305 0 20.3387 0 15.6359Z" fill="black"/>
<path d="M17.4258 2.76266C17.4258 0.264598 18.86 0 20.8204 0C22.8103 0 24.2151 0.264598 24.2151 2.76266C24.2151 5.17281 22.8103 5.55658 20.8204 5.55658C18.8576 5.55493 17.4258 5.23197 17.4258 2.76266ZM18.0697 7.34712H23.6006V22.3363H18.0697V7.34712Z" fill="black"/>
<path d="M25.2878 14.8429C25.2878 11.3161 26.3702 7.05457 30.8514 7.05457C32.3651 6.9931 33.8564 7.4379 35.0913 8.31921V1.55883H40.5642V22.338H37.5205L36.555 20.6329C35.9713 21.2687 35.2601 21.7731 34.4683 22.1131C33.6764 22.453 32.8219 22.6206 31.9609 22.605C26.6926 22.6018 25.2878 18.5465 25.2878 14.8429ZM35.1502 14.8429C35.1502 13.0212 35.1502 11.4927 33.0139 11.4927C30.9684 11.4927 30.8482 12.962 30.8482 14.8429C30.8482 16.7535 30.9652 18.2227 32.9844 18.2227C35.0618 18.2227 35.1502 16.7831 35.1502 14.8429Z" fill="black"/>
<path d="M42.2537 7.34792H45.3268L46.2342 9.17054C46.8109 8.48499 47.534 7.93874 48.3497 7.57241C49.1655 7.20609 50.0529 7.02909 50.9462 7.05457C56.2137 7.05457 56.8281 9.9939 56.8281 13.7558V22.338H51.3561V13.9604C51.3561 11.9324 50.9756 11.4952 49.6003 11.4952C48.2543 11.4952 47.7568 11.9948 47.7568 13.9604V22.3371H42.2553L42.2537 7.34792Z" fill="black"/>
<path d="M58.5168 14.8126C58.5168 11.1386 59.7442 7.05374 66.3306 7.05374C74.0568 7.05374 73.6469 13.1962 73.6469 15.9885H63.6649C63.7827 18.0748 64.5428 19.0749 66.153 19.0749C67.6454 19.0749 68.2599 18.3402 68.3474 17.341L73.7614 17.3706C73.5855 20.3683 71.4786 22.6297 66.3576 22.6297C59.6574 22.6313 58.5168 18.4873 58.5168 14.8126ZM68.3491 13.1962C68.174 11.2561 67.6176 10.551 66.0377 10.551C64.5739 10.551 63.8433 11.1682 63.6649 13.1962H68.3491Z" fill="black"/>
<path d="M75.3103 23.7193H80.5466C80.5466 24.7481 80.8396 25.2806 82.4784 25.2806C84.2923 25.2806 84.5239 24.1343 84.5239 22.665V21.0216C84.1 21.5172 83.5678 21.9078 82.9689 22.1628C82.37 22.4178 81.7204 22.5303 81.071 22.4916C75.7741 22.4916 75.4256 19.5227 75.4256 15.7025V7.34795H80.869V15.4601C80.869 17.664 81.2781 18.0757 82.6248 18.0757C84.0296 18.0757 84.4977 17.6648 84.4977 15.4601L84.5271 7.34795H90V22.1909C90 25.2182 88.9756 28.6004 82.6837 28.6004C76.7445 28.598 75.3103 26.9816 75.3103 23.7193Z" fill="black"/>
<path d="M0 41.002H5.61851C5.61851 42.9125 6.49643 43.7063 8.48626 43.7063C10.0081 43.7063 10.886 43.2067 10.886 42.1195C10.886 41.2082 10.1251 40.7086 6.64289 40.0324C2.16576 39.1211 0.38048 37.5047 0.38048 34.5949C0.38048 30.7739 3.19013 28.5963 8.19418 28.5963C13.4911 28.5963 16.1838 30.8593 16.1838 35.3558H10.6528C10.6528 33.5628 9.92139 32.8578 8.04856 32.8578C6.64372 32.8578 5.94171 33.3574 5.94171 34.3271C5.94171 35.5909 7.93155 35.9138 9.80439 36.3551C14.4574 37.4422 16.3892 38.7948 16.3892 41.8221C16.3892 45.584 13.3455 47.9941 8.60492 47.9941C2.72132 47.9949 0 45.7031 0 41.002Z" fill="black"/>
<path d="M18.0779 40.2362C18.0779 36.5918 19.4533 32.4182 25.5987 32.4182C31.6533 32.4182 33.0606 36.5918 33.0606 40.2362C33.0606 43.9397 31.6558 47.9949 25.5398 47.9949C19.3952 47.9949 18.0779 43.9077 18.0779 40.2362ZM28.0279 40.2362C28.0279 37.9139 27.3545 36.8268 25.5987 36.8268C23.8723 36.8268 23.1114 37.8844 23.1114 40.2362C23.1114 42.6192 23.9018 43.6159 25.5406 43.6159C27.2653 43.6159 28.0279 42.6463 28.0279 40.2362Z" fill="black"/>
<path d="M34.751 41.4408V32.7115H40.2238V41.2058C40.2238 43.2042 40.6632 43.6455 41.9796 43.6455C43.3256 43.6455 43.8231 43.2042 43.8231 41.2058V32.7115H49.3246V47.7008H46.2809L45.3735 45.9077C44.8134 46.5955 44.101 47.1424 43.2931 47.5046C42.4852 47.8668 41.6042 48.0345 40.7204 47.9941C35.4243 47.9949 34.751 45.1435 34.751 41.4408Z" fill="black"/>
<path d="M51.0141 43.7038L57.6275 37.0026H51.0141V32.7115H64.1248V36.7084L57.3641 43.4097H64.4169V47.7008H51.0141V43.7038Z" fill="black"/>
<path d="M66.1073 43.6159C66.1073 40.2657 68.8286 39.0307 75.7938 38.5606C75.7938 36.4743 75.4428 35.798 73.8621 35.798C72.3992 35.798 71.9892 36.5622 71.9892 37.9731H66.5753C66.5753 35.1513 68.0676 32.4182 73.7156 32.4182C80.2709 32.4182 81.2953 35.5926 81.2953 39.2665V47.7016H78.2517L77.2862 45.6472C76.0859 47.234 74.4184 47.9982 71.9597 47.9982C68.7115 47.9949 66.1073 46.6728 66.1073 43.6159ZM75.7619 41.1762L73.5381 41.4112C72.1627 41.6175 71.7233 42.3521 71.7233 43.0276C71.7233 43.9676 72.2503 44.4976 73.5381 44.4976C74.7989 44.4976 75.7643 43.4401 75.7643 41.177L75.7619 41.1762Z" fill="black"/>
</svg>
