<svg width="331" height="310" viewBox="0 0 331 310" fill="none" xmlns="http://www.w3.org/2000/svg">
<path d="M295.26 0H35.26C15.93 0 0.26001 15.67 0.26001 35V275C0.26001 294.33 15.93 310 35.26 310H295.26C314.59 310 330.26 294.33 330.26 275V35C330.26 15.67 314.59 0 295.26 0Z" fill="#FFFCE1"/>
<path d="M295.26 15H35.26C24.2143 15 15.26 23.9543 15.26 35V275C15.26 286.046 24.2143 295 35.26 295H295.26C306.306 295 315.26 286.046 315.26 275V35C315.26 23.9543 306.306 15 295.26 15Z" fill="#FFFCE1" stroke="#0E100F" stroke-miterlimit="10"/>
<path d="M40.26 45C43.0214 45 45.26 42.7614 45.26 40C45.26 37.2386 43.0214 35 40.26 35C37.4986 35 35.26 37.2386 35.26 40C35.26 42.7614 37.4986 45 40.26 45Z" fill="#84F2D6"/>
<path d="M60.26 45C63.0214 45 65.26 42.7614 65.26 40C65.26 37.2386 63.0214 35 60.26 35C57.4986 35 55.26 37.2386 55.26 40C55.26 42.7614 57.4986 45 60.26 45Z" fill="#84F2D6"/>
<path d="M80.26 45C83.0214 45 85.26 42.7614 85.26 40C85.26 37.2386 83.0214 35 80.26 35C77.4986 35 75.26 37.2386 75.26 40C75.26 42.7614 77.4986 45 80.26 45Z" fill="#84F2D6"/>
<path d="M15.26 65H315.26" stroke="#0E100F" stroke-miterlimit="10"/>
<path d="M37.79 126.69V110.46H42.89V126.46C42.89 132.53 44.27 135.75 50.29 135.75C56.31 135.75 57.74 132.53 57.74 126.46V110.46H62.84V126.69C62.84 136.3 59.25 140.21 50.29 140.21C41.33 140.21 37.79 136.3 37.79 126.69Z" fill="#0E100F"/>
<path d="M75.9501 124.44L66.3401 110.46H72.3201L78.85 120.62L85.3301 110.46H91.3101L81.7001 124.44L92.0901 139.89H86.66L78.8401 127.89L71.0701 139.89H65.55L75.9401 124.44H75.9501Z" fill="#0E100F"/>
<path d="M102.39 110.46H106.3L96.3201 139.88H92.3201L102.39 110.46Z" fill="#0E100F"/>
<path d="M108.83 126.69V110.46H113.93V126.46C113.93 132.53 115.31 135.75 121.33 135.75C127.35 135.75 128.78 132.53 128.78 126.46V110.46H133.88V126.69C133.88 136.3 130.29 140.21 121.33 140.21C112.37 140.21 108.83 136.3 108.83 126.69Z" fill="#0E100F"/>
<path d="M139.41 110.46H144.47V139.88H139.41V110.46Z" fill="#0E100F"/>
<path d="M38.29 157.64H49.51C58.34 157.64 62.93 162.74 62.93 172.17C62.93 181.6 57.96 187.07 49.05 187.07H38.29V157.65V157.64ZM48.13 182.93C54.61 182.93 58.01 180.08 58.01 172.13C57.96 164.13 54.84 161.79 48.4 161.79H43.3V182.94H48.13V182.93Z" fill="#0E100F"/>
<path d="M66.53 175.25C66.53 168.95 68.92 163.21 78.3 163.21C86.99 163.21 89.43 169.83 88.83 177.23H71.64C71.92 181.28 73.94 183.62 78.17 183.62C82.08 183.62 83.32 181.74 83.78 179.85H88.93C88.52 183.85 85.76 187.39 78.36 187.39C68.89 187.39 66.54 181.55 66.54 175.25H66.53ZM83.77 173.32V173.23C83.82 170.01 82.3 167.02 77.84 167.02C73.38 167.02 71.91 169.87 71.68 173.32H83.77Z" fill="#0E100F"/>
<path d="M91.6299 178.69H96.4599C96.4599 181.86 98.6199 183.47 102.9 183.47C106.26 183.47 108.51 182.32 108.51 180.48C108.51 178.32 105.8 177.72 101.75 176.94C96.6899 175.97 92.0999 174.78 92.0999 170.37C92.0999 165.96 95.4999 163.2 102.4 163.2C109.3 163.2 112.74 166.1 112.74 171.61H108.14C107.96 168.39 106.16 167.01 102.26 167.01C98.3599 167.01 96.9698 168.07 96.9698 169.95C96.9698 172.02 99.5899 172.48 103.5 173.26C108.93 174.32 113.34 175.24 113.34 180.25C113.34 184.53 109.2 187.38 103 187.38C95.3699 187.38 91.6399 184.53 91.6399 178.69H91.6299Z" fill="#0E100F"/>
<path d="M119.36 153.96C121.47 153.96 122.85 154.56 122.85 156.95C122.85 159.34 121.47 159.89 119.36 159.89C117.25 159.89 115.73 159.29 115.73 156.95C115.73 154.61 117.16 153.96 119.36 153.96ZM116.88 163.52H121.75V187.06H116.88V163.52Z" fill="#0E100F"/>
<path d="M124.83 188.67H129.98C130.21 191.38 131.04 193.04 136.65 193.04C142.26 193.04 143.18 191.38 143.18 190.14C143.18 188.07 141.34 187.66 137.02 187.11C128.51 186.05 125.2 185.5 125.2 181.78C125.2 179.62 126.58 178.61 129.2 178.01C126.53 176.63 125.66 174.42 125.66 171.76C125.66 163.53 134.12 163.53 137.2 163.53H147.54V165.87L144.23 166.84C145.65 167.62 146.85 169.09 146.85 172.45C146.85 176.73 144.92 179.99 136.55 180.22C131.68 180.36 130.16 180.4 130.16 181.51C130.16 182.62 132.37 182.84 137.24 183.49C142.3 184.18 148.27 184.69 148.27 189.93C148.27 193.24 145.93 196.96 136.22 196.96C127.3 196.96 124.82 193.79 124.82 188.68L124.83 188.67ZM136.23 176.72C140.69 176.72 141.75 174.79 141.75 171.94C141.75 169.41 140.83 167.57 136.23 167.57C131.63 167.57 130.67 169.36 130.67 172.08C130.67 174.8 131.64 176.72 136.23 176.72Z" fill="#0E100F"/>
<path d="M150.99 163.52H153.66L154.76 166.83C155.54 165.22 158.02 163.2 163.36 163.2C171.08 163.2 172.6 167.7 172.6 174.37V187.06H167.73V173.96C167.73 169.78 166.99 167.29 161.98 167.29C156.97 167.29 155.91 169.73 155.91 173.96V187.06H150.99V163.52Z" fill="#0E100F"/>
<path d="M100.05 222.13H55.78C44.4471 222.13 35.26 231.317 35.26 242.65C35.26 253.983 44.4471 263.17 55.78 263.17H100.05C111.383 263.17 120.57 253.983 120.57 242.65C120.57 231.317 111.383 222.13 100.05 222.13Z" stroke="#FF6633" stroke-miterlimit="10"/>
<path d="M51.8799 245.31H54.9799C54.9799 246.52 55.9199 247.19 57.5899 247.19C59.0299 247.19 59.8399 246.69 59.8399 246C59.8399 243.84 52.1299 245.38 52.1299 241.23C52.1299 238.78 53.9899 237.52 57.3599 237.52C60.7299 237.52 62.5899 238.94 62.5899 241.67H59.6499C59.5099 240.41 58.9399 239.9 57.2599 239.9C55.6799 239.9 55.1999 240.47 55.1999 241.07C55.1999 243.13 62.9299 241.41 62.9299 245.86C62.9299 248.11 60.8199 249.62 57.6599 249.62C53.8099 249.62 51.8799 248.2 51.8799 245.31Z" fill="#0E100F"/>
<path d="M66.31 232.56C67.48 232.56 68.2801 232.88 68.2801 234.19C68.2801 235.5 67.48 235.8 66.31 235.8C65.14 235.8 64.29 235.48 64.29 234.19C64.29 232.9 65.14 232.56 66.31 232.56ZM64.73 237.7H67.9001V249.44H64.73V237.7Z" fill="#0E100F"/>
<path d="M70.94 245.54V240.26H69.22V238.7L70.94 237.74V234.76H73.99V237.7H77.09V240.27H74.09V245.52C74.09 246.83 74.89 247.15 77.09 246.99V249.56C72.92 249.9 70.94 249.17 70.94 245.55V245.54Z" fill="#0E100F"/>
<path d="M77.96 243.57C77.96 240.63 78.9199 237.52 83.6699 237.52C88.1399 237.52 89.4699 241.1 89.1299 244.81H81.1699C81.2599 246.48 82.3199 247.2 83.6899 247.2C85.0599 247.2 85.6899 246.58 85.8199 245.89H89.15C88.94 247.86 87.5899 249.63 83.8099 249.63C78.9899 249.63 77.96 246.6 77.96 243.58V243.57ZM85.9 242.4C85.85 240.89 85.19 239.97 83.52 239.97C81.94 239.97 81.2499 240.89 81.1799 242.4H85.9Z" fill="#0E100F"/>
<path d="M90.47 245.31H93.57C93.57 246.52 94.51 247.19 96.18 247.19C97.62 247.19 98.43 246.69 98.43 246C98.43 243.84 90.72 245.38 90.72 241.23C90.72 238.78 92.58 237.52 95.95 237.52C99.32 237.52 101.18 238.94 101.18 241.67H98.24C98.1 240.41 97.53 239.9 95.85 239.9C94.27 239.9 93.79 240.47 93.79 241.07C93.79 243.13 101.52 241.41 101.52 245.86C101.52 248.11 99.41 249.62 96.25 249.62C92.4 249.62 90.47 248.2 90.47 245.31Z" fill="#0E100F"/>
<path d="M246.7 222.13H149.08C137.747 222.13 128.56 231.317 128.56 242.65C128.56 253.983 137.747 263.17 149.08 263.17H246.7C258.033 263.17 267.22 253.983 267.22 242.65C267.22 231.317 258.033 222.13 246.7 222.13Z" stroke="#FF6633" stroke-miterlimit="10"/>
<path d="M147.31 232.56C148.48 232.56 149.28 232.88 149.28 234.19C149.28 235.5 148.48 235.8 147.31 235.8C146.14 235.8 145.29 235.48 145.29 234.19C145.29 232.9 146.14 232.56 147.31 232.56ZM145.73 237.7H148.9V249.44H145.73V237.7Z" fill="#0E100F"/>
<path d="M151.26 237.69H152.57L153.3 239.52C154.1 238.3 155.16 237.5 157.73 237.5C161.45 237.5 162.25 239.75 162.25 243.03V249.43H159.11V242.78C159.11 241.11 158.77 240.14 156.82 240.14C154.87 240.14 154.41 241.15 154.41 242.85V249.43H151.27V237.69H151.26Z" fill="#0E100F"/>
<path d="M164.95 245.54V240.26H163.23V238.7L164.95 237.74V234.76H168V237.7H171.1V240.27H168.1V245.52C168.1 246.83 168.9 247.15 171.1 246.99V249.56C166.93 249.9 164.95 249.17 164.95 245.55V245.54Z" fill="#0E100F"/>
<path d="M171.98 243.57C171.98 240.63 172.94 237.52 177.69 237.52C182.16 237.52 183.49 241.1 183.15 244.81H175.19C175.28 246.48 176.34 247.2 177.71 247.2C179.08 247.2 179.71 246.58 179.84 245.89H183.17C182.96 247.86 181.61 249.63 177.83 249.63C173.01 249.63 171.98 246.6 171.98 243.58V243.57ZM179.91 242.4C179.86 240.89 179.2 239.97 177.53 239.97C175.95 239.97 175.26 240.89 175.19 242.4H179.91Z" fill="#0E100F"/>
<path d="M185.12 237.69H186.43L187.16 239.55C187.89 237.99 189.22 237.23 191.45 237.55V240.37C188.72 240.07 188.26 241.82 188.26 243.47V249.43H185.12V237.69Z" fill="#0E100F"/>
<path d="M194.09 240.24H192.32L192.34 238.7L194.08 237.71V236.45C194.08 233.72 195.78 232.76 200 233.01V235.6C197.64 235.39 197.2 236.01 197.2 236.79V237.68H200V240.23H197.2V249.43H194.08V240.23L194.09 240.24Z" fill="#0E100F"/>
<path d="M200.4 245.95C200.4 243.73 201.87 242.76 205.31 242.46L208.43 242.18C208.41 240.6 207.81 239.93 206.07 239.93C204.33 239.93 203.91 240.69 203.91 241.83L200.79 241.85C200.79 239.44 201.78 237.49 206 237.49C210.88 237.49 211.57 239.65 211.57 242.76V249.41H210.24L209.53 247.53C208.84 248.61 207.47 249.59 205.08 249.59C202.46 249.59 200.4 248.44 200.4 245.92V245.95ZM205.84 247.17C207.97 247.17 208.41 245.84 208.43 244.3L205.79 244.6C204.16 244.78 203.68 245.17 203.68 245.79C203.68 246.59 204.3 247.17 205.84 247.17Z" fill="#0E100F"/>
<path d="M213.22 243.59C213.22 240.45 214.48 237.51 219.14 237.51C222.86 237.51 224.62 239.48 224.62 242.37H221.39C221.21 240.92 220.63 240.12 219.1 240.12C217.06 240.12 216.33 241.52 216.33 243.54C216.33 245.56 217.04 246.93 219.1 246.93C220.64 246.93 221.21 246.1 221.39 244.82L224.62 244.84C224.62 247.71 222.92 249.61 219.21 249.61C214.44 249.61 213.22 246.72 213.22 243.58V243.59Z" fill="#0E100F"/>
<path d="M225.95 243.57C225.95 240.63 226.91 237.52 231.66 237.52C236.13 237.52 237.46 241.1 237.12 244.81H229.16C229.25 246.48 230.31 247.2 231.68 247.2C233.05 247.2 233.68 246.58 233.81 245.89H237.14C236.93 247.86 235.58 249.63 231.8 249.63C226.98 249.63 225.95 246.6 225.95 243.58V243.57ZM233.89 242.4C233.84 240.89 233.18 239.97 231.51 239.97C229.93 239.97 229.24 240.89 229.17 242.4H233.89Z" fill="#0E100F"/>
<path d="M238.46 245.31H241.56C241.56 246.52 242.5 247.19 244.17 247.19C245.61 247.19 246.42 246.69 246.42 246C246.42 243.84 238.71 245.38 238.71 241.23C238.71 238.78 240.57 237.52 243.94 237.52C247.31 237.52 249.17 238.94 249.17 241.67H246.23C246.09 240.41 245.52 239.9 243.84 239.9C242.26 239.9 241.78 240.47 241.78 241.07C241.78 243.13 249.51 241.41 249.51 245.86C249.51 248.11 247.4 249.62 244.23 249.62C240.38 249.62 238.45 248.2 238.45 245.31H238.46Z" fill="#0E100F"/>
<path d="M285.08 103.26C284.24 101.6 282.8 100.37 281.03 99.79L276.11 98.19C274.34 97.61 272.45 97.76 270.79 98.6C269.13 99.44 267.9 100.89 267.32 102.66L260.64 123.15L263.66 101.81C264.2 98 261.54 94.46 257.74 93.93L252.62 93.2C248.82 92.66 245.28 95.32 244.74 99.13L242.47 115.14C242.11 114.99 241.73 114.87 241.34 114.78L236.3 113.61C233.63 112.99 230.95 114.01 229.32 116.01C228.39 114.94 227.13 114.14 225.64 113.79L220.6 112.62C216.86 111.75 213.11 114.09 212.24 117.84L205.22 148.13C204.38 151.77 204.27 155.46 204.9 159.12C205.51 162.64 206.79 165.98 208.69 169.03C210.59 172.08 213.02 174.69 215.91 176.79C218.91 178.97 222.27 180.5 225.9 181.34L235.98 183.68C239.62 184.52 243.31 184.63 246.96 183.99C250.48 183.38 253.81 182.1 256.86 180.2C259.91 178.3 262.52 175.87 264.62 172.97C266.8 169.97 268.33 166.6 269.17 162.97L269.27 162.54C271.14 161.63 272.53 159.9 273.01 157.84L274.18 152.8C274.67 150.71 274.15 148.61 272.95 147.02L285.47 108.58C286.05 106.81 285.9 104.92 285.06 103.26M252.11 96.76L257.23 97.49C259.07 97.75 260.36 99.46 260.1 101.31L254.47 141.07L243.01 138.41L246.55 123.14C246.98 121.29 246.62 119.43 245.7 117.93L248.29 99.64C248.55 97.8 250.26 96.51 252.11 96.77V96.76ZM231.44 119.64C231.86 117.83 233.68 116.69 235.49 117.11L240.53 118.28C242.34 118.7 243.48 120.52 243.06 122.33L239.53 137.57L227.91 134.88L231.44 119.64ZM215.74 118.66C216.16 116.85 217.98 115.71 219.79 116.13L224.83 117.3C226.64 117.72 227.78 119.54 227.36 121.35L225.02 131.44C224.6 133.25 222.78 134.39 220.97 133.97L215.93 132.8C214.12 132.38 212.98 130.56 213.4 128.75L215.74 118.66ZM265.67 162.16C262.67 175.1 249.72 183.18 236.79 180.19L226.71 177.85C213.79 174.85 205.71 161.89 208.71 148.96L212.02 134.7C212.87 135.47 213.92 136.04 215.11 136.31L218.94 137.2C218.4 137.94 218 138.79 217.78 139.74C216.27 146.27 220.34 152.81 226.86 154.32L237.62 156.81C235.71 158.22 234.26 160.28 233.69 162.77C233.47 163.74 234.07 164.7 235.03 164.93C235.99 165.16 236.96 164.55 237.19 163.58C238.02 159.99 241.62 157.74 245.21 158.58C245.27 158.59 245.32 158.61 245.37 158.61L250.39 159.77C251.36 159.99 252.32 159.39 252.55 158.42C252.78 157.45 252.17 156.49 251.21 156.26L227.69 150.81C223.1 149.75 220.23 145.14 221.3 140.54C221.72 138.73 223.54 137.59 225.35 138.01L268.17 147.94C269.98 148.36 271.12 150.18 270.7 151.99L269.53 157.03C269.26 158.2 268.38 159.15 267.22 159.5L266.23 159.8M268.98 144.43L258.29 141.95L270.73 103.77C271.31 102 273.22 101.03 274.99 101.6L279.91 103.2C281.68 103.78 282.65 105.69 282.07 107.46L269.93 144.72C269.63 144.6 269.31 144.5 268.98 144.43Z" fill="#FF6633"/>
<path d="M290.74 25H270.92C268.109 25 265.83 27.2789 265.83 30.09V49.91C265.83 52.7211 268.109 55 270.92 55H290.74C293.551 55 295.83 52.7211 295.83 49.91V30.09C295.83 27.2789 293.551 25 290.74 25Z" stroke="#FF6633" stroke-miterlimit="10"/>
<path d="M276.3 34.03H285.36V35.9H278.57V39.63H284.86V41.48H278.57V47.35H276.3V34.02V34.03Z" fill="#FF6633"/>
</svg>
