<svg width="331" height="310" viewBox="0 0 331 310" fill="none" xmlns="http://www.w3.org/2000/svg">
<path d="M295.35 0H35.3501C16.0201 0 0.350098 15.67 0.350098 35V275C0.350098 294.33 16.0201 310 35.3501 310H295.35C314.68 310 330.35 294.33 330.35 275V35C330.35 15.67 314.68 0 295.35 0Z" fill="#FFFCE1"/>
<path d="M295.35 15H35.3501C24.3044 15 15.3501 23.9543 15.3501 35V275C15.3501 286.046 24.3044 295 35.3501 295H295.35C306.396 295 315.35 286.046 315.35 275V35C315.35 23.9543 306.396 15 295.35 15Z" fill="#FFFCE1" stroke="#0E100F" stroke-miterlimit="10"/>
<path d="M40.3501 45C43.1115 45 45.3501 42.7614 45.3501 40C45.3501 37.2386 43.1115 35 40.3501 35C37.5887 35 35.3501 37.2386 35.3501 40C35.3501 42.7614 37.5887 45 40.3501 45Z" fill="#84F2D6"/>
<path d="M60.3501 45C63.1115 45 65.3501 42.7614 65.3501 40C65.3501 37.2386 63.1115 35 60.3501 35C57.5887 35 55.3501 37.2386 55.3501 40C55.3501 42.7614 57.5887 45 60.3501 45Z" fill="#84F2D6"/>
<path d="M80.3501 45C83.1115 45 85.3501 42.7614 85.3501 40C85.3501 37.2386 83.1115 35 80.3501 35C77.5887 35 75.3501 37.2386 75.3501 40C75.3501 42.7614 77.5887 45 80.3501 45Z" fill="#84F2D6"/>
<path d="M15.3501 65H315.35" stroke="#0E100F" stroke-miterlimit="10"/>
<path d="M35.5801 110.46H40.91L47.6201 134.5L54.8801 110.46H60.86L68.0801 134.5L74.8401 110.46H79.9401L71.0201 139.88H64.9501L57.73 116.02L50.6 139.88H44.5301L35.5701 110.46H35.5801Z" fill="#0E100F"/>
<path d="M79.8599 128.07C79.8599 121.77 82.2499 116.02 91.6299 116.02C100.32 116.02 102.76 122.64 102.16 130.04H84.9698C85.2498 134.09 87.2699 136.43 91.4999 136.43C95.4099 136.43 96.6499 134.55 97.1099 132.66H102.26C101.85 136.66 99.0899 140.2 91.6899 140.2C82.2199 140.2 79.8699 134.36 79.8699 128.06L79.8599 128.07ZM97.0999 126.14V126.05C97.1499 122.83 95.6299 119.84 91.1699 119.84C86.7099 119.84 85.2399 122.69 85.0099 126.14H97.0999Z" fill="#0E100F"/>
<path d="M109.88 136.48L108.87 139.88H106.2V107.38H111.03V119.2C112.04 117.64 114.39 116.03 119.03 116.03C126.8 116.03 128.96 121.68 128.96 128.12C128.96 134.56 126.66 140.21 118.94 140.21C113.33 140.21 110.8 138.1 109.88 136.49V136.48ZM117.6 136.2C122.89 136.2 124.04 132.94 124.04 128.11C124.04 123.28 122.89 120.16 117.46 120.16C112.03 120.16 110.98 123.47 110.98 128.07C110.98 132.94 112.13 136.21 117.6 136.21V136.2Z" fill="#0E100F"/>
<path d="M38.7501 167.52H35.3901V164.58L38.7501 163.57V161.13C38.7501 156.12 41.3701 154.14 47.6201 154.14C48.3101 154.14 49.0002 154.14 49.7802 154.19V158.19C49.0402 158.14 48.6801 158.14 48.2201 158.14C44.3601 158.14 43.3901 159.2 43.3901 161.17V163.51H49.7802V167.51H43.3901V187.05H38.7501V167.51V167.52Z" fill="#0E100F"/>
<path d="M52.6799 163.52H55.2999L56.45 166.78C57.88 163.75 60.6299 162.92 64.8199 163.19V167.47C59.9899 166.78 57.5999 169.13 57.5999 174.64V187.05H52.6799V163.51V163.52Z" fill="#0E100F"/>
<path d="M65.5601 175.29C65.5601 169.08 68.0001 163.2 77.2401 163.2C86.4801 163.2 88.92 169.08 88.92 175.29C88.92 181.5 86.3901 187.38 77.2001 187.38C68.0101 187.38 65.5701 181.54 65.5701 175.29H65.5601ZM77.1901 183.38C82.7101 183.38 83.9001 179.84 83.9001 175.29C83.9001 170.74 82.8 167.2 77.23 167.2C71.66 167.2 70.5601 170.88 70.5601 175.29C70.5601 179.7 71.7601 183.38 77.1801 183.38H77.1901Z" fill="#0E100F"/>
<path d="M92.78 163.52H95.45L96.55 166.83C97.33 165.22 99.81 163.2 105.15 163.2C112.87 163.2 114.39 167.7 114.39 174.37V187.06H109.52V173.96C109.52 169.78 108.78 167.29 103.77 167.29C98.76 167.29 97.7 169.73 97.7 173.96V187.06H92.78V163.52Z" fill="#0E100F"/>
<path d="M119.81 180.3V167.47H116.45V164.53L119.81 163.52V157.64H124.59V163.52H130.84V167.47H124.73V180.3C124.73 182.51 125.74 183.52 130.84 183.29V187.24C123.07 187.7 119.81 185.86 119.81 180.3Z" fill="#0E100F"/>
<path d="M133.47 173.18H146.99V177.22H133.47V173.18Z" fill="#0E100F"/>
<path d="M150.39 175.25C150.39 168.95 152.78 163.21 162.16 163.21C170.85 163.21 173.29 169.83 172.69 177.23H155.5C155.78 181.28 157.8 183.62 162.03 183.62C165.94 183.62 167.18 181.74 167.64 179.85H172.79C172.38 183.85 169.62 187.39 162.22 187.39C152.75 187.39 150.4 181.55 150.4 175.25H150.39ZM167.63 173.32V173.23C167.68 170.01 166.16 167.02 161.7 167.02C157.24 167.02 155.77 169.87 155.54 173.32H167.63Z" fill="#0E100F"/>
<path d="M176.74 163.52H179.41L180.51 166.83C181.29 165.22 183.77 163.2 189.11 163.2C196.83 163.2 198.35 167.7 198.35 174.37V187.06H193.48V173.96C193.48 169.78 192.74 167.29 187.73 167.29C182.72 167.29 181.66 169.73 181.66 173.96V187.06H176.74V163.52Z" fill="#0E100F"/>
<path d="M201.84 175.29C201.84 168.85 204.05 163.2 211.86 163.2C216.5 163.2 218.85 164.86 219.86 166.42V154.56H224.69V187.06H222.02L220.92 183.7C220.09 185.31 217.47 187.38 211.91 187.38C204.14 187.38 201.84 181.72 201.84 175.29ZM213.29 183.34C218.76 183.34 219.91 180.12 219.91 175.29C219.91 170.74 218.95 167.34 213.34 167.34C207.73 167.34 206.86 170.56 206.86 175.29C206.86 180.02 207.96 183.34 213.3 183.34H213.29Z" fill="#0E100F"/>
<path d="M156.06 222.13H55.8701C44.5372 222.13 35.3501 231.317 35.3501 242.65C35.3501 253.983 44.5372 263.17 55.8701 263.17H156.06C167.393 263.17 176.58 253.983 176.58 242.65C176.58 231.317 167.393 222.13 156.06 222.13Z" stroke="#FF6633" stroke-miterlimit="10"/>
<path d="M51.6699 237.69H55.1099L56.7599 246.08L59.1199 237.69H62.2399L64.7599 246.11L66.5699 237.69H69.9599L66.6999 249.43H63.0099L60.6699 241.33L58.3299 249.43H54.8199L51.6499 237.69H51.6699Z" fill="#0E100F"/>
<path d="M70.6599 243.54C70.6599 240.44 71.9399 237.51 76.5099 237.51C81.0799 237.51 82.3599 240.45 82.3599 243.54C82.3599 246.63 81.0299 249.62 76.4699 249.62C71.9099 249.62 70.6699 246.66 70.6699 243.54H70.6599ZM76.46 246.93C78.62 246.93 79.2599 245.51 79.2599 243.54C79.2599 241.68 78.7099 240.17 76.5099 240.17C74.3099 240.17 73.7599 241.62 73.7599 243.54C73.7599 245.46 74.3599 246.93 76.4699 246.93H76.46Z" fill="#0E100F"/>
<path d="M84.27 237.69H85.58L86.31 239.55C87.04 237.99 88.37 237.23 90.6 237.55V240.37C87.87 240.07 87.41 241.82 87.41 243.47V249.43H84.27V237.69Z" fill="#0E100F"/>
<path d="M91.22 243.57C91.22 240.45 92.48 237.52 96.2 237.52C98.2 237.52 99.23 238.28 99.71 238.99V233.23H102.85V249.44H101.52L100.81 247.56C100.05 248.73 98.88 249.62 96.27 249.62C92.58 249.62 91.23 246.66 91.23 243.57H91.22ZM97.16 247.01C99.36 247.01 99.77 245.63 99.77 243.57C99.77 241.62 99.43 240.18 97.18 240.18C94.93 240.18 94.43 241.56 94.43 243.57C94.43 245.58 95 247.01 97.16 247.01Z" fill="#0E100F"/>
<path d="M105.37 237.69H106.72L107.41 239.64C108.14 238.45 109.36 237.51 111.93 237.51C115.62 237.51 117 240.51 117 243.61C117 246.71 115.74 249.62 112.02 249.62C110 249.62 108.97 248.86 108.49 248.17V254.02H105.37V237.69ZM111.04 246.98C113.22 246.98 113.79 245.63 113.79 243.61C113.79 241.59 113.22 240.08 111.08 240.08C108.94 240.08 108.47 241.55 108.47 243.61C108.47 245.56 108.79 246.98 111.04 246.98Z" fill="#0E100F"/>
<path d="M119 237.69H120.31L121.04 239.55C121.77 237.99 123.1 237.23 125.33 237.55V240.37C122.6 240.07 122.14 241.82 122.14 243.47V249.43H119V237.69Z" fill="#0E100F"/>
<path d="M126.11 243.57C126.11 240.63 127.07 237.52 131.82 237.52C136.29 237.52 137.62 241.1 137.28 244.81H129.32C129.41 246.48 130.47 247.2 131.84 247.2C133.21 247.2 133.84 246.58 133.97 245.89H137.3C137.09 247.86 135.74 249.63 131.96 249.63C127.14 249.63 126.11 246.6 126.11 243.58V243.57ZM134.04 242.4C133.99 240.89 133.33 239.97 131.66 239.97C130.08 239.97 129.39 240.89 129.32 242.4H134.04Z" fill="#0E100F"/>
<path d="M138.62 245.31H141.72C141.72 246.52 142.66 247.19 144.33 247.19C145.78 247.19 146.58 246.69 146.58 246C146.58 243.84 138.87 245.38 138.87 241.23C138.87 238.78 140.73 237.52 144.1 237.52C147.47 237.52 149.33 238.94 149.33 241.67H146.39C146.25 240.41 145.68 239.9 144.01 239.9C142.43 239.9 141.95 240.47 141.95 241.07C141.95 243.13 149.68 241.41 149.68 245.86C149.68 248.11 147.57 249.62 144.41 249.62C140.56 249.62 138.63 248.2 138.63 245.31H138.62Z" fill="#0E100F"/>
<path d="M150.91 245.31H154.01C154.01 246.52 154.95 247.19 156.62 247.19C158.06 247.19 158.87 246.69 158.87 246C158.87 243.84 151.16 245.38 151.16 241.23C151.16 238.78 153.02 237.52 156.39 237.52C159.76 237.52 161.62 238.94 161.62 241.67H158.68C158.54 240.41 157.97 239.9 156.29 239.9C154.71 239.9 154.23 240.47 154.23 241.07C154.23 243.13 161.96 241.41 161.96 245.86C161.96 248.11 159.85 249.62 156.68 249.62C152.83 249.62 150.9 248.2 150.9 245.31H150.91Z" fill="#0E100F"/>
<path d="M264.09 41.76V38.51L277.72 32.73V35.95L266.48 40.1L277.72 44.15V47.27L264.09 41.76Z" fill="#FF6633"/>
<path d="M281.21 44.15L292.45 40.1L281.21 35.95V32.73L294.84 38.51V41.76L281.21 47.27V44.15Z" fill="#FF6633"/>
<path d="M206.59 230.9L216.05 249.06L219.95 247.03L221.97 250.92L225.87 248.89L230.6 257.98L238.38 253.92L242.44 261.7L248.92 258.32L250.22 257.65L246.17 249.86L266.92 239.05L270.98 246.83L278.76 242.78L274.71 234.99L282.49 230.94L277.76 221.85L281.65 219.83L279.62 215.93L283.52 213.91L273.38 194.45L265.59 198.5L268.3 203.69L268.97 204.99L259.89 209.72L256.51 203.23L251.32 205.94L247.26 198.15L239.48 202.21L243.54 209.99L234.46 214.73L230.4 206.94L222.62 211L226.67 218.78L221.48 221.49L224.86 227.97L217.08 232.03L213.7 225.54L205.91 229.6L206.59 230.9Z" fill="#FF6633"/>
<path d="M242.451 261.751L234.665 265.807L238.722 273.594L246.508 269.537L242.451 261.751Z" fill="#FF6633"/>
<path d="M286.558 238.76L278.771 242.817L282.828 250.604L290.615 246.547L286.558 238.76Z" fill="#FF6633"/>
<path d="M233.04 233.61L237.71 231.18L241.77 238.96L237.1 241.39L233.04 233.61Z" fill="#FFFCE1"/>
<path d="M256.71 221.27L261.38 218.84L265.44 226.62L260.77 229.05L256.71 221.27Z" fill="#FFFCE1"/>
</svg>
