<svg xmlns="http://www.w3.org/2000/svg" fill="#fff" viewBox="0 0 24 24"><g id="Camada_2" data-name="Camada 2"><g id="Camada_1-2" data-name="Camada 1"><path d="M12.05,0A11.89,11.89,0,0,0,1.69,17.83L0,24l6.33-1.66A11.95,11.95,0,0,0,24,11.9a11.78,11.78,0,0,0-3.5-8.41A11.88,11.88,0,0,0,12.05,0m0,2A9.89,9.89,0,1,1,7,20.4l-.36-.2-3.76,1,1-3.65-.24-.38a9.8,9.8,0,0,1-1.52-5.26A9.94,9.94,0,0,1,12.06,2M7.82,6.4a1.1,1.1,0,0,0-.8.37A3.37,3.37,0,0,0,6,9.25a5.82,5.82,0,0,0,1.21,3.07A13.22,13.22,0,0,0,12.3,16.8a15.49,15.49,0,0,0,1.7.64,4.29,4.29,0,0,0,1.88.12,3.1,3.1,0,0,0,2-1.42,2.55,2.55,0,0,0,.18-1.42,1.53,1.53,0,0,0-.58-.32c-.3-.17-1.77-.89-2-1s-.44-.15-.67.14-.78,1-.94,1.16-.35.23-.64.09a8.26,8.26,0,0,1-2.42-1.48,9,9,0,0,1-1.66-2.06.45.45,0,0,1,.13-.6,4,4,0,0,0,.45-.53,1.8,1.8,0,0,0,.3-.49.55.55,0,0,0,0-.52C9.91,9,9.31,7.51,9.06,6.92s-.49-.5-.68-.51Z"/></g></g></svg>